<svg id="холод" xmlns="http://www.w3.org/2000/svg" viewBox="0 0 1357.44 910.03"><defs><style>.cls-1,.cls-7{fill:#d7e2e7;}.cls-2,.cls-6{fill:#fff;}.cls-3{fill:#cdd9de;}.cls-4{fill:#75848a;}.cls-5{fill:#873738;}.cls-12,.cls-6,.cls-7{fill-rule:evenodd;}.cls-8{fill:#d6e1e5;}.cls-9{fill:#f9fdff;}.cls-10{fill:#0170c3;}.cls-11{fill:#42515c;}.cls-12{fill:#1b2c38;}.cls-13{fill:none;}</style></defs><g id="право"><g id="Group_2" data-name="Group 2"><g id="Rectangle_5" data-name="Rectangle 5"><polygon class="cls-1" points="65.47 675.82 207.84 532.99 47.6 470.33 164.86 170.44 337.13 237.8 355.02 172.04 518.52 216.53 708.18 26.87 903.26 221.95 931.94 221.95 953.1 181.03 1213.36 315.61 1146.48 444.95 1338.44 444.95 1338.44 762.95 934.44 762.95 934.44 736.02 783.44 785.29 783.44 865.95 352.44 865.95 352.44 803.93 273.47 883.16 65.47 675.82"/><path class="cls-2" d="M1557.74,123.79,1745,311h48.11l17.75-34.32,226.51,117.13L1964.83,534H2169V814H1803V779.89l-189,61.67V917H1221V828l-98,98.33L941.9,745.83l149.44-149.92-169.56-66.3,103.42-264.5,174.28,68.14,18.45-67.83,155.8,42.38,184-184m0-53.74-26.87,26.87L1362.44,265.35l-134.53-36.6-36.67-10-10,36.67-7.35,27L1039,229.71l-35.39-13.83-13.83,35.39L886.38,515.77l-13.83,35.39L907.94,565l115.53,45.17L915,719l-26.82,26.92,26.91,26.82,181.09,180.51,26.92,26.83,26.82-26.92L1183,920v35h469V869.13l113-36.87V852h442V496H2027.26l43.81-84.73,17.46-33.76-33.76-17.45-226.5-117.13-33.76-17.46-17.45,33.76L1769.93,273h-9.24L1584.61,96.92l-26.87-26.87Z" transform="translate(-849.56 -70.05)"/></g><path class="cls-3" d="M1923.6,311c0,417.14-955.92,395.3-955.92,39.89,0-42,59.75-101.61,59.75-101.61l157.78,55.66L1208,245.7,1366.49,285,1557.74,99.15l208.07,192L1803,253.36Z" transform="translate(-849.56 -70.05)"/><g id="Ellipse_9" data-name="Ellipse 9"><path class="cls-2" d="M1857.5,618.78a143.28,143.28,0,0,0-128.3,206.94c49.63-11.72,8-16.72,32.19-22.15,21.11-4.72,32.76,30.64,96.11,28.34,51.35-1.86,43.12,0,121.72,5.6A143.25,143.25,0,0,0,1857.5,618.78Z" transform="translate(-849.56 -70.05)"/></g><g id="Ellipse_9_copy" data-name="Ellipse 9 copy"><path class="cls-4" d="M1857.5,656a106,106,0,0,0-106,106c0,58.54,43.09,82.17,101.63,82.17,34.12,0,68.84,7.71,88.23-17.33A106,106,0,0,0,1857.5,656Z" transform="translate(-849.56 -70.05)"/></g><g id="Ellipse_10" data-name="Ellipse 10"><ellipse class="cls-4" cx="573.44" cy="767.45" rx="253" ry="69.5"/></g><g id="Rectangle_6" data-name="Rectangle 6"><path class="cls-2" d="M1071,500l72.32,131.41L940.56,743l-6.07-11.66L1053,597.53l-84-41.37L1071,500m7.88-27.17-17.52,9.64L959.29,538.64l-33.64,18.51,34.44,17,60.52,29.79L919.52,718.06l-9.12,10.3,6.35,12.2,6.07,11.66,9.45,18.15,17.93-9.86L1153,648.93l17.52-9.65-9.64-17.52-72.32-131.42-9.64-17.52Z" transform="translate(-849.56 -70.05)"/></g><g id="Ellipse_12" data-name="Ellipse 12"><path class="cls-2" d="M1218.73,263.72c11.79,2,24.67,4.48,38.13,7.09,36,7,73.28,14.16,101.13,14.16a101.78,101.78,0,0,0,21.59-2,133,133,0,0,1-30.79,137.84,130.3,130.3,0,0,1-185.2,0,131.63,131.63,0,0,1-38.4-93.37,133,133,0,0,1,4.09-32.88c10.75,5.07,23.46,10.31,37,10.31,22.1,0,39.72-13.83,52.5-41.15m-8-14.44c-12.67,33-28.6,42.59-44.51,42.59-16.12,0-32.22-9.9-44.89-15.42a145.51,145.51,0,0,0-9.15,51c0,80.08,64.47,145,144,145s144-64.92,144-145a145.27,145.27,0,0,0-13.28-60.89c-6.49,3.87-16.56,5.42-28.92,5.42-39.78,0-103.22-16.07-147.25-22.69Z" transform="translate(-849.56 -70.05)"/></g><g id="Ellipse_13" data-name="Ellipse 13"><circle class="cls-5" cx="131" cy="471.07" r="31"/><path class="cls-2" d="M980.56,519.12a22,22,0,1,1-22,22,22,22,0,0,1,22-22m0-18a40,40,0,1,0,40,40,40,40,0,0,0-40-40Z" transform="translate(-849.56 -70.05)"/></g><g id="Ellipse_13_copy" data-name="Ellipse 13 copy"><circle class="cls-5" cx="797.44" cy="737.95" r="31"/><path class="cls-2" d="M1647,786a22,22,0,1,1-22,22,22,22,0,0,1,22-22m0-18a40,40,0,1,0,40,40,40,40,0,0,0-40-40Z" transform="translate(-849.56 -70.05)"/></g><g id="Rectangle_5-2" data-name="Rectangle 5"><path class="cls-2" d="M1557.74,123.79,1745,311h48.11l17.75-34.32,226.51,117.13L1964.83,534H2169V814H1803V779.89l-189,61.67V917H1221V828l-98,98.33L941.9,745.83l149.44-149.92-169.56-66.3,103.42-264.5,174.28,68.14,18.45-67.83,155.8,42.38,184-184m0-53.74-26.87,26.87L1362.44,265.35l-134.53-36.6-36.67-10-10,36.67-7.35,27L1039,229.71l-35.39-13.83-13.83,35.39L886.38,515.77l-13.83,35.39L907.94,565l115.53,45.17L915,719l-26.82,26.92,26.91,26.82,181.09,180.51,26.92,26.83,26.82-26.92L1183,920v35h469V869.13l113-36.87V852h442V496H2027.26l43.81-84.73,17.46-33.76-33.76-17.45-226.5-117.13-33.76-17.46-17.45,33.76L1769.93,273h-9.24L1584.61,96.92l-26.87-26.87Z" transform="translate(-849.56 -70.05)"/></g><path class="cls-6" d="M1769.86,379.44a19.93,19.93,0,0,1-3.3-.29c-4.59-.77-7.6-2.49-9.21-5.26-2.64-4.56-.58-10.11,2-17.15A100.23,100.23,0,0,0,1764.8,338a13.48,13.48,0,0,0-.8-7,75.38,75.38,0,0,1-17.62-7.95,14.05,14.05,0,0,0-5.59,4.05,97.93,97.93,0,0,0-10.57,16.5c-3.92,7.25-7,13-13.16,13-2.57,0-5.21-1.14-8-3.48-3.59-3-5.34-6-5.34-9.16,0-5.26,4.55-9.05,10.32-13.84a100.09,100.09,0,0,0,14-13.49,13.26,13.26,0,0,0,2.77-6.31,75.55,75.55,0,0,1-11.35-15.83,19.2,19.2,0,0,0-2.06-.12,13.19,13.19,0,0,0-4.72.84,98.18,98.18,0,0,0-17.4,9c-5.48,3.37-9.44,5.8-13.5,5.8-4.34,0-7.58-2.76-9.61-8.2-1.63-4.35-1.65-7.82-.05-10.59,2.62-4.57,8.46-5.56,15.86-6.83a99.77,99.77,0,0,0,18.91-4.65,13.28,13.28,0,0,0,5.5-4,75,75,0,0,1-1.89-19.49,14,14,0,0,0-6.2-2.74,79.86,79.86,0,0,0-13.44-1c-2.17,0-4.19.05-6.14.11-1.7,0-3.29.09-4.74.09-4.36,0-9.25-.29-12.19-3.75-2-2.36-2.61-5.62-1.88-10,1.45-8.62,6.32-10.43,10.15-10.43,3.47,0,7.35,1.43,12.26,3.25a100.82,100.82,0,0,0,18.71,5.42,12.27,12.27,0,0,0,2,.17,14.21,14.21,0,0,0,4.77-.9,74.67,74.67,0,0,1,8.11-17.76,14,14,0,0,0-4-5.52,98.56,98.56,0,0,0-16.5-10.57c-6.6-3.57-11.81-6.39-12.81-11.52-.6-3.08.49-6.24,3.33-9.69s6-5.34,9.17-5.34c5.25,0,9,4.55,13.82,10.32a100.09,100.09,0,0,0,13.49,14.05,13.19,13.19,0,0,0,6.36,2.78,75.64,75.64,0,0,1,15.76-11.2,14.27,14.27,0,0,0-.7-6.94,97.52,97.52,0,0,0-9-17.4c-3.92-6.39-7-11.44-5.33-16.39,1-3,3.55-5.16,7.73-6.72a17.11,17.11,0,0,1,5.92-1.24c8.59,0,10,8.28,11.5,17.05a100.81,100.81,0,0,0,4.66,18.93,13.42,13.42,0,0,0,4.21,5.67,74.53,74.53,0,0,1,16.45-1.83c.86,0,1.73,0,2.6,0a14.23,14.23,0,0,0,3-6.49,98.21,98.21,0,0,0,.9-19.57c-.2-7.47-.35-12.86,3.06-16.37a9.71,9.71,0,0,1,7.26-2.74,19.17,19.17,0,0,1,3.31.3c4.59.76,7.6,2.48,9.2,5.25,2.64,4.56.58,10.11-2,17.15a100,100,0,0,0-5.43,18.71,13.54,13.54,0,0,0,.88,7.2,74.47,74.47,0,0,1,17.19,7.86,14.29,14.29,0,0,0,6-4.2,98.4,98.4,0,0,0,10.57-16.5c3.92-7.24,7-13,13.15-13,2.57,0,5.21,1.14,8.06,3.49,3.58,3,5.33,5.94,5.34,9.14,0,5.27-4.55,9-10.33,13.84a100.66,100.66,0,0,0-14,13.49,13.69,13.69,0,0,0-2.86,6.83,75,75,0,0,1,10.84,15.24,20.09,20.09,0,0,0,2.65.2,13.25,13.25,0,0,0,4.73-.85,98.33,98.33,0,0,0,17.41-9c5.47-3.37,9.43-5.81,13.49-5.81,4.34,0,7.57,2.76,9.61,8.2,1.63,4.36,1.64,7.82,0,10.6-2.62,4.56-8.47,5.56-15.86,6.82a100.92,100.92,0,0,0-18.92,4.66,13.8,13.8,0,0,0-5.92,4.52,74.67,74.67,0,0,1,1.79,18.56,14.42,14.42,0,0,0,6.73,3.15,79.82,79.82,0,0,0,13.43,1h0c2.17,0,4.19-.05,6.14-.11,1.71-.05,3.3-.09,4.76-.09,4.35,0,9.24.29,12.17,3.75,2,2.36,2.61,5.62,1.88,10-1.44,8.62-6.31,10.43-10.14,10.43-3.47,0-7.35-1.43-12.26-3.25a100.23,100.23,0,0,0-18.71-5.43,12.39,12.39,0,0,0-2-.17,15,15,0,0,0-5.38,1.12,75,75,0,0,1-7.71,17,14.53,14.53,0,0,0,4.24,6,98.16,98.16,0,0,0,16.5,10.57c6.59,3.57,11.8,6.39,12.8,11.52.6,3.07-.49,6.24-3.33,9.68-3,3.6-6,5.34-9.16,5.34-5.26,0-9-4.55-13.83-10.32A100.66,100.66,0,0,0,1844.2,317a13.66,13.66,0,0,0-6.78-2.85,75.61,75.61,0,0,1-15.3,11,14.32,14.32,0,0,0,.66,7.22,99.1,99.1,0,0,0,9,17.42c3.93,6.38,7,11.43,5.33,16.37-1,3-3.54,5.16-7.72,6.72a16.88,16.88,0,0,1-5.92,1.24c-8.59,0-10-8.28-11.51-17a99.67,99.67,0,0,0-4.65-18.92,13.53,13.53,0,0,0-4.3-5.75,74.9,74.9,0,0,1-16.88,1.93c-.71,0-1.41,0-2.12,0a14.26,14.26,0,0,0-2.94,6.45,99,99,0,0,0-.9,19.57c.21,7.47.36,12.86-3.06,16.37A9.69,9.69,0,0,1,1769.86,379.44Z" transform="translate(-849.56 -70.05)"/><path class="cls-4" d="M1802.73,142.33a16.09,16.09,0,0,1,2.6.24c14.62,2.45,2,14-1.73,36.22-.84,5,.85,8.84,1.89,11.39a70.34,70.34,0,0,1,19.89,9.11c2.52-.95,6.44-2.26,9.71-6.23,11.46-13.9,14-27.92,20.44-27.92,1.51,0,3.24.77,5.35,2.52,11.43,9.42-5.27,13.1-19.61,30.49-3.3,4-3.7,8.24-4.09,10.95a71.17,71.17,0,0,1,12.57,17.68,32.22,32.22,0,0,0,5.43.59,17.66,17.66,0,0,0,6.22-1.11c14.78-5.53,23.69-14.54,29.41-14.55,2.35,0,4.16,1.53,5.63,5.44,5.19,13.88-11.13,8.71-32.24,16.61-4.89,1.82-7.35,5.34-9,7.48a70.44,70.44,0,0,1,2.07,21.53c2.08,1.7,5.21,4.53,10.37,5.4a85.47,85.47,0,0,0,14.13,1.06c4.16,0,7.84-.2,10.91-.2,7.27,0,11.14,1.13,9.86,8.77-.86,5.1-2.82,6.88-6,6.88-5.85,0-15.79-6.2-30.26-8.62a16.17,16.17,0,0,0-2.71-.23,22.65,22.65,0,0,0-8.87,2.19,71,71,0,0,1-9,19.74c1,2.53,2.26,6.49,6.26,9.79,17.17,14.16,34.53,14.72,25.4,25.79-2.19,2.65-4.07,3.79-5.89,3.79-6,0-11.26-12.4-24.61-23.4-4-3.28-8.2-3.69-10.91-4.08a71.66,71.66,0,0,1-17.74,12.73c-.44,2.66-1.24,6.69.55,11.49,7.79,20.84,22.54,30,9.11,35a12.94,12.94,0,0,1-4.43,1c-8.35,0-5.29-14.77-12.18-33.2-1.77-4.73-5.1-7.2-7.27-8.88a70.88,70.88,0,0,1-17.89,2.3c-1.36,0-2.72,0-4.09-.12a20.48,20.48,0,0,0-5.16,10.09c-3.42,20.45,3.45,35.13-7,35.13a16.09,16.09,0,0,1-2.6-.24c-14.62-2.45-2-14,1.73-36.22.82-4.88-.76-8.63-1.8-11.17a71,71,0,0,1-20.34-9.2,20.17,20.17,0,0,0-9.35,6.1c-11.46,13.9-14,27.92-20.44,27.92-1.51,0-3.24-.78-5.35-2.51-11.43-9.43,5.28-13.12,19.61-30.51,3.1-3.76,3.64-7.72,4-10.44a71.53,71.53,0,0,1-13.09-18.28,27.75,27.75,0,0,0-4.84-.5,17.41,17.41,0,0,0-6.21,1.12c-14.77,5.52-23.68,14.54-29.41,14.54-2.35,0-4.17-1.52-5.63-5.44-5.19-13.87,11.12-8.71,32.23-16.6,4.52-1.68,6.95-4.8,8.64-6.95a71,71,0,0,1-2.17-22.48,20,20,0,0,0-9.85-5,85.5,85.5,0,0,0-14.14-1.06c-4.15,0-7.82.2-10.88.2-7.28,0-11.15-1.13-9.87-8.77.85-5.1,2.81-6.88,6-6.88,5.86,0,15.8,6.19,30.26,8.61a16.26,16.26,0,0,0,2.71.23,21.18,21.18,0,0,0,8.27-1.94,70.94,70.94,0,0,1,9.36-20.5,20.12,20.12,0,0,0-6.07-9.28c-17.17-14.15-34.52-14.72-25.4-25.78,2.19-2.66,4.08-3.8,5.89-3.8,6,0,11.26,12.4,24.61,23.4,3.78,3.12,7.76,3.65,10.48,4a71.6,71.6,0,0,1,18.21-12.93,20.27,20.27,0,0,0-.59-11.21c-7.79-20.85-22.54-30-9.1-35a13.14,13.14,0,0,1,4.43-1c8.35,0,5.28,14.78,12.18,33.21,1.73,4.66,5,7.12,7.17,8.81a70.34,70.34,0,0,1,17.47-2.2c1.51,0,3,0,4.55.14,1.73-2.08,4.38-5.16,5.21-10.13,3.43-20.45-3.44-35.14,7-35.14m0-8.51a13.9,13.9,0,0,0-10.31,4c-4.66,4.8-4.48,11.59-4.26,19.45a93.71,93.71,0,0,1-.84,18.76,9,9,0,0,1-1,2.9h-.36a78.4,78.4,0,0,0-15.14,1.47,8.14,8.14,0,0,1-1.54-2.54,95.46,95.46,0,0,1-4.45-18.15c-.78-4.57-1.45-8.51-2.89-11.81-3.34-7.64-9.45-8.78-12.8-8.78a21,21,0,0,0-7.41,1.51c-5.37,2-8.82,5.14-10.26,9.32-2.35,6.85,1.39,12.94,5.73,20a93.39,93.39,0,0,1,8.65,16.67,9.31,9.31,0,0,1,.57,2.86,80.76,80.76,0,0,0-12.82,9.12,7.79,7.79,0,0,1-2.48-1.39,95.67,95.67,0,0,1-12.93-13.49c-5.28-6.36-9.84-11.85-17.09-11.85-6.77,0-11,5.18-12.45,6.89-3.65,4.42-5.07,8.86-4.22,13.2,1.38,7.11,7.67,10.51,15,14.45a93.23,93.23,0,0,1,15.82,10.11,8.93,8.93,0,0,1,1.85,2.08,79.37,79.37,0,0,0-6.58,14.44,8.36,8.36,0,0,1-1.43.13,8.25,8.25,0,0,1-1.3-.11,95.18,95.18,0,0,1-17.94-5.22c-5.31-2-9.5-3.52-13.73-3.52-3.61,0-12.23,1.37-14.34,14-.93,5.58,0,10.09,2.83,13.41C1669,257,1676.14,257,1680,257c1.53,0,3.15,0,4.86-.09,1.92-.06,3.91-.11,6-.11a75.77,75.77,0,0,1,12.74.95,9,9,0,0,1,2.6.86,79.26,79.26,0,0,0,1.55,15.83,8,8,0,0,1-2.34,1.36,95.28,95.28,0,0,1-18.15,4.45c-8.16,1.4-15.21,2.6-18.83,8.9-3.37,5.86-1,12.14-.24,14.2,3.56,9.54,10,11,13.59,11,5.26,0,9.88-2.84,15.73-6.44a93.62,93.62,0,0,1,16.66-8.65,9.09,9.09,0,0,1,2.73-.56,79.86,79.86,0,0,0,9.23,12.86,8,8,0,0,1-1.37,2.43,95.67,95.67,0,0,1-13.49,12.93c-6.37,5.29-11.87,9.86-11.86,17.12,0,6.76,5.19,11,6.9,12.43,3.63,3,7.15,4.45,10.75,4.45,8.67,0,12.85-7.72,16.9-15.19a93.41,93.41,0,0,1,10.1-15.83,9.25,9.25,0,0,1,2.16-1.9,79.24,79.24,0,0,0,14.33,6.46,7.86,7.86,0,0,1,0,2.91,95.06,95.06,0,0,1-5.22,17.93c-2.87,7.77-5.35,14.48-1.71,20.76,3.39,5.85,10,7,12.19,7.32a24.22,24.22,0,0,0,4,.36,13.9,13.9,0,0,0,10.31-4c4.67-4.8,4.48-11.59,4.26-19.45a93.77,93.77,0,0,1,.85-18.76,9.09,9.09,0,0,1,1-2.87,79.5,79.5,0,0,0,15.47-1.55,8.14,8.14,0,0,1,1.59,2.6,94.71,94.71,0,0,1,4.45,18.15c.78,4.57,1.46,8.51,2.9,11.81,3.33,7.63,9.45,8.77,12.8,8.77a21,21,0,0,0,7.41-1.51c5.37-2,8.82-5.14,10.25-9.32,2.35-6.84-1.39-12.93-5.73-20a93.39,93.39,0,0,1-8.64-16.67,9,9,0,0,1-.58-3.15,80.5,80.5,0,0,0,12.45-9,8.25,8.25,0,0,1,2.86,1.51,96.12,96.12,0,0,1,12.92,13.49c5.28,6.36,9.84,11.86,17.09,11.86,6.77,0,11-5.19,12.46-6.89,3.64-4.43,5.06-8.87,4.22-13.21-1.39-7.1-7.68-10.5-15-14.44A92.89,92.89,0,0,1,1857.41,301a9.21,9.21,0,0,1-2.13-2.53,79,79,0,0,0,6.27-13.87,8.38,8.38,0,0,1,2-.25,7.24,7.24,0,0,1,1.31.11,95.4,95.4,0,0,1,17.94,5.22c5.3,2,9.5,3.51,13.72,3.51,3.61,0,12.23-1.36,14.35-14,.93-5.58,0-10.09-2.84-13.42-4.44-5.25-11.58-5.25-15.41-5.25-1.54,0-3.16,0-4.87.09-1.93.06-3.92.11-6,.11a75.52,75.52,0,0,1-12.72-1,9.06,9.06,0,0,1-3.16-1.16,79,79,0,0,0-1.46-15.11,7.91,7.91,0,0,1,2.8-1.78,95.37,95.37,0,0,1,18.15-4.46c8.16-1.39,15.2-2.59,18.82-8.89,3.37-5.86,1-12.14.25-14.21-3.56-9.54-10-11-13.59-11-5.26,0-9.88,2.84-15.72,6.43a93.39,93.39,0,0,1-16.67,8.65,9,9,0,0,1-3.24.58h0a79.67,79.67,0,0,0-8.83-12.4,8,8,0,0,1,1.52-2.91,95,95,0,0,1,13.49-12.92c6.37-5.29,11.87-9.86,11.86-17.12,0-6.76-5.19-11-6.89-12.43-3.64-3-7.16-4.46-10.76-4.46-8.67,0-12.85,7.73-16.89,15.2a93.86,93.86,0,0,1-10.11,15.82,9.2,9.2,0,0,1-2.44,2.08,79,79,0,0,0-14-6.4,8,8,0,0,1-.11-3.14,95.15,95.15,0,0,1,5.23-17.94c2.87-7.76,5.35-14.47,1.71-20.75-3.39-5.85-10-6.95-12.18-7.32a24.24,24.24,0,0,0-4-.36Z" transform="translate(-849.56 -70.05)"/><path class="cls-7" d="M1742.42,620c-10.67,0-25.07-3.9-42.81-11.58-43.61-18.88-44.69-33.43-44.46-36.16l.06-.69,46.44-107.24c.65-1.6,3.66-6.88,15.16-6.88,9.91,0,23.94,3.9,41.72,11.6,46.51,20.15,46.65,34.34,45.59,38.21l-.08.28-4.65,10.74c10.36,3.29,21.52,9.49,26,18.53a19.12,19.12,0,0,1,.33,16.66L1807,596.74c-2.84,6.57-10,14.4-27.67,14.4h0a84.06,84.06,0,0,1-19.44-2.56l-2.9,6.69-.45.51C1755.68,616.77,1752.07,620,1742.42,620Zm29.17-39.2c.25,4.18,4.59,6.28,5.5,6.67a6.89,6.89,0,0,0,2.7.39c3.73,0,6.68-1.36,7.15-2.06l16.47-38c.22-.52.34-.8-.64-1.71a24,24,0,0,0-6.22-3.5,11.61,11.61,0,0,0-4.5-.89,7.49,7.49,0,0,0-3.88.84Z" transform="translate(-849.56 -70.05)"/><path class="cls-4" d="M1716.81,461.69c7.46,0,19.79,2.48,40,11.25,46.74,20.24,43.18,33.18,43.18,33.18l-6.47,14.93c17.07,4.07,34.89,15.53,28.31,30.72l-18.74,43.28c-4,9.33-14.11,11.84-23.77,11.84a82.23,82.23,0,0,1-21.87-3.38l-4.1,9.44s-2.47,2.79-11,2.79c-7.77,0-20.57-2.33-41.12-11.23-43-18.63-41.91-31.9-41.91-31.9l46.19-106.67s1.46-4.25,11.23-4.25m63,130.41c4.43,0,9.76-1.65,11-4.56l16.5-38.09c2.3-5.32-3.66-8.46-9.07-10.81a15.93,15.93,0,0,0-6.19-1.23c-3.62,0-6.83,1.2-7.69,3.19l-17,39.31c-.26,5.69,3.89,9.64,8.07,11.46a11.62,11.62,0,0,0,4.39.73m-63-138.92c-13.68,0-17.93,6.85-19,9.38h0l-46.2,106.67-.55,1.28-.12,1.39c-.17,2.1.16,7.81,7,15.37,7.59,8.41,21.06,16.83,40,25.05,18.27,7.91,33.24,11.92,44.5,11.92,11.11,0,15.81-3.94,17.32-5.64l.91-1,.54-1.25,1.22-2.82a85.4,85.4,0,0,0,16.94,1.88c20,0,28.22-9.22,31.58-17l18.74-43.28a23.36,23.36,0,0,0-.43-20.26c-5-10-15.77-15.87-24.14-19.11l2.72-6.28.24-.55.16-.57c.62-2.29,1.32-8.5-5.81-16.8-7.42-8.63-21.62-17.53-42.19-26.44-18.31-7.93-32.92-12-43.41-12Zm74.5,92.77c.21,0,.46,0,.74,0a7.37,7.37,0,0,1,2.81.54,36.37,36.37,0,0,1,3.7,1.8l-15,34.69a10.77,10.77,0,0,1-3.74.66,5.6,5.6,0,0,1-1.13-.09,5.71,5.71,0,0,1-2.64-2.26l15.29-35.3Z" transform="translate(-849.56 -70.05)"/><rect class="cls-4" x="1711.76" y="519.41" width="63.1" height="4.65" transform="translate(-277.86 1844.04) rotate(-66.58)"/><rect id="Rounded_Rectangle_1" data-name="Rounded Rectangle 1" class="cls-2" x="1707.95" y="550.87" width="35.2" height="26.24" rx="6.31" transform="translate(-327.33 1853.21) rotate(-66.58)"/><ellipse class="cls-2" cx="1752.93" cy="485.73" rx="8.63" ry="44.67" transform="translate(-239.02 1831.18) rotate(-66.58)"/><path class="cls-6" d="M960.75,912.48a21.16,21.16,0,0,1-3-.23c-4.61-.67-7.66-2.32-9.32-5-2.74-4.49-.81-10.09,1.63-17.19a100.27,100.27,0,0,0,5-18.82,13.25,13.25,0,0,0-.91-6.84,75.2,75.2,0,0,1-17.92-7.63,14.06,14.06,0,0,0-5.42,4.13,99.64,99.64,0,0,0-10.19,16.74c-3.8,7.41-6.8,13.27-13.06,13.27-2.51,0-5.11-1.09-7.93-3.31-3.66-2.88-5.47-5.83-5.55-9-.13-5.26,4.35-9.15,10-14.07a100.41,100.41,0,0,0,13.75-13.8,13.27,13.27,0,0,0,2.61-6.27,75.27,75.27,0,0,1-11.73-15.67c-.53-.05-1.1-.08-1.68-.08a13.33,13.33,0,0,0-5,1,98.16,98.16,0,0,0-17.2,9.4c-5.48,3.54-9.45,6.1-13.57,6.1s-7.46-2.68-9.58-8c-1.73-4.32-1.82-7.78-.29-10.59,2.52-4.62,8.34-5.75,15.71-7.18a101.2,101.2,0,0,0,18.8-5.08,13.33,13.33,0,0,0,5.42-4.14,74.7,74.7,0,0,1-2.31-19.4,14,14,0,0,0-6.29-2.63,77.32,77.32,0,0,0-11-.74c-3.1,0-6,.15-8.6.28-2.19.11-4.25.21-6.11.21-3.89,0-8.24-.42-11-3.56-2-2.31-2.67-5.53-2.05-9.85,1.28-8.81,6.25-10.66,10.2-10.66,3.39,0,7.21,1.31,12,3a99.78,99.78,0,0,0,18.83,5,12.87,12.87,0,0,0,1.75.12,14.08,14.08,0,0,0,5.12-1.05,75.49,75.49,0,0,1,7.66-17.75,14.25,14.25,0,0,0-4.2-5.57,98.71,98.71,0,0,0-16.74-10.2c-6.67-3.42-11.95-6.12-13.06-11.23-.67-3.06.35-6.25,3.11-9.76,2.94-3.73,6-5.55,9.24-5.55,5.16,0,9,4.42,13.86,10a100.53,100.53,0,0,0,13.81,13.75,13.31,13.31,0,0,0,6.54,2.65,75,75,0,0,1,15.36-11.41,14.4,14.4,0,0,0-.84-7.09,98.16,98.16,0,0,0-9.4-17.2c-4.07-6.29-7.28-11.27-5.69-16.25.95-3,3.42-5.24,7.57-6.9a16.8,16.8,0,0,1,6.14-1.37c8.38,0,10,8.15,11.63,16.79A100.71,100.71,0,0,0,952,712.55a13.65,13.65,0,0,0,4.49,5.69,74.65,74.65,0,0,1,18-2.21h.76a14.37,14.37,0,0,0,2.9-6.67,98.66,98.66,0,0,0,.46-19.59c-.38-7.5-.65-12.92,2.76-16.5a9.86,9.86,0,0,1,7.49-2.84,19.83,19.83,0,0,1,3,.23c4.6.66,7.65,2.31,9.32,5,2.74,4.49.81,10.1-1.64,17.19a100.6,100.6,0,0,0-5,18.83,13.66,13.66,0,0,0,1.1,7.31,75.47,75.47,0,0,1,17.18,7.39,14.42,14.42,0,0,0,6-4.38,98.67,98.67,0,0,0,10.2-16.73c3.79-7.41,6.79-13.26,13-13.26,2.51,0,5.11,1.08,7.93,3.3,3.66,2.88,5.47,5.84,5.55,9,.13,5.26-4.35,9.14-10,14.06a100,100,0,0,0-13.74,13.81,13.72,13.72,0,0,0-2.72,6.94,74.35,74.35,0,0,1,11.16,14.93,21.58,21.58,0,0,0,2.34.15,13.24,13.24,0,0,0,5.06-1,98.84,98.84,0,0,0,17.2-9.39c5.48-3.55,9.45-6.11,13.57-6.11s7.46,2.68,9.58,8c1.72,4.32,1.82,7.79.29,10.59-2.52,4.62-8.34,5.75-15.71,7.18a100.43,100.43,0,0,0-18.8,5.08,13.7,13.7,0,0,0-5.82,4.65,75,75,0,0,1,2.25,18.56,14.43,14.43,0,0,0,6.75,3,76,76,0,0,0,11,.74c3.1,0,6-.15,8.6-.28,2.19-.11,4.25-.21,6.1-.21,3.9,0,8.24.42,11,3.56,2,2.31,2.67,5.53,2,9.85-1.27,8.81-6.25,10.66-10.2,10.66-3.39,0-7.21-1.31-12-3a99.46,99.46,0,0,0-18.82-5,12.68,12.68,0,0,0-1.73-.12,14.77,14.77,0,0,0-5.54,1.2,75.4,75.4,0,0,1-7.37,17.34,14.34,14.34,0,0,0,4.32,5.83,97.43,97.43,0,0,0,16.74,10.2c6.67,3.42,11.94,6.12,13.06,11.23.67,3.06-.35,6.25-3.11,9.75-2.94,3.74-6,5.56-9.24,5.56-5.16,0-9-4.42-13.86-10A99.42,99.42,0,0,0,1034,848.39a13.47,13.47,0,0,0-6.65-2.68,74.68,74.68,0,0,1-15.25,11.49,14.15,14.15,0,0,0,.84,7,97.79,97.79,0,0,0,9.4,17.2c4.07,6.3,7.28,11.27,5.69,16.26-1,3-3.42,5.24-7.57,6.89a16.63,16.63,0,0,1-6.14,1.38c-8.38,0-10-8.16-11.64-16.79a99.74,99.74,0,0,0-5.08-18.81,13.42,13.42,0,0,0-4.3-5.54,75.34,75.34,0,0,1-18.64,2.35h-.54a14,14,0,0,0-2.68,6.37,98,98,0,0,0-.47,19.59c.38,7.51.65,12.93-2.75,16.51A9.91,9.91,0,0,1,960.75,912.48Z" transform="translate(-849.56 -70.05)"/><path class="cls-4" d="M988.91,674.68a17.07,17.07,0,0,1,2.34.18c14.67,2.12,2.3,13.94-.92,36.25-.74,5.13,1.12,9,2.2,11.48a71.41,71.41,0,0,1,19.92,8.58c2.5-1,6.46-2.4,9.68-6.5,11.21-14.23,13.41-28.37,19.91-28.37,1.49,0,3.2.74,5.3,2.39,11.65,9.18-5,13.23-18.92,30.94-3.23,4.1-3.51,8.38-3.85,11.09a70.32,70.32,0,0,1,13,17.33,33.81,33.81,0,0,0,5,.48,17.6,17.6,0,0,0,6.64-1.26c14.75-5.89,23.47-15.2,29.19-15.2,2.3,0,4.11,1.5,5.63,5.31,5.5,13.76-10.92,9-31.85,17.32-4.85,1.94-7.24,5.5-8.88,7.7a70.85,70.85,0,0,1,2.6,21.51c2.13,1.67,5.3,4.38,10.44,5.12a81.64,81.64,0,0,0,11.6.78c5.82,0,10.82-.49,14.7-.49,6.46,0,9.84,1.35,8.8,8.55-.76,5.23-2.75,7-6,7-5.88,0-15.89-5.86-30.25-7.94a17.59,17.59,0,0,0-2.34-.16,22,22,0,0,0-9.11,2.35,71.85,71.85,0,0,1-8.54,20.08c1,2.51,2.41,6.37,6.43,9.54,17.48,13.77,34.85,13.94,26,25.2-2.17,2.76-4.06,3.93-5.9,3.93-6,0-11.52-12.2-25-22.84-4-3.13-8.09-3.5-10.82-3.82a70.69,70.69,0,0,1-17.65,13.28,20.48,20.48,0,0,0,.83,11.3c8.26,20.67,23.21,29.5,9.89,34.82a12.63,12.63,0,0,1-4.56,1.08c-8.16,0-5.51-14.77-12.77-32.93-1.84-4.59-5.14-7-7.34-8.61a70.88,70.88,0,0,1-19.55,2.75c-.87,0-1.74,0-2.61,0a20.09,20.09,0,0,0-4.82,10.06c-3,20.69,4.35,35.3-6.5,35.3a15.73,15.73,0,0,1-2.34-.19c-14.68-2.12-2.31-13.94.91-36.25.7-4.82-.9-8.49-2-11A71.75,71.75,0,0,1,936.64,852a20,20,0,0,0-9.12,6.26c-11.2,14.23-13.41,28.37-19.91,28.37-1.49,0-3.2-.74-5.3-2.39-11.65-9.17,5-13.23,18.92-30.93A19.25,19.25,0,0,0,925,842.85a70.87,70.87,0,0,1-13.53-18.08,29.41,29.41,0,0,0-4.38-.39,17.67,17.67,0,0,0-6.62,1.25c-14.75,5.9-23.47,15.2-29.19,15.2-2.3,0-4.11-1.49-5.63-5.31-5.5-13.76,10.92-9,31.85-17.33,4.47-1.78,6.85-5,8.49-7.16a70.92,70.92,0,0,1-2.65-22.38,20.06,20.06,0,0,0-10-4.78,81.51,81.51,0,0,0-11.59-.78c-5.82,0-10.82.49-14.71.49-6.46,0-9.84-1.35-8.8-8.55.76-5.23,2.74-7,6-7,5.88,0,15.89,5.86,30.25,7.94a17.72,17.72,0,0,0,2.36.17,20.91,20.91,0,0,0,8.68-2.19,71.66,71.66,0,0,1,8.85-20.5,20.13,20.13,0,0,0-6.32-9.28c-17.48-13.77-34.85-13.95-26-25.22,2.17-2.75,4-3.93,5.9-3.93,5.95,0,11.51,12.21,25,22.86,3.9,3.07,8,3.48,10.69,3.8a70.52,70.52,0,0,1,17.76-13.2c.39-2.67,1.06-6.68-.81-11.37-8.26-20.66-23.21-29.5-9.89-34.82a12.59,12.59,0,0,1,4.56-1.07c8.16,0,5.5,14.77,12.76,32.92,1.89,4.73,5.32,7.12,7.53,8.76a70.52,70.52,0,0,1,18.93-2.6c.94,0,1.87,0,2.8.06,1.67-2.13,4.34-5.29,5.07-10.38,3-20.68-4.36-35.28,6.5-35.28m0-8.51a14,14,0,0,0-10.57,4.17c-4.67,4.9-4.32,11.73-3.93,19.64a92.69,92.69,0,0,1-.42,18.77,9,9,0,0,1-1,3,79.51,79.51,0,0,0-15.28,1.81A8,8,0,0,1,956,711a95.09,95.09,0,0,1-4.85-18c-.88-4.5-1.63-8.38-3.11-11.62-3.41-7.49-9.42-8.61-12.7-8.61a20.82,20.82,0,0,0-7.72,1.68c-5.32,2.12-8.7,5.34-10,9.55-2.2,6.89,1.68,12.9,6.17,19.85a93.45,93.45,0,0,1,9,16.47,8.89,8.89,0,0,1,.64,3,78.67,78.67,0,0,0-12.49,9.3,8,8,0,0,1-2.63-1.37A95.71,95.71,0,0,1,905,718c-5.35-6.16-10-11.48-17.07-11.48-6.94,0-11.19,5.4-12.58,7.17-3.55,4.51-4.87,9-3.93,13.3,1.55,7.07,7.91,10.33,15.28,14.1a93.62,93.62,0,0,1,16,9.76,8.77,8.77,0,0,1,2,2.15,79.88,79.88,0,0,0-6.21,14.45,8.78,8.78,0,0,1-1.71.18,7.28,7.28,0,0,1-1.14-.08,94.37,94.37,0,0,1-18.05-4.82c-5.2-1.79-9.31-3.21-13.42-3.21-3.71,0-12.54,1.4-14.41,14.31-.8,5.54.23,10,3,13.24,4.36,5,11.24,5,14.18,5,2,0,4.08-.11,6.32-.22,2.65-.14,5.4-.27,8.39-.27a71.66,71.66,0,0,1,10.38.69,8.91,8.91,0,0,1,2.66.82,79.55,79.55,0,0,0,1.88,15.75,8.2,8.2,0,0,1-2.33,1.44,95,95,0,0,1-18,4.85c-8.13,1.58-15.15,2.94-18.63,9.32-3.24,5.93-.75,12.16.07,14.21,3.52,8.81,9.3,10.66,13.53,10.66,5.38,0,10-3,15.88-6.79a93.09,93.09,0,0,1,16.47-9,8.73,8.73,0,0,1,2.67-.62,78.52,78.52,0,0,0,9.54,12.72,7.72,7.72,0,0,1-1.29,2.38,95.71,95.71,0,0,1-13.2,13.23c-6.25,5.43-11.65,10.12-11.47,17.38.16,6.76,5.44,10.91,7.17,12.27,3.6,2.84,7.06,4.22,10.56,4.22,8.86,0,12.92-7.92,16.84-15.58a93.71,93.71,0,0,1,9.75-16,9,9,0,0,1,2-1.9,79.92,79.92,0,0,0,14.57,6.19,7.9,7.9,0,0,1,.09,2.8,95.56,95.56,0,0,1-4.81,18c-2.7,7.82-5,14.58-1.24,20.79,3.52,5.76,10.16,6.72,12.34,7a25.27,25.27,0,0,0,3.56.27,14,14,0,0,0,10.57-4.16c4.66-4.9,4.32-11.74,3.92-19.65a94.17,94.17,0,0,1,.42-18.77,8.9,8.9,0,0,1,.86-2.74,79.72,79.72,0,0,0,15.6-1.93,7.94,7.94,0,0,1,1.55,2.46,95.18,95.18,0,0,1,4.86,18c.87,4.49,1.62,8.37,3.1,11.61,3.42,7.5,9.43,8.62,12.71,8.62a20.82,20.82,0,0,0,7.72-1.68c5.32-2.13,8.7-5.34,10-9.55,2.2-6.9-1.68-12.9-6.17-19.86a93,93,0,0,1-9-16.46,8.78,8.78,0,0,1-.64-3,79.15,79.15,0,0,0,12.41-9.36,8.13,8.13,0,0,1,2.71,1.39,95.71,95.71,0,0,1,13.23,13.2c5.35,6.16,10,11.48,17.07,11.48,6.93,0,11.18-5.4,12.58-7.17,3.55-4.51,4.87-9,3.92-13.3-1.54-7.07-7.9-10.33-15.27-14.1a94.15,94.15,0,0,1-16.05-9.75,9.12,9.12,0,0,1-2.13-2.4,80,80,0,0,0,6-14.11,8.58,8.58,0,0,1,2.1-.28,8.71,8.71,0,0,1,1.13.08,94.46,94.46,0,0,1,18,4.82c5.21,1.79,9.32,3.21,13.42,3.21,3.71,0,12.55-1.4,14.41-14.31.8-5.54-.22-10-3-13.24-4.36-5-11.24-5-14.18-5-2,0-4.07.1-6.31.21-2.65.14-5.4.28-8.39.28a71.84,71.84,0,0,1-10.39-.7,9.18,9.18,0,0,1-3.13-1.06,79.31,79.31,0,0,0-1.85-15.11,8.24,8.24,0,0,1,2.76-1.84,95.09,95.09,0,0,1,18-4.85c8.13-1.58,15.15-2.94,18.63-9.32,3.23-5.93.74-12.16-.07-14.21-3.52-8.8-9.3-10.65-13.53-10.65-5.38,0-10,3-15.88,6.78a93.08,93.08,0,0,1-16.47,9,8.86,8.86,0,0,1-3.3.64,78.56,78.56,0,0,0-9.1-12.15,8.29,8.29,0,0,1,1.47-3,95.71,95.71,0,0,1,13.2-13.23c6.25-5.43,11.65-10.12,11.47-17.38-.16-6.75-5.43-10.9-7.17-12.27-3.6-2.84-7.06-4.21-10.56-4.21-8.86,0-12.92,7.91-16.84,15.57a92.83,92.83,0,0,1-9.75,16,9,9,0,0,1-2.5,2.2,79.38,79.38,0,0,0-14-6,8.08,8.08,0,0,1-.2-3.28,95.24,95.24,0,0,1,4.81-18c2.7-7.83,5-14.59,1.25-20.8-3.52-5.76-10.16-6.72-12.34-7a23.93,23.93,0,0,0-3.56-.28Z" transform="translate(-849.56 -70.05)"/></g><g id="Слой_2" data-name="Слой 2"><g id="Слой_1-2" data-name="Слой 1-2"><g id="rysunek-3.svg"><g id="Warstwa-14"><g id="g273"><path id="path289" class="cls-8" d="M1290.42,853.27a4.52,4.52,0,0,1,.72-6.34,2.86,2.86,0,0,1,.4-.28c4-3,51.08-47.09,51.2-47.93s.92-13.3,1.8-28.44,1.8-28.75,2-30.23c.27-2.68.27-2.68-8-2.6-14.58,0-13.5.28-13.5-1.84a12.9,12.9,0,0,1,2.75-6c2.72-4,2.72-4-3.47-4.27l-29.28-.68c-25.16-.56-25.72-.64-25.72-3.79,0-.84,10.07-36.79,22.33-79.88,12.62-44.33,22.13-78.6,21.85-78.84s-12.51-2.88-27.2-5.87-27.72-5.67-29-6a10.24,10.24,0,0,0-3.11-.52,1.2,1.2,0,0,1-1.24-.72,1.46,1.46,0,0,0-1.2-.88c-1.4,0-1.52.36,19.49-61,11.14-32.67,20.25-59.42,20.17-59.5l-11.54-2.48c-14.26-3-15.62-3.6-15.62-7.51,0-1.2,53.28-68.26,59.91-75.56,1.4-1.56,1.4-1.56,12.86-1.56s11.46,0,21.33-9.87,9.9-9.9,8-12a58.89,58.89,0,0,1-7.42-10.7c-.24-.6-.4-11.5-.32-24.2,0-23.09,0-23.09-1.32-26.16-7.11-15.46,0-38.07,9.18-29,1,1,1.76,1.4,1.88,1,3-9.07,5.15-12.3,8.11-12.66,2.44,0,2.44,0,7.07,5.63,3.31,4,4.47,4.39,10.34,4a31.7,31.7,0,0,1,25.72,9.71c7.15,7.07,9.15,12,11.51,28.23a63.14,63.14,0,0,0,1.07,6.27c.56.56,166,69.18,166.83,69.18a23.19,23.19,0,0,1,7.19,7.59c.28.68,11,15,24,32,28.56,37.3,27.44,34.27,14.34,39.62a38.78,38.78,0,0,0-6.87,3.23c.4.64,132.32,299.07,134,303.06,3.47,8.43,2.51,9.59-7.47,8.75-4-.36-67.9-1.76-142.35-3.16s-141.14-2.83-148.61-2.83c-13.58-.36-13.58-.36-13.22,1.51a4.78,4.78,0,0,0,.92,2.2,16.81,16.81,0,0,1,.8,5.31c0,2.76,2.64,18.53,5.47,35.07,5.19,30,5.19,30,7.19,30.19s5.11,5.71,4,7.31c0,.28,1.68,9.31,4,20,5,22.13,4.87,21,3.23,23.13s-61.26,1.83-63.42,0-1.92-3.32,4.47-23.21c3.36-10.5,6.07-19.57,6-20a9.73,9.73,0,0,1,3.52-7.11c1.52-.68,1.52-.68-7-28.23l-8.71-28.2c0-.44-2.27.2-6.55,2.08-12.58,5.51-13.86,4-10.38-11.79,1.08-4.91,2-9,2-9.14a4.31,4.31,0,0,0-2-.24c-2.16,0-2.12-.24-.8,5a6.81,6.81,0,0,1-.72,5.43c-.4.48-2.52.72-7.07.72-6.55,0-6.55,0-14.66,32-4.43,17.53-8.46,33.87-8.94,36.35-3.64,18.53-10.43,46.25-11.55,47.16-1.87,1.52-68.33,1.48-69.69,0Zm42.06-355c2.91-10.35,5.27-18.85,5.23-18.89S1323,513.67,1323,514.71s2.4,2,4,2.28C1327,517,1329.52,508.6,1332.48,498.26Z" transform="translate(-849.56 -70.05)"/><path id="path287" class="cls-9" d="M1290.42,853.27a4.3,4.3,0,0,1,.57-6.07l.31-.24c3.43-2.47,51.32-47.36,51.44-48.28s.92-13.3,1.84-28.44,1.8-28.75,2-30.19c.31-2.64.31-2.64-10.59-2.64-12.62,0-12.78,0-8.63-6.75l2.8-4.51c.56-.92,0-1-8.75-1-22.92,0-48.4-1-50-1.72-2.68-1.27-2.76-1,20.41-82.31,12.74-44.65,22.17-78.72,21.89-79s-12.51-2.88-27.2-5.87-27.6-5.67-28.64-6a20.63,20.63,0,0,0-2.79-.68c-5.12-.32-3.32-6.27,36.54-121.42a48.27,48.27,0,0,0-11.34-3c-14.42-3-15.78-3.6-15.78-7.47,0-1.56,59.91-76.12,61.51-76.8a114,114,0,0,1,12-.36c10.94,0,10.94,0,20.81-9.87s9.9-9.9,8-12c-7.54-7.35-7.74-8.19-8-34.78-.24-24-.28-24.57-1.52-27-7-14.5.48-37.27,9.34-28.4,1.8,1.8,1.76,1.84,2.76-1.32,1.6-6.15,4.79-10.14,7.59-10.14,1.76,0,2.4.52,6.63,5.63,3.31,4,4.47,4.39,10.34,4a32.17,32.17,0,0,1,25.88,9.83c6.91,6.87,9,12,11.35,27.95.48,3.32,1,6.16,1.07,6.28s165.95,69.33,166.79,69.33a26.45,26.45,0,0,1,6.91,7.35c0,.28,10.7,14.46,24,31.55,29,37.9,28,34.79,14.74,40.14a36.81,36.81,0,0,0-6.87,3.23c0,.2,15.5,34.91,34.19,77.17l63.9,144.41c38.5,87.07,37.58,84.88,37.58,87,0,3.36-1.36,4-7.39,3.24s-305.29-6.51-305.85-6a10.67,10.67,0,0,0,.64,3.63,25.65,25.65,0,0,1,1,5.43c0,1.16,2.48,16.26,5.43,33.55,5.43,31.43,5.43,31.43,7.27,31.63s4,3.56,4,6.71c0,.8,2,10.19,4.4,20.89,5,22,4.75,20.81,3.15,22.89s-61.3,1.83-63.42,0-1.92-3.32,4.47-23.25c3.4-10.54,6.19-19.65,6.19-20.25a11.3,11.3,0,0,1,3.6-7.15c1.28-.52,1.28-.52-7.35-28.59-4.75-15.46-8.67-28.2-8.75-28.24a68.17,68.17,0,0,0-6.39,2.64c-12.54,5.55-13.78,4-10.34-11.71,1.08-5,2-9.06,2-9.22a4.31,4.31,0,0,0-2-.24c-2.24,0-2.2,0-1.12,4,1.56,5.83.32,7-7.63,7.15a31.28,31.28,0,0,0-6.55.48l-8,32c-4.35,17.41-10.7,42.62-13.78,56.52-4.67,21.28-5.79,25.48-6.79,26.31-1.87,1.52-68.33,1.48-69.69,0Zm122.33-337.36a260.67,260.67,0,0,0,57.6-14.62c7.54-2.87,6.67-1.36,10.26-17.93,1.72-8,3.36-15.26,3.59-16.21.44-1.68-.75-3.08-51.28-59.91-28.47-31.95-51.92-58.43-51.92-58.51s-6.59,19-14.1,42.65c-13.46,43-13.46,43-13.5,82.63s0,39.62,2.8,40.46C1366.9,517.63,1395.18,518.35,1412.75,515.91Zm-80.27-17.69c2.91-10.31,5.27-18.81,5.19-18.89s-14.7,34.34-14.7,35.38,2.44,2.08,4,2.28C1327,517,1329.56,508.6,1332.48,498.22Z" transform="translate(-849.56 -70.05)"/><path id="path285" class="cls-4" d="M1290.42,853.27a4.3,4.3,0,0,1,.57-6.07l.31-.24c3.43-2.47,51.32-47.36,51.44-48.28s.92-13.3,1.84-28.44,1.8-28.75,2-30.19c.31-2.64.31-2.64-10.59-2.64-12.62,0-12.78,0-8.63-6.75l2.8-4.51c.56-.92,0-1-8.75-1-22.92,0-48.4-1-50-1.72-2.68-1.27-2.76-1,20.41-82.31,12.74-44.65,22.17-78.72,21.89-79s-12.51-2.88-27.2-5.87-27.6-5.67-28.64-6a20.63,20.63,0,0,0-2.79-.68c-5.12-.32-3.32-6.27,36.54-121.42a48.27,48.27,0,0,0-11.34-3c-14.42-3-15.78-3.6-15.78-7.47,0-1.56,59.91-76.12,61.51-76.8a114,114,0,0,1,12-.36c10.94,0,10.94,0,20.81-9.87s9.9-9.9,8-12c-7.54-7.35-7.74-8.19-8-34.78-.24-24-.28-24.57-1.52-27-7-14.5.48-37.27,9.34-28.4,1.8,1.8,1.76,1.84,2.76-1.32,1.6-6.15,4.79-10.14,7.59-10.14,1.76,0,2.4.52,6.63,5.63,3.31,4,4.47,4.39,10.34,4a32.17,32.17,0,0,1,25.88,9.83c6.91,6.87,9,12,11.35,27.95.48,3.32,1,6.16,1.07,6.28s165.95,69.33,166.79,69.33a26.45,26.45,0,0,1,6.91,7.35c0,.28,10.7,14.46,24,31.55,29,37.9,28,34.79,14.74,40.14a36.81,36.81,0,0,0-6.87,3.23c0,.2,15.5,34.91,34.19,77.17l63.9,144.41c38.5,87.07,37.58,84.88,37.58,87,0,3.36-1.36,4-7.39,3.24s-305.29-6.51-305.85-6a10.67,10.67,0,0,0,.64,3.63,25.65,25.65,0,0,1,1,5.43c0,1.16,2.48,16.26,5.43,33.55,5.43,31.43,5.43,31.43,7.27,31.63s4,3.56,4,6.71c0,.8,2,10.19,4.4,20.89,5,22,4.75,20.81,3.15,22.89s-61.3,1.83-63.42,0-1.92-3.32,4.47-23.25c3.4-10.54,6.19-19.65,6.19-20.25a11.3,11.3,0,0,1,3.6-7.15c1.28-.52,1.28-.52-7.35-28.59-4.75-15.46-8.67-28.2-8.75-28.24a68.17,68.17,0,0,0-6.39,2.64c-12.54,5.55-13.78,4-10.34-11.71,1.08-5,2-9.06,2-9.22a4.31,4.31,0,0,0-2-.24c-2.24,0-2.2,0-1.12,4,1.56,5.83.32,7-7.63,7.15a31.28,31.28,0,0,0-6.55.48l-8,32c-4.35,17.41-10.7,42.62-13.78,56.52-4.67,21.28-5.79,25.48-6.79,26.31-1.87,1.52-68.33,1.48-69.69,0Zm66.66-4.71c1.92-8,8.67-39.06,8.67-39.94s-.52-1.12-12-1.27-12,0-33.94,20c-12,11.19-21.81,20.61-21.81,21s5.51.76,28.8.88c16,0,29.07,0,29.47.28s.64-.2.8-.92Zm124.41-.28c0-1.56-8.35-38.14-9-39.5s-.64-1.24-16.89-1.24c-18.53,0-15.26-3.43-24.68,25.93-5.44,16.85-5.44,15.17-.2,15.37,17.09.76,50.8.4,50.8-.56Zm-105.6-77.36c4.83-18.89,8.79-34.63,8.79-34.95a264.57,264.57,0,0,0-33.43-1c-.32.36-4.56,66.05-4.32,69.13,0,.92.88,1,10.19,1C1367.1,805.31,1367.1,805.31,1375.89,770.92Zm92.26,33.23c0-1.44-12.82-76.8-13.14-77.16a214.48,214.48,0,0,0-30.71,14.18c0,.6,4,14.61,9.06,31.15s9.43,30.59,9.43,31.47c0,1.52,0,1.52,12.74,1.52S1468.11,805.31,1468.15,804.15ZM1472.58,600c12-15.61,22.25-28.79,22.53-29.31.8-1.36,2.07-2.28,2.83-2s40.7-4.51,89.35-10.22,89.38-10.31,90.22-10.31c1.6,0,2.16-1.4,1-2.51-.44-.44-30.2-79.28-36-95.14-3.51-9.78-10.74-28.76-11.06-29.08s-72.09,29.48-72.09,30.24a1,1,0,0,0,.52.88,577.17,577.17,0,0,1,22.64,54.15c-.43.44-12.7,2.6-29.67,5.28-28.84,4.59-28.84,4.59-34.23,9.7-14.74,14.3-53.64,52.2-61.06,59.51-8.47,8.31-8.47,8.31-8.51,27.72,0,15.26,0,19.37.68,19.37s10.58-12.78,22.68-28.4Zm-92.38,22.61c22.45-.52,20,1.32,20-14.06,0-13.1,0-13.1-7.59-12.78-4,0-13.37.52-20.4.72-12.7.36-12.7.36-12.39,3.51,0,1.72.84,7.59,1.44,13.06s1.16,10.07,1.16,10.23.68,0,1.52,0,8.19-.44,16.29-.6Zm-15.77-6.83a40.93,40.93,0,0,1-1-12c0-.72,1.92-1,12-1.56,18.57-1,16.9-1.4,17.29,3.59,1,11,2,10-11.66,10.47-5.79,0-11.7.48-13.14.64-2.43.24-2.67,0-3.39-1.28Zm-12.62-39.3c0-45.77,0-45.77-9.07-49l-18.49-6.91a275.71,275.71,0,0,0-28.68-9.74,85,85,0,0,0-14.85,5.75,1.55,1.55,0,0,1-1.32.36c-1.12-.36,1.91-2,9.22-4.87s7-2.76,17.34.88c7.59,2.63,10.5,3.43,11,3s4.55-9.7,9.19-20.77,9.94-23.56,11.74-27.68c12-28,12.94-30.35,11.26-30.83-2.52-.72-51.92-11-52.16-10.82s-41,119.81-40.86,119.81,14,2.84,30.88,6.32,32.47,6.59,34.74,7.1a53,53,0,0,0,6.11,1c2,0,2,0,12.3,31.08,6.24,18.85,10.55,31,11,31s.68-9.51.68-45.77Zm5.75,39.1c2.16,0,2.16,0,1.76-4.87-.48-5.8-.4-5.68-3.76-5.32-2.63.32-2.63.32-2.63,5.6s0,5.27,1.23,5a15.61,15.61,0,0,1,3.4-.44Zm65.26-2.56c11-.48,21.21-.84,22.68-.84,2.64,0,2.64,0,2.64-6.15,0-7.19,2.88-6.67-26.72-4.79-19.21,1.2-19.21,1.2-19.37,6.91a18.94,18.94,0,0,0,.28,5.67Zm-10.07-97.13a260.67,260.67,0,0,0,57.6-14.62c7.54-2.87,6.67-1.36,10.26-17.93,1.72-8,3.36-15.26,3.59-16.21.44-1.68-.75-3.08-51.28-59.91-28.47-31.95-51.92-58.43-51.92-58.51s-6.59,19-14.1,42.65c-13.46,43-13.46,43-13.5,82.63s0,39.62,2.8,40.46C1366.9,517.63,1395.18,518.35,1412.75,515.91Zm-80.27-17.69c2.91-10.31,5.27-18.81,5.19-18.89s-14.7,34.34-14.7,35.38,2.44,2.08,4,2.28C1327,517,1329.56,508.6,1332.48,498.22Zm205.84-154.85c42.86,0,53.84,0,53.6-.67S1433,275.64,1430.45,275c-1-.28-.76,3.07,1.39,17.57a67,67,0,0,1,1.16,11c-1,.6-1.47-.39-1.83-3.79-1-8.71-1.16-8.67-8.47,2.48s-9,13.22-13.38,16.57a30,30,0,0,1-31.51,3.76c-4-1.72-4-1.72-14.34,8.82a120.3,120.3,0,0,0-10.54,11.23c0,.63,117.38,1.43,128.2.87C1483,343.45,1508.69,343.37,1538.32,343.37ZM1419.62,300c3.48,0,10.43-8.55,9.79-12-.52-2.72-.64-2.64-8.63,4.55s-8.67,8.43-5.47,8a26,26,0,0,1,4.31-.36Zm-11.22-10.34a40.49,40.49,0,0,0,18.41-10.39c2.28-2.39-.52-10.86-5.87-17.89-4-5.23-1.32-4.91-30.15-3.67l-26.32,1.11c-1.36,0-1.48,7.63,0,8,4.39,1.68,4,16.9-.6,16.9-.56,0-.8.63-.8,2.23,0,2.64,1,3,2.32.68,2.19-3.67,3.31-4,5.71-2.56a55.93,55.93,0,0,0,16.45,5.76c2.28.36,4.56.75,5,.87a68.49,68.49,0,0,0,16-1.19ZM1392,284.94c-6.75-3.27-4-24,2.91-20.92,5.27,2.39,5.23,18.57,0,21a6,6,0,0,1-1.52.6Z" transform="translate(-849.56 -70.05)"/><path id="path283" class="cls-10" d="M1290.42,853.27a4.3,4.3,0,0,1,.57-6.07l.31-.24c3.39-2.43,51.32-47.36,51.44-48.28s.88-13.18,1.8-28,1.84-28.6,2-30.19c.27-2.92.27-2.92-8.83-2.92-10.67,0-12.62-.28-12.62-1.72a40,40,0,0,1,4.79-9.22c.84-1.16.84-1.16-24-1.56-33.63-.52-36.35-.84-36.35-4,0-.76,10-36.59,22.29-79.6S1314,563,1313.91,562.68s-12.47-3.36-27.28-6.15-28-5.83-29.24-6.31a5.71,5.71,0,0,0-2.91-.48c-.36,0-.76,0-1-.48a1.41,1.41,0,0,0-1.12-.88c-1.76,0-.64-3.59,19-60.91,11.22-32.71,20.29-59.51,20.21-59.58s-5.27-1.2-11.54-2.52c-14.22-2.92-15.62-3.56-15.62-7.43,0-1.32,56.71-72.53,60.47-75.88,1.36-1.2,1.76-1.28,12.62-1.28s11.22,0,21.09-9.83,9.82-10.06,7.31-12.86c-7.43-8.22-7.11-6.75-7.43-34-.32-24.48-.32-24.48-1.8-28.19-6.23-15.66.92-35.95,9.62-27.24,1.8,1.8,1.76,1.84,2.76-1.32,1.84-6.31,5-10.3,7.83-10.3,1.76,0,2.4.52,6.63,5.63,3.31,4,4.47,4.39,10.34,4a32.17,32.17,0,0,1,25.88,9.83c7.07,6.95,8.83,11.5,11.39,28.47a58.05,58.05,0,0,0,1.07,6c.56.56,165.87,69.14,166.63,69.14a24.41,24.41,0,0,1,7,7.43c.56.88,11.5,15.33,24.32,31.95,28.48,37.18,27.4,34.19,14.34,39.5-7,2.87-7,2.87-6,5.19.56,1.24,28.87,65.26,62.9,142.26,69.74,157.8,69,156.2,70.65,160.24,2.76,7,2.28,7.31-10.46,7-39.5-1-301.34-5.79-301.58-5.55a12,12,0,0,0,.6,4,33.38,33.38,0,0,1,1,5.43c0,.88,2.48,15.74,5.43,33,5.39,31.43,5.39,31.43,7.27,31.71s4,3.48,4,6.55c0,.72,2,10.07,4.52,20.85,5,22.09,4.87,20.89,3.23,23s-61.34,1.79-63.42,0-1.88-3.32,4.55-23.69c3.4-10.82,6.63-21.05,7.11-22.68a6.63,6.63,0,0,1,2.4-4c1.44-.88,1.44-.88-7.15-29-4.75-15.46-8.67-28.16-8.75-28.2a68.17,68.17,0,0,0-6.39,2.64c-12.54,5.55-13.78,4-10.34-11.71,1.08-5,2-9.06,2-9.22a4.5,4.5,0,0,0-2-.24c-2,0-2,0-1.52,1.8,1.92,7.62.6,9.34-7.43,9.34a33.3,33.3,0,0,0-6.31.32c0,.2-3.59,14.42-8,31.59s-8.42,33.11-8.9,35.43c-7.63,35.54-10.39,47.05-11.55,47.93-1.87,1.51-68.33,1.47-69.69,0Zm66.66-4.71c1.92-8,8.67-39.06,8.67-39.94s-.52-1.12-12-1.27-12,0-33.94,20c-12,11.19-21.81,20.61-21.81,21s5.51.76,28.8.88c16,0,29.07,0,29.47.28s.64-.2.8-.92Zm124.41-.28c0-1.56-8.35-38.14-9-39.5s-.64-1.24-16.89-1.24c-18.53,0-15.26-3.43-24.68,25.93-5.44,16.85-5.44,15.17-.2,15.37,17.09.76,50.8.4,50.8-.56Zm-105.6-77.36c4.83-18.89,8.79-34.63,8.79-34.95a264.57,264.57,0,0,0-33.43-1c-.32.36-4.56,66.05-4.32,69.13,0,.92.88,1,10.19,1C1367.1,805.31,1367.1,805.31,1375.89,770.92Zm92.26,33.23c0-1.44-12.82-76.8-13.14-77.16s-30.59,13.14-30.67,14.46,4,15,9.22,31.71c6.71,21.68,9.23,30.59,8.87,31.27s.32,1,12.62,1C1468.11,805.31,1468.11,805.31,1468.15,804.15Zm-52.92-62a28.42,28.42,0,0,0,6.31-3.39,1.91,1.91,0,0,1,1.68-.72c1.16,0,23.08-9.22,31-13.18a57.93,57.93,0,0,1,5.79-2.48c9.47-3.07,9.55-1.15-1.28-28.27-5.43-13.54-10.14-24.92-10.5-25.28s-.68-7.39-.68-27.72c0-27,0-27-4.31-26.6l-20,1.56c-23,1.67-20.89,1.2-20.89,4.79,0,2.64,0,3-1.24,3.24-2.63.51-38,1.35-38.54.87a2.51,2.51,0,0,0-1.92-.56c-.32,0-.72-1.51-.92-3.31-.35-3.36-.35-3.36-3.35-3.36s-3,0-3,40.22c0,28.88,0,40.42.6,40.86s-1.31,3.48-6.83,11.38c-4,5.95-8,11.31-8.26,12l-4,5.67a54.57,54.57,0,0,0-3.19,4.79s9.42.28,21,.28,26.56,0,33.34.36c12.35.32,12.35.32,11.55-2.64a23.38,23.38,0,0,1-.8-4.31,10,10,0,0,0-.76-3,30.32,30.32,0,0,1-1.44-5.11c-.36-1.84-1.12-5-1.68-7a109.79,109.79,0,0,1-3.63-17.29c.68-1,1.92-.48,2.28,1,1.47,6.67,1.27,6.79,3.59-2.24,4-15.18,4-15.18,12,.76s8.47,16.85,7.55,17.93-4.31,16.86-7.59,32.55c-.44,2.12-1.16,2.28,8-1.8Zm57.35-142.26c12-15.61,22.25-28.79,22.53-29.31.8-1.36,2.07-2.28,2.83-2s40.7-4.39,89.35-10.1,89.38-10.31,90.22-10.31c1.6,0,2.16-1.4,1-2.51-.44-.44-30.2-79.28-36-95.14-3.51-9.78-10.74-28.76-11.06-29.08s-72.09,29.48-72.09,30.24a1,1,0,0,0,.52.88,577.17,577.17,0,0,1,22.64,54.15c-.43.44-12.7,2.6-29.67,5.28-28.84,4.59-28.84,4.59-34.23,9.7-14.74,14.3-53.64,52.2-61.06,59.51-8.47,8.31-8.47,8.31-8.51,27.72,0,15.26,0,19.37.68,19.37s10.58-12.78,22.68-28.4Zm-92.38,22.61c22.45-.52,20,1.32,20-14.06,0-13.1,0-13.1-7.59-12.78-4,0-13.37.52-20.4.72-12.7.36-12.7.36-12.39,3.51,0,1.72.84,7.59,1.44,13.06s1.16,10.07,1.16,10.23.68,0,1.52,0,8.19-.44,16.29-.6Zm-15.77-6.83a40.93,40.93,0,0,1-1-12c0-.72,1.92-1,12-1.56,18.57-1,16.9-1.4,17.29,3.59,1,11,2,10-11.66,10.47-5.79,0-11.7.48-13.14.64-2.43.24-2.67,0-3.39-1.28Zm23.08-1.84c3.28,0,3.28,0,3.28-5.07s0-5.11-5.15-4.75l-12.23.71c-8.86.48-8.42.2-8,5.52.4,4.35.4,4.35,9.62,4,5,0,10.63-.36,12.42-.36Zm-35.7-37.34c0-45.77,0-45.77-9.07-49l-18.49-6.91a275.71,275.71,0,0,0-28.68-9.74,85,85,0,0,0-14.85,5.75,1.55,1.55,0,0,1-1.32.36c-1.12-.36,1.91-2,9.22-4.87s7-2.76,17.34.88c7.59,2.63,10.5,3.43,11,3s4.55-9.7,9.19-20.77,9.94-23.56,11.74-27.68c12-28,12.94-30.35,11.26-30.83-2.52-.72-51.92-11-52.16-10.82s-41,119.81-40.86,119.81,14,2.84,30.88,6.32,32.47,6.59,34.74,7.1a53,53,0,0,0,6.11,1c2,0,2,0,12.3,31.08,6.24,18.85,10.55,31,11,31s.68-9.51.68-45.77Zm5.75,39.1c2.16,0,2.16,0,1.76-4.87-.48-5.8-.4-5.68-3.76-5.32-2.63.32-2.63.32-2.63,5.6s0,5.27,1.23,5a15.61,15.61,0,0,1,3.4-.44Zm65.26-2.56c11-.48,21.21-.84,22.68-.84,2.64,0,2.64,0,2.64-6.15,0-7.19,2.88-6.67-26.72-4.79-19.21,1.2-19.21,1.2-19.37,6.91a18.94,18.94,0,0,0,.28,5.67Zm-65.26-14c-.4-4.75-1.28-4.55,23.24-5.35,23.53-.72,22.57-.88,22,3.56-.28,2,0,2.67.36,2.67,1.92,0,41.06-2.31,42.65-2.55s1.8-.28,1.8-4.36,0-4,24-27.4l31.16-30.51c7.39-7.27,7.39-7.27-2.8-16-5.59-4.8-12-10.19-14.66-12a75,75,0,0,1-6.07-4.71c-1.64-1.4-1.64-1.4-5.55.24-36.78,15.22-91.22,21.65-118.7,13.9-1.24-.32-1.24-.32-1.24,43s0,43.34,2.16,43.14,2.16,0,1.88-3.76ZM1413.87,516A267.67,267.67,0,0,0,1462,504.61c16.81-5.79,14.9-4,18.25-18.41,2.56-11.15,4-17.38,4-20.21,0-.48-23.28-27.24-51.92-59.47-51.92-58.59-51.92-58.59-65.46-15.46-7.42,23.73-13.54,43.57-13.62,43.93s0,18.5,0,39.94c0,38.82,0,38.82,1.6,39.42,8.51,3.28,41.58,4,58.87,1.64Zm-81.35-17.69c3-10.31,5.27-18.81,5.19-18.89S1323,513.47,1323,514.71c0,.64,2.44,2.08,4,2.28C1327,517,1329.56,508.6,1332.52,498.26Zm206.12-154.89c45,0,54.12,0,53.48-.71s-161.11-67.9-162-67.9,0,5.43,1.75,17.69a67,67,0,0,1,1.16,11c-1,.59-1.47-.4-1.83-3.8-1-8.71-1.16-8.67-8.47,2.48s-9,13.22-13.38,16.57a30,30,0,0,1-31.51,3.76c-4-1.72-4-1.72-14.34,8.82a121.56,121.56,0,0,0-10.54,11.23c0,.63,117.38,1.43,128.2.87C1483,343.45,1508.85,343.37,1538.64,343.37Zm-119-43.41c3.48,0,10.43-8.55,9.79-12-.52-2.72-.64-2.64-8.63,4.55s-8.67,8.43-5.47,8a26,26,0,0,1,4.31-.36Zm-11.22-10.34a40.49,40.49,0,0,0,18.41-10.39c2.28-2.39-.52-10.86-5.87-17.89-4-5.23-1.32-4.91-30.15-3.67l-26.32,1.11c-1.36,0-1.48,7.63,0,8,4.39,1.68,4,16.9-.6,16.9-.56,0-.8.63-.8,2.23,0,2.64,1,3,2.32.68,2.19-3.67,3.31-4,5.71-2.56a55.93,55.93,0,0,0,16.45,5.76c2.28.36,4.56.75,5,.87a68.49,68.49,0,0,0,16-1.19ZM1392,284.94c-6.75-3.27-4-24,2.91-20.92,5.27,2.39,5.23,18.57,0,21a6,6,0,0,1-1.52.6Zm3.59-4a21.6,21.6,0,0,0,0-12.54c-2.08-4.83-5.07-1.16-5.07,6.27,0,5,1.2,8.35,3,8.35.84-.32,1.32-.92,2.08-2.4Zm-30.51-5.15a13.77,13.77,0,0,0-.76-4.72c-.68-1.55-.76-1.19-.8,4.44s0,6,.8,4.75a11.2,11.2,0,0,0,.76-4.79ZM1424.42,258c-3.16-18.05-18.89-29.75-34.15-25.36-2.28.64-8-2.63-11.3-6.63-2.4-2.79-2.28-2.83-3.72.48-2.28,5.27-3.19,11.19-1.76,11.19.2,0,.28.71,0,1.63-.24,1.6-3.47,2.72-3.47,1.2a15.65,15.65,0,0,0-3.12-3.07,15.26,15.26,0,0,1-3.67-3.72c-.32-1.08-.4-1.12-1.4,0-2.43,2.2-2.87,11.38-.92,18.57,1.08,4,2,4.6,5.95,4.24,1.68,0,13.5-.72,26.28-1.2,26.84-1,24.89-1.36,29.36,4.55,3.11,4,3,4.28,2-1.68Z" transform="translate(-849.56 -70.05)"/><path id="path281" class="cls-11" d="M1290.42,853.27a4.3,4.3,0,0,1,.57-6.07l.31-.24c3.39-2.43,51.32-47.36,51.44-48.28s.88-13.18,1.8-28,1.84-28.6,2-30.19c.27-2.92.27-2.92-8.83-2.92-10.67,0-12.62-.28-12.62-1.72a40,40,0,0,1,4.79-9.22c.84-1.16.84-1.16-24-1.56-33.63-.52-36.35-.84-36.35-4,0-.76,10-36.59,22.29-79.6S1314,563,1313.91,562.68s-12.47-3.36-27.28-6.15-28-5.83-29.24-6.31a5.71,5.71,0,0,0-2.91-.48c-.36,0-.76,0-1-.48a1.41,1.41,0,0,0-1.12-.88c-1.76,0-.64-3.59,19-60.91,11.22-32.71,20.29-59.51,20.21-59.58s-5.27-1.2-11.54-2.52c-14.22-2.92-15.62-3.56-15.62-7.43,0-1.32,56.71-72.53,60.47-75.88,1.36-1.2,1.76-1.28,12.62-1.28s11.22,0,21.09-9.83,9.82-10.06,7.31-12.86c-7.43-8.22-7.11-6.75-7.43-34-.32-24.48-.32-24.48-1.8-28.19-6.23-15.66.92-35.95,9.62-27.24,1.8,1.8,1.76,1.84,2.76-1.32,1.84-6.31,5-10.3,7.83-10.3,1.76,0,2.4.52,6.63,5.63,3.31,4,4.47,4.39,10.34,4a32.17,32.17,0,0,1,25.88,9.83c7.07,6.95,8.83,11.5,11.39,28.47a58.05,58.05,0,0,0,1.07,6c.56.56,165.87,69.14,166.63,69.14a24.41,24.41,0,0,1,7,7.43c.56.88,11.5,15.33,24.32,31.95,28.48,37.18,27.4,34.19,14.34,39.5-7,2.87-7,2.87-6,5.19.56,1.24,28.87,65.26,62.9,142.26,69.74,157.8,69,156.2,70.65,160.24,2.76,7,2.28,7.31-10.46,7-39.5-1-301.34-5.79-301.58-5.55a12,12,0,0,0,.6,4,33.38,33.38,0,0,1,1,5.43c0,.88,2.48,15.74,5.43,33,5.39,31.43,5.39,31.43,7.27,31.71s4,3.48,4,6.55c0,.72,2,10.07,4.52,20.85,5,22.09,4.87,20.89,3.23,23s-61.34,1.79-63.42,0-1.88-3.32,4.55-23.69c3.4-10.82,6.63-21.05,7.11-22.68a6.63,6.63,0,0,1,2.4-4c1.44-.88,1.44-.88-7.15-29-4.75-15.46-8.67-28.16-8.75-28.2a68.17,68.17,0,0,0-6.39,2.64c-12.54,5.55-13.78,4-10.34-11.71,1.08-5,2-9.06,2-9.22a4.5,4.5,0,0,0-2-.24c-2,0-2,0-1.52,1.8,1.92,7.62.6,9.34-7.43,9.34a33.3,33.3,0,0,0-6.31.32c0,.2-3.59,14.42-8,31.59s-8.42,33.11-8.9,35.43c-7.63,35.54-10.39,47.05-11.55,47.93-1.87,1.51-68.33,1.47-69.69,0Zm66.66-4.71c2-8,8.67-39.06,8.67-39.94s-.4-1.12-11.43-1.23h-12c-1,0-44.33,40.25-44.33,41.21s5.31.76,28.8.88c16,0,29.07,0,29.47.28s.8-.4,1-1.12Zm124.41-.28c0-1.32-8.27-37.94-8.91-39.5s-.52-1.24-16.93-1.24-16.42,0-21.21,14.86c-2.64,8.19-5.51,17.18-6.43,20-2.12,6.55-2.2,6.27,1.6,6.51C1442.23,849.64,1481.49,849.24,1481.49,848.28Zm-105.6-77.36c4.83-18.89,8.79-34.63,8.79-34.95a249.81,249.81,0,0,0-33.39-1c-.36.36-4.36,64.5-4.36,68.77,0,1.52,0,1.52,10.19,1.52S1367.1,805.31,1375.89,770.92Zm92.22,33c0-1.64-12.78-76.68-13.1-77s-30.59,13.14-30.71,14.46,4,15,9.26,31.71c6.63,21.52,9.19,30.59,8.87,31.27s.32,1,12.62,1c13.06,0,13.06,0,13.06-1.4Zm-52.88-61.75a28.42,28.42,0,0,0,6.31-3.39,1.91,1.91,0,0,1,1.68-.72c1.16,0,23.08-9.22,31-13.18a57.93,57.93,0,0,1,5.79-2.48c9.47-3.07,9.55-1.15-1.28-28.27-5.43-13.54-10.14-24.92-10.5-25.28s-.68-7.39-.68-27.72c0-27,0-27-4.31-26.6l-20,1.56c-23,1.67-20.89,1.2-20.89,4.79,0,2.64,0,3-1.24,3.24-2.63.51-38,1.35-38.54.87a2.51,2.51,0,0,0-1.92-.56c-.32,0-.72-1.51-.92-3.31-.35-3.36-.35-3.36-3.35-3.36s-3,0-3,40.22c0,28.88,0,40.42.6,40.86s-1.31,3.48-6.83,11.38c-4,5.95-8,11.31-8.26,12l-4,5.67a54.57,54.57,0,0,0-3.19,4.79s9.42.28,21,.28,26.56,0,33.34.36c12.35.32,12.35.32,11.55-2.64a23.38,23.38,0,0,1-.8-4.31,10,10,0,0,0-.76-3,30.32,30.32,0,0,1-1.44-5.11c-.36-1.84-1.12-5-1.68-7a109.79,109.79,0,0,1-3.63-17.29c.68-1,1.92-.48,2.28,1,1.47,6.67,1.27,6.79,3.59-2.24,4-15.18,4-15.18,12,.76s8.47,16.85,7.55,17.93-4.31,16.86-7.59,32.55c-.44,2.12-1.16,2.28,8-1.8Zm58.55-143.78c13.38-17.21,23.48-29.79,24-29.71s41.38-4.51,91.06-10.3c94.06-10.91,91.86-10.59,89.79-12.71-.4-.39-25.44-66.69-35.95-94.85-9.86-26.72-10.9-29.24-12-29.2-1.84,0-71.41,29.32-71.41,30.08a1,1,0,0,0,.48.88,580.25,580.25,0,0,1,22.84,54.15c-.43.4-13.42,2.68-29.67,5.28-28.84,4.59-28.84,4.59-33,8.58-8.59,8.27-52.36,51-61.11,59.91s-9.3,9.15-9.34,28.56c0,15.25,0,19.41.68,19.37s11.14-13.46,24-29.92Zm-91.86,24c8,0,15.1-.44,16-.6,2-.28,2-.28,2.11-13.42s0-13.1-8-12.78c-4.52,0-13.7.52-20.41.72-13.9.44-12.54-1.76-10.39,16.61.64,5.23,1.16,9.71,1.16,10s1.2.32,2.64,0,9-.44,16.85-.64Zm-17.53-7.07a34.25,34.25,0,0,1-.68-12,183.3,183.3,0,0,1,28.2-1.56,33,33,0,0,1,.44,13.74c-.48,0-6,.48-12,.68s-12,.48-13.18.6c-1.63.28-1.87,0-2.59-1.56Zm23.16-1.56c3.28,0,3.28,0,3.28-5.07s0-5.11-5.15-4.75l-12.23.71c-8.86.48-8.42.2-8,5.52.4,4.35.4,4.35,9.62,4,5,0,10.63-.36,12.42-.36Zm-35.74-37.22c0-50.44,4.27-44.57-45.81-62.39-10.75-4-10.23-4-19.33,0a71.12,71.12,0,0,1-7.63,2.68c-.4-.4,2.83-2,9.46-4.67s7.07-2.84,17.26.76a68.6,68.6,0,0,0,11,3.27,139.07,139.07,0,0,0,8-17.37c4-9.39,11.26-26.76,16.29-38.58,9.47-22.37,9.71-23.05,8-23.53-2.47-.72-51.92-11-52.16-10.82S1255.79,545.67,1256,545.67s71.89,14.77,72.77,14.61,2.88,5.75,11.19,30.92c6.39,19.29,10.54,31,11,31s.72-9.15.72-45.77Zm5.79,39.1c2.12,0,2.12,0,1.76-4.87-.48-5.8-.48-5.8-4-5.36-2.59.36-2.59.36-2.59,5.64s0,5.27,1.23,5a16.19,16.19,0,0,1,3.6-.44Zm65.74-2.48c11-.48,21.09-.84,22.4-.84,2.36,0,2.36,0,2.36-6.15s0-6.11-1.8-6.11c-1,0-11.42.52-23.12,1.24-21.29,1.24-21.29,1.24-21.29,7,0,4.23.2,5.71.72,5.71Zm-65.82-14c-.4-4.75-1.28-4.55,23.24-5.35,23.53-.72,22.57-.88,22,3.56-.28,2,0,2.67.36,2.67,1.92,0,41.06-2.31,42.65-2.55s1.8-.28,1.8-4.36,0-4,24-27.4l31.2-30.59c7.39-7.27,7.39-7.27-2.8-16-5.59-4.8-12-10.19-14.66-12a75,75,0,0,1-6.07-4.71c-1.64-1.4-1.64-1.4-5.55.24-36.78,15.22-91.22,21.65-118.7,13.9-1.24-.32-1.24-.32-1.24,43s0,43.34,2.16,43.14,2.16,0,1.88-3.76ZM1413.87,516A267.67,267.67,0,0,0,1462,504.61c16.81-5.79,14.9-4,18.25-18.41,2.56-11.15,4-17.38,4-20.21,0-.48-23.28-27.24-51.92-59.47-51.92-58.59-51.92-58.59-65.46-15.46-7.42,23.73-13.54,43.57-13.62,43.93s0,18.5,0,39.94c0,38.82,0,38.82,1.6,39.42,8.51,3.28,41.58,4,58.87,1.64Zm-81.35-17.69c3-10.31,5.27-18.81,5.19-18.89S1323,513.47,1323,514.71c0,.64,2.44,2.08,4,2.28C1327,517,1329.56,508.6,1332.52,498.26Zm260-154.81a1,1,0,0,0-.4-1.07c-.68-.52-159.48-66.78-161.27-67.3s-1.28,1,.72,14.74c.91,6.35,1.75,12,1.79,12.66s-.2,1.11-.68,1.11a20.81,20.81,0,0,1-2.19-9.62c0-2.56-2.64.36-9.83,11.54-12,18.53-26.44,24.36-42.69,17.14-4-1.72-4-1.72-14.62,9.1a127.76,127.76,0,0,0-10.82,11.5c0,.84,239.63,1,240.11,0ZM1420,300c2.12,0,2.44-.2,4.84-3.47l4-5c1.24-1.59,1.16-5.39,0-5.39a102.38,102.38,0,0,0-14.94,13.74c0,.68.4.8,2.08.52a31.64,31.64,0,0,1,4.35-.36Zm-11.46-10.3c9.67-2.32,19.33-9.39,19-13.94a35.92,35.92,0,0,0-10.14-18.13c-1.32-1-2.12-1-27.52,0l-26.32,1.11a17.45,17.45,0,0,0,.68,8c4,1.6,4,15.66-.32,16.78-.8,0-1,.79-1,2.43,0,2.88.92,2.72,3.51-.72,2-2.67,2.16-2.75,3.36-1.91,8.63,6.23,26.52,9.06,38.74,6.15ZM1392,284.94c-6.75-3.27-4-24,2.91-20.92,5.27,2.39,5.23,18.57,0,21a6,6,0,0,1-1.52.6Zm3.59-4a21.6,21.6,0,0,0,0-12.54c-2.08-4.83-5.07-1.16-5.07,6.27,0,5,1.2,8.35,3,8.35.84-.32,1.32-.92,2.08-2.4Zm-30.51-5.15a13.77,13.77,0,0,0-.76-4.72c-.68-1.55-.76-1.19-.8,4.44s0,6,.8,4.75a11.2,11.2,0,0,0,.76-4.79ZM1424.42,258c-3.16-18.05-18.89-29.75-34.15-25.36-2.28.64-8-2.63-11.3-6.63-2.4-2.79-2.28-2.83-3.72.48-2.28,5.27-3.19,11.19-1.76,11.19.2,0,.28.71,0,1.63-.24,1.6-3.47,2.72-3.47,1.2a15.65,15.65,0,0,0-3.12-3.07,15.26,15.26,0,0,1-3.67-3.72c-.32-1.08-.4-1.12-1.4,0-2.43,2.2-2.87,11.38-.92,18.57,1.08,4,2,4.6,5.95,4.24,1.68,0,13.5-.72,26.28-1.2,26.84-1,24.89-1.36,29.36,4.55,3.11,4,3,4.28,2-1.68Z" transform="translate(-849.56 -70.05)"/><path id="path279" class="cls-11" d="M1290.42,853.27a4.3,4.3,0,0,1,.57-6.07l.31-.24c1.36-1,44.61-40.85,50.56-46.6.8-.76,1.2-5.12,2.68-29.28.92-15.62,1.84-29.59,2-31,.31-2.64.31-2.64-8.47-2.64-13.7,0-14.46-.36-11.7-4.87.71-1.16,1.55-2.72,2-3.48a21.66,21.66,0,0,1,1.52-2.59c.88-1.16.88-1.16-23.48-1.56-33.43-.52-36.91-.88-36.91-4,0-.76,7.11-26.36,16-56.84s18.77-65.78,22.36-78.44a227.62,227.62,0,0,0,6-23.44c-.28-.24-12.79-3-27.76-6-28.84-6-32.07-6.75-33.15-7.63a4.54,4.54,0,0,0-1.4-.88c-.44,0,6-19.61,19.77-59.91,11.26-32.87,20.37-59.9,20.29-59.9s-5.15-1.16-11.26-2.44c-14.74-3.08-16-3.6-16-7.39,0-1.44,56.43-72.37,60.47-75.88,1.36-1.2,1.76-1.28,12.62-1.28s11.22,0,21.09-9.83,9.9-10.14,7.39-12.94c-7.43-8.22-7.11-6.75-7.47-34-.32-24.48-.32-24.48-1.8-28.47-6-16,1-35.67,9.66-27,1.8,1.8,1.76,1.84,2.76-1.32,1.84-5.95,5.23-10.3,8-10.3,1.64,0,2.35.64,6.51,5.63,3.31,4,4.47,4.39,10.34,4a32.17,32.17,0,0,1,25.88,9.83c7.07,7,8.79,11.38,11.35,28.47a39.46,39.46,0,0,0,1.07,5.8c.56.55,165.83,69.17,166.63,69.17a26.87,26.87,0,0,1,7.47,8c1.16,1.63,12.22,16.21,24.64,32.43,27.56,35.94,26.52,33.07,13.54,38.42-7,2.91-7,2.91-6,5.23l65.86,148.93c70.89,160.4,68.85,155.77,68.85,157.92s-.4,2.84-12.18,2.56c-14.42-.32-295.55-5.75-298.86-5.75-2.36,0-2.4,0-2.12,1.51,0,.84.8,4.8,1.48,8.79,8,50.44,10.82,63.9,12.74,64.26s4,4,4,6.83c0,.56,2,9.79,4.48,20.57,5,22,4.87,20.89,3.23,23s-61.34,1.79-63.46,0-1.28-5.08,4.91-24.33c3.24-10.1,6-18.89,6-19.53a12,12,0,0,1,3.36-6.59c1.28-.68,1.28-.68-7.35-28.75-4.71-15.46-8.67-28.2-8.75-28.24s-2.95,1.12-6.39,2.64c-12.54,5.51-13.78,4-10.34-11.63,1.08-4.91,1.95-9.06,1.95-9.22s-.91-.32-2-.32c-2,0-2,0-1.52,1.8,1.92,7.62.6,9.34-7.43,9.34a36,36,0,0,0-6.31.28c0,.2-3.59,14.42-8,31.59s-8.42,33.15-8.9,35.47c-8.47,39.18-10.35,47.05-11.51,47.93-1.91,1.51-68.33,1.47-69.73,0Zm66.66-4.71c2-8,8.67-39.06,8.67-39.94s-.4-1.12-11.43-1.23h-12c-1,0-44.33,40.25-44.33,41.21s5.31.76,28.8.88c16,0,29.07,0,29.47.28s.8-.4,1-1.12Zm124.41-.28c0-1.32-8.27-37.94-8.91-39.5s-.52-1.24-16.93-1.24-16.42,0-21.21,14.86c-2.64,8.19-5.51,17.18-6.43,20-2.12,6.55-2.2,6.27,1.6,6.51C1442.23,849.64,1481.49,849.24,1481.49,848.28Zm-105.6-77.36c4.83-18.89,8.79-34.63,8.79-34.95a249.81,249.81,0,0,0-33.39-1c-.36.36-4.36,64.5-4.36,68.77,0,1.52,0,1.52,10.19,1.52S1367.1,805.31,1375.89,770.92Zm92.22,33c0-1.64-12.78-76.68-13.1-77s-30.59,13.14-30.71,14.46,4,15,9.26,31.71,9.15,30.55,8.87,30.83c-1.12,1.28.24,1.44,12.62,1.44,13.06,0,13.06,0,13.06-1.4Zm-54-61.19a35.49,35.49,0,0,0,7.31-4,2.49,2.49,0,0,1,2-.84,314.1,314.1,0,0,0,31.31-13c2.92-1.32,7.23-3.19,9.63-4s4.23-2.12,4-2.48c-11.18-28-19.57-48.64-20-49.32s-.8-5.44-.8-28c0-25.6,0-27.12-1-26.88a44.86,44.86,0,0,1-5.43.6c-43.93,3.19-38.7,2.36-38.7,6.19a17.6,17.6,0,0,1,0,3.08l-19.61.71c-22.93.8-22.21.92-22.81-4-.39-3-.39-3-3.39-3s-3,0-3,40.22c0,26.72.2,40.46.56,40.82s-1.71,4-6.67,11c-4,5.72-7.54,11-8,11.63a4.91,4.91,0,0,1-1,1.51q-2,2.49-3.8,5.16c-3.39,4.87-3.39,4.87,8,4.83,6.19,0,21.37,0,33.75.32,20.29.32,22.45.28,22.13-.48a31.46,31.46,0,0,1-1-4.39,46.41,46.41,0,0,0-1.2-4.92,14.65,14.65,0,0,1-.8-2.67c0-1.16-1.36-5.87-3-12a59.12,59.12,0,0,1-2.75-15c.84-.8,2,1,2.47,4,.72,4.32,1.12,3.76,3-4,1.68-7,4-12.9,5.23-12.9.24,0,3.72,6.67,7.67,14.82,7.27,14.81,7.27,14.81,6.39,16.53s-7.87,31.11-7.87,32.91c0,.72-.4.84,7.23-2.52Zm352.14-15.21c-.2-.52-25.92-58.79-57.19-129.52C1660,486.87,1648,460,1652.15,470.54c6.59,16.85,28,75.24,27.64,75.56s-12.66-29.55-37-95.29c-9.86-26.72-10.9-29.24-12-29.2-1.84,0-71.41,29.32-71.41,30.08a1,1,0,0,0,.48.88,579.85,579.85,0,0,1,22.64,54.15c-.43.4-13.42,2.68-29.67,5.28-28.84,4.59-28.84,4.59-33,8.58-8.59,8.27-52.36,51-61.11,59.91s-9.3,9.15-9.34,28.56c0,15.25,0,19.41.68,19.37s11.14-13.46,24-29.92c13.42-17.29,23.48-29.79,24-29.71s41.26-4.51,90.74-10.26,89.87-10.39,90.11-10c1.12,1.16-7.39,2.28-89.71,12-49,5.67-89.54,10.43-90.18,10.55s-46.45,58-46.45,59.19a5.55,5.55,0,0,1-1.39,2c-1.36,1.52-1.36,1.52-1.4,17.18s0,15.69,10.42,41.93c7.39,18.49,10.79,26.36,11.5,26.72,1.76.8,1.36,1.52-1.83,3.12s-27.32,1.12,143.78,4.55l149.65,3c2.87,0,3.19,0,2.87-.92Zm-354.85-13.82c1-4,1-4-5.28-16.38-7-13.94-6-14.22-10.06,2.6a17.17,17.17,0,0,0-.28,11.7c2.44,10.71,1.52,9.59,8,9.79s5.43,1.19,7.59-7.71Zm-67.06-3.56c7-10,7-10,7-46.65,0-34.46,0-36.7-1-36.94s-3.48-8-11.5-32.27c-10.51-31.95-10.51-31.95-14.14-32.67a9.64,9.64,0,0,0-4-.24c-.24.24-10,34-21.64,75s-21.81,76.32-22.53,78.44c-1.32,4-1.32,4,26.84,4.51l31.07.68C1337.39,720,1337.39,720,1344.38,710.13ZM1382,622.47c8,0,15.1-.44,16-.6,2-.28,2-.28,2.11-13.42s0-13.1-8-12.78c-4.52,0-13.7.52-20.41.72-13.9.44-12.54-1.76-10.39,16.61.64,5.23,1.16,9.71,1.16,10s1.2.32,2.64,0,9-.44,16.85-.64Zm-17.53-7.07a34.25,34.25,0,0,1-.68-12,182.05,182.05,0,0,1,28.2-1.56,33,33,0,0,1,.44,13.74c-.48,0-6,.48-12,.68s-12,.48-13.18.6c-1.63.28-1.87,0-2.59-1.56Zm19.29-1.36c7.47-.36,7.47-.36,7.23-5.15a33.4,33.4,0,0,0-.44-5s-5.83,0-12.7.52c-13.82.79-13.42.51-12.18,8,.36,2.36,1.79,2.52,18.09,1.72Zm-32-37.62c0-50.44,4.27-44.57-45.81-62.39-10.75-4-10.23-4-19.33,0a73.86,73.86,0,0,1-7.63,2.76c-.4-.4,2.83-2,9.46-4.67s7.07-2.84,17.26.76a68.6,68.6,0,0,0,11,3.27,139.07,139.07,0,0,0,8-17.37c4-9.39,11.26-26.76,16.29-38.58,9.47-22.37,9.71-23.05,8-23.53-2.47-.72-51.92-11-52.16-10.82S1255.79,545.67,1256,545.67s71.89,14.77,72.77,14.61,2.88,5.75,11.19,30.92c6.39,19.29,10.54,31,11,31s.72-9.15.72-45.77Zm5.79,39.1c2.12,0,2.12,0,1.76-4.87-.48-5.8-.48-5.8-4-5.36-2.59.36-2.59.36-2.59,5.64s0,5.27,1.23,5A15.55,15.55,0,0,1,1357.6,615.52Zm65.74-2.48c11-.48,21.09-.84,22.4-.84,2.36,0,2.36,0,2.36-6.15s0-6.11-1.8-6.11c-1,0-11.42.52-23.12,1.24-21.29,1.24-21.29,1.24-21.29,7,0,4.23.2,5.71.72,5.71Zm-66.66-10.1c1.12-.32,1.2-.64,1.08-4s0-3.71.72-3.75a6,6,0,0,0,1.67-.4c1.24-.48,41-1.68,41.7-1.24a6,6,0,0,1,.6,3.4c0,2.75,0,3,1.28,3s10.82-.52,22.52-1.2c21.29-1.23,21.29-1.23,21.29-5.51s0-4.27,29.92-33.51c16.45-16,30.47-29.83,31.19-30.63,1.32-1.4,1.32-1.4-10-10.94l-15.89-13.58a17.39,17.39,0,0,0-5.27-3.64c-2.88,2.6-30.6,11-48.37,14.7-24,5-58.51,5.55-72.85,1.24-2.56-.76-2.56-.76-2.56,42.85,0,47.93-.28,44.22,3.2,43.3Zm-5.47-111.39c0-23.05-.2-36.71-.52-35.95-1,2.28-18.41,64.38-18.25,65.22s3,1.88,8.5,4c4.6,1.63,8.75,3.23,9.19,3.51l.8.24V491.43ZM1538,500.33c14.3-13.93,26.4-25.32,26.88-25.32,2.32,0-.48,3.16-18.17,20.33-10.46,10.23-19,18.61-18.93,18.65s53-8.22,53.2-8.42-4.84-12-11-26.08-11.18-26.28-11.18-26.68-2.4,0-8,2.51a48.76,48.76,0,0,1-8.62,3c-1.08-.44-.88-1.88.32-2.28s2.19-62.18,1.63-87.62c0-8,0-8-28,44.13-15.38,28.71-28,52.64-28,53.24a1.79,1.79,0,0,1-.76,1.47,257.26,257.26,0,0,0-7.35,32c2.16,2.15,31.31,26.79,31.63,26.72S1523.78,514.23,1538,500.33ZM1414.83,516c21.69-3.35,62.86-14.82,62.86-17.53,0,0,1.4-6.47,3.12-14.06s3.2-14.5,3.31-15.34a15.69,15.69,0,0,1,.52-2.63c.36-1.12-2.47-4.36-87-99.61-17-19.13-17-19.13-17.7-17-26.24,81.36-26.4,82.08-26.36,123.82,0,35.46,0,39.69.88,40.29a72.11,72.11,0,0,0,15.54,2.92A306.07,306.07,0,0,0,1414.83,516Zm-82.31-17.69c3-10.31,5.27-18.81,5.19-18.89s-14.74,34.14-15,35.34,2.48,2.08,4,2.28C1327,517,1329.56,508.6,1332.52,498.26Zm182.76-89.51c19.17-35.94,29.19-54.95,29.43-56.47s.64-2.36,1.32-2.36,2.8-3.07,2.8-4c0,0-37.59-.24-83.52-.24-83.51,0-83.51,0-79.16,4.95,17.26,19.69,99.57,112.43,99.85,112.43S1499.3,438.67,1515.28,408.75Zm87.86,21.89c24.61-10.26,44.69-18.89,44.65-19.21s-11.26-15.26-25-33.23c-24.92-32.63-24.92-32.63-47.92-32.67-30.48,0-27.72-5.31-28,53.24,0,24-.4,46.53-.56,49.8-.28,5.95-.28,5.95,6,3.36Zm-252.89,1.24c-.44-1.44-6.11-20.53-12.58-42.42s-12-39.94-12-40.25-12.82,15-28,33.86-27.6,34.35-27.48,34.43,24,5.27,26.12,5.63c.76,0,13.22,2.84,28,6s26.64,5.71,26.84,5.59a5.49,5.49,0,0,0-.4-2.83Zm15.22-44.25c7.11-22.73,12.94-41.5,12.9-41.74s-11.39-.4-25.28-.4-25.41.2-25.53.4S1351.81,429,1352.25,429s6.27-18.49,13.38-41.21Zm226.85-44.3a1,1,0,0,0-.4-1.07c-.52-.4-159.32-66.66-161.11-67.18s-1.28,1,.72,14.74c.91,6.35,1.75,12,1.79,12.66s-.2,1.11-.68,1.11a20.81,20.81,0,0,1-2.19-9.62c0-2.56-2.64.36-9.83,11.54-12,18.53-26.44,24.36-42.69,17.14-4-1.72-4-1.72-14.62,9.1a127.76,127.76,0,0,0-10.82,11.5c0,.84,239.63,1,240.11,0Zm-192.71-21.72a33.68,33.68,0,0,0,18.86-17.86c.63-1.47.59-1.51-.88-1.27-5.75.88-6.71.84-7.59-.4s-1.64-1.32,8.47-10.51a100.91,100.91,0,0,0,9.5-9.34c0-.68,0-.72-.56-.24a50.13,50.13,0,0,1-55.91,5.11c-6.19-3.63-10.71,12-6,20.85a28.83,28.83,0,0,0,34.3,13.66ZM1420,300c2.12,0,2.44-.2,4.84-3.47l4-5c1.24-1.59,1.16-5.39,0-5.39a102.38,102.38,0,0,0-14.94,13.74c0,.68.4.8,2.08.52a31.64,31.64,0,0,1,4.35-.36Zm-11.46-10.3c9.67-2.32,19.33-9.39,19-13.94a35.92,35.92,0,0,0-10.14-18.13c-1.32-1-2.12-1-27.52,0l-26.32,1.11a17.45,17.45,0,0,0,.68,8c4,1.6,4,15.66-.32,16.78-.8,0-1,.79-1,2.43,0,2.88.92,2.72,3.51-.72,2-2.67,2.16-2.75,3.36-1.91,8.63,6.23,26.52,9.06,38.74,6.15ZM1392,284.94c-6.75-3.27-4-24,2.91-20.92,5.27,2.39,5.23,18.57,0,21a6,6,0,0,1-1.52.6Zm3.47-4c2.4-4,1-15.26-2-15.26s-4.39,11.23-1.63,16c1.31,2.2,2.07,2.08,3.59-.52Zm-30.27-7.67c-1.08-5.39-1.72-4.67-1.68,1.92s0,6.07,1.16,3.63A6.71,6.71,0,0,0,1365.23,273.28Zm59.19-15.46c-3.4-17.81-16.5-28.31-32-25.76-4.87.8-7.7-.51-12.94-6-2.87-2.95-2.91-2.95-5,2.24a16.79,16.79,0,0,0-1.16,10.34c.68,4-1.83,2.88-8-3.11-3.6-3.48-3.12-3.4-4.56-.6-2.15,4-1,18.33,1.68,20.77.8.72,3.79.68,26.48-.28l26.88-1.08c1.6,0,6.39,4.39,8.27,7.63a15.24,15.24,0,0,0,1.55,2.36s-.44-2.92-1.11-6.52Z" transform="translate(-849.56 -70.05)"/><path id="path277" class="cls-11" d="M1290.38,853.23c-2.48-2.75-2.44-2.79,25.8-29,14.54-13.5,26.52-24.84,26.56-25.2s.88-13.06,1.8-28.2,1.8-28.87,2-30.47c.27-2.92.27-2.92-8-2.92-12.7,0-15.58-.8-13-3.63a30.69,30.69,0,0,0,2-3.2c.8-1.48,1.84-3.27,2.32-4s.88-1.28-23-1.68-35.43-1-36.71-2.08-.88-2.79,21.57-81.55c12.26-43,22.17-78.52,22-78.88s-12.39-3.08-27.16-5.87-27.56-5.95-28.76-6.43a9.17,9.17,0,0,0-2.95-.8,3.08,3.08,0,0,1-1.92-.76,4.66,4.66,0,0,0-1.44-1q-.72,0,19.73-59.91c11.26-32.87,20.37-59.9,20.29-59.9s-5.15-1.16-11.26-2.44c-14.74-3.08-16-3.6-16-7.39,0-1.4,56.47-72.41,60.47-75.88,1.36-1.2,1.76-1.28,12.62-1.28s11.22,0,21.09-9.83,9.9-10,7.39-12.82c-7.43-8.22-7.11-6.75-7.47-34-.32-24.48-.32-24.48-1.8-28.47-6-16,1-35.63,9.7-26.92,1.64,1.64,1.64,1.64,2.2,0,3-8.27,5.55-12,8.43-12,1.68,0,2.36.6,6.55,5.63,3.31,4,4.47,4.39,10.34,4a32.17,32.17,0,0,1,25.88,9.83c7.07,7.19,9.15,12.82,11.07,27.88a53.86,53.86,0,0,0,1,6c.36,1,164.87,70,166.87,70a27.2,27.2,0,0,1,7.47,8.19c1.16,1.63,12.26,16.21,24.64,32.39,27.56,35.94,26.52,33.07,13.54,38.42-7,2.91-7,2.91-6,5.23l65.86,149C1775.16,733.74,1773,729,1773,731.14s-.4,2.8-12,2.56c-19.37-.44-295.91-5.75-298.66-5.75s-2.68,0-2.36,1.51c0,.84.8,4.8,1.48,8.79,8,49.76,10.82,63.9,12.78,64.26s2.36,0,8.35,27c5.07,22.77,4.87,21.33,3.27,23.41s-61.34,1.75-63.46,0-1.28-5,4.91-24.25c3.24-10.14,6-18.93,6-19.57a12,12,0,0,1,3.36-6.59c1.28-.68,1.28-.68-7.35-28.75-4.71-15.46-8.67-28.2-8.75-28.24s-3,1.12-6.39,2.64c-12.5,5.51-13.78,4-10.34-11.63,1.08-4.91,2-9.06,2-9.22s-.91-.32-2-.32c-2,0-2,0-1.52,1.8,1.92,7.62.6,9.34-7.43,9.34a36,36,0,0,0-6.31.28c0,.2-3.63,14.42-8,31.59s-8.94,35.67-10.06,41c-5.75,27.52-9.15,41.46-10.35,42.45-1.91,1.56-68.33,1.48-69.73,0Zm66.7-4.67c2-8,8.67-39.06,8.67-39.94s-.4-1.12-11.43-1.23h-12c-.84,0-43.93,39.93-44.57,41.17-.24.64,4.23.8,28.76.92,16,0,29.35,0,29.75.28s.8-.4,1-1.12Zm124.41-.28c0-1.32-8.27-37.94-8.91-39.5s-.52-1.24-16.93-1.24-16.42,0-21.21,14.86c-2.64,8.19-5.51,17.18-6.43,20-2.12,6.55-2.2,6.27,1.6,6.51,12.62.76,51.88.36,51.88-.6Zm-105.6-77.36c4.83-18.89,8.79-34.63,8.79-34.95a249.81,249.81,0,0,0-33.39-1c-.36.36-4.36,64.5-4.36,68.77,0,1.52,0,1.52,10.19,1.52S1367.1,805.31,1375.89,770.92Zm92.22,33c0-1.64-12.78-76.68-13.1-77s-30.59,13.14-30.71,14.46,4,15,9.26,31.71,9.15,30.55,8.87,30.83c-1.12,1.28.24,1.44,12.62,1.44,13.06,0,13.06,0,13.06-1.4Zm-54.16-61a37,37,0,0,0,7.47-4,1.76,1.76,0,0,1,1.68-.76,133.13,133.13,0,0,0,16.65-6.71c8.71-4,18.1-8,20.85-9.11,7.35-3.07,8-3.47,8-4-14.5-36.38-19.69-49.08-20.25-49.44s-.72-6.31-.72-28,0-27.48-.72-27a59,59,0,0,1-10.42,1.24c-34.47,2.36-33.63,2.2-34,5.59s.4,3.59-23.09,4c-17.49.44-19.21.24-19.21-2.15,0-4-.48-4.68-3.67-4.88s-3,0-3,40.18c0,26.08.2,40.58.56,40.94s-3.35,6.15-11.06,17.21c-6.39,9.19-11.58,16.7-11.54,16.74.64.76,67.22.72,66.94,0a33.38,33.38,0,0,1-1-4.63,24.8,24.8,0,0,0-1.2-4.8,12.23,12.23,0,0,1-.8-2.51,96.34,96.34,0,0,0-2.4-10.07c-1-3.51-3.43-14.46-3.59-16a.76.76,0,0,1,.67-.84h0c.8,0,1.12.72,2.31,5.27.68,2.52.68,2.52,2.84-5.83,1.88-7.11,4-12.54,5.19-12.54.32,0,14.78,29.43,14.78,30.07a.78.78,0,0,1-.6.64c-.52,0-7.75,31.67-7.75,33.71,0,1-.36,1.08,7-2.16Zm352.34-14.65c0-.68-114.18-258.69-114.7-259.29s0,1,.68,2.8l14.46,38.7c12.3,32.87,13.81,37.5,12,35.5-.56-.55-23.29-60.58-36-95.05-9.86-26.72-10.9-29.24-12-29.2-1.84,0-71.41,29.32-71.41,30.08a1,1,0,0,0,.48.88,578.28,578.28,0,0,1,22.72,54c-.43.4-13.42,2.68-29.67,5.28-28.84,4.59-28.84,4.59-33,8.58-8.59,8.27-52.36,51-61.11,59.91s-9.3,9.15-9.34,28.56c0,15.25,0,19.41.68,19.37s11.14-13.46,24-29.92c13.42-17.29,23.48-29.79,24-29.71s41.26-4.51,90.74-10.26,89.87-10.39,90.11-10c1.08,1.12-6.95,2.2-90.78,12C1497.9,571,1497.9,571,1476.26,598.82c-12,15.26-22.49,29.08-23.53,30.68a21.16,21.16,0,0,1-2.43,3.23,103.68,103.68,0,0,0-.56,16.62c0,16.25,0,16.25,10.46,42.37q10.42,26.16,11.26,26.16c2.16,0,1.08,2-1.79,3.32-3.76,1.71-22.81,1.12,142,4.47,167.74,3.39,154.68,3.16,154.68,2.72ZM1410.4,717.64c.52-2.39,1.12-5.07,1.36-6s-.36-3.27-5.84-14.18c-3.47-6.87-6.31-12.38-6.35-12.22s-1.23,4.91-2.71,10.63c-2.72,10.3-2.72,10.3-1.36,16,2.6,10.82,1.64,9.63,8,9.83a40.94,40.94,0,0,1,5.75.32,13.16,13.16,0,0,0,1.32-4Zm-66.1-7.39c6.79-9.74,6.79-9.74,6.83-46.37,0-35.94,0-36.66-1.08-37.58s-21.73-61.94-21.73-63.9a34.43,34.43,0,0,0-8-1.4s-.84,2.6-1.64,5.51c-4,15-41.22,144.66-42.38,148.14a29.46,29.46,0,0,0-1.28,4.23s12,.28,26.28.48,26.24.44,26.36.6a30.29,30.29,0,0,0,5,0c4.71,0,4.71,0,11.54-9.91Zm37.46-87.66c8,0,15.1-.44,16-.6,2-.28,2-.28,2.11-13.42s0-13.1-8-12.78c-4.52,0-13.7.52-20.41.72-13.9.44-12.54-1.76-10.39,16.61.64,5.23,1.16,9.71,1.16,10s1.2.32,2.64,0,9-.44,16.85-.64Zm-17.53-7.07a34.26,34.26,0,0,1-.68-12,182.05,182.05,0,0,1,28.2-1.56,33,33,0,0,1,.44,13.74c-.48,0-6,.48-12,.68s-12,.48-13.18.6c-1.63.28-1.87,0-2.59-1.56Zm18.29-1.32c8.83-.36,8.83-.36,8.47-2.88a40.22,40.22,0,0,1-.12-5.15c0-2.51,0-2.51-7.39-2.11-19.53,1-18.21.63-18.21,4.55,0,5.83.32,6.27,4.79,6l12.66-.56Zm-30.71-37.7c0-50.44,4.27-44.57-45.81-62.39-10.75-4-10.23-4-19.33,0a71.12,71.12,0,0,1-7.63,2.68c-.4-.4,2.83-2,9.46-4.67s7.07-2.84,17.26.76a68.6,68.6,0,0,0,11,3.27,139.07,139.07,0,0,0,8-17.37c4-9.39,11.26-26.76,16.29-38.58,9.47-22.37,9.71-23.05,8-23.53-2.47-.72-51.92-11-52.16-10.82S1255.79,545.67,1256,545.67s71.89,14.77,72.77,14.61,2.88,5.75,11.19,30.92c6.39,19.29,10.54,31,11,31s.72-9.15.72-45.77Zm5.79,39.1c2.12,0,2.12,0,1.76-4.87-.48-5.8-.48-5.8-4-5.36-2.59.36-2.59.36-2.59,5.64s0,5.27,1.23,5a16.19,16.19,0,0,1,3.6-.44Zm65.74-2.48c11-.48,21.09-.84,22.4-.84,2.36,0,2.36,0,2.36-6.15s0-6.11-1.8-6.11c-1,0-11.42.52-23.12,1.24-21.29,1.24-21.29,1.24-21.29,7,0,4.23.2,5.71.72,5.71Zm-65.86-13.86c0-2.39,0-4,.44-4a7.91,7.91,0,0,0,2.23-.64c1.36-.56,41.3-1.64,41.78-1.16a8.83,8.83,0,0,1,.64,3.52c0,3.07,0,3.07,22.57,1.71s22.4-1.35,22.4-5.55c0-4.91-3.75-.76,37.82-41.29,13.34-13,24.33-24,24.41-24a302.34,302.34,0,0,0-23.33-20.33c-8.31-6.95-8.71-6.95-10.06-6.35-11,5.75-41.3,13.82-63.67,17-16.77,2.35-46.72,1.59-56.83-1.44-2.4-.72-2.4-.72-2.4,42.93s0,43.66,2.08,43.5,2.08,0,1.92-4Zm-6.27-107.83c0-24-.2-36.75-.56-35.95-1.12,2.36-18.37,63.91-18.21,65.1s1.79,1.68,8.9,4c4.8,1.67,8.91,3.23,9.15,3.47a1.07,1.07,0,0,0,.44.52V491.43Zm166.46,28.71c3.2-3.07,15.06-14.65,26.28-25.64,18.1-17.65,20.61-20,21.41-19.25s-1.32,2.92-18.53,20c-15.66,15.42-19.09,19-17.77,18.77,3.11-.56,50.8-8,51.44-8s1,0-10.51-26.76c-6.15-14.14-11.14-26.08-11.14-26.48s-2.68.44-7.39,2.43a72.36,72.36,0,0,1-8.47,3.16,1.08,1.08,0,1,1-.5-2.1l.11,0c1-.36,1.11-1.36,1.43-31.63.76-65.74.76-65.78-.44-63.42-.56,1.16-13.26,24.88-28.23,52.8s-27.2,51-27.2,51.44a3.24,3.24,0,0,1-.8,1.6,235.71,235.71,0,0,0-7.19,32c.56.8,30.95,26.84,31.35,26.84a76.39,76.39,0,0,0,6.15-5.64ZM1414.83,516c21.57-3.39,58.39-13.46,62.31-17.25.24,0,1.79-6.51,3.51-14a185.6,185.6,0,0,0,4-18.93c0-.76-102.92-117.78-103.84-117.9,0,0-6.35,19.33-13.78,43.05-13.5,43.1-13.5,43.1-13.46,82.76,0,34.9,0,39.93.84,40.33a68.08,68.08,0,0,0,15,3A314.34,314.34,0,0,0,1414.83,516Zm-82.31-17.73c3-10.31,5.27-18.81,5.19-18.89s-15.1,34.94-15.1,35.66a9.66,9.66,0,0,0,4.36,2S1329.56,508.6,1332.52,498.26Zm170.18-65.54L1532,378c9.35-17.41,12.94-24.68,12.94-26s.28-1.84,1-1.84,1.48-.91,2.16-2.19c1.24-2.24,1.24-2.24-82.56-2.24s-83.87,0-81.87,2.2c5.15,6.11,102.08,115.22,102.36,115.22S1493.67,449.33,1502.7,432.72Zm97,0c26.8-11.19,48.68-20.53,48.6-20.81s-11.38-15.18-25.16-33.23c-25-32.75-25-32.75-48.12-32.75-30,0-27.72-3.43-28,41.42,0,17.77-.4,40.22-.56,50-.28,17.65-.28,17.65,2.16,16.7ZM1350.93,434c0-1-24.76-83.88-25.2-84.87s-55.12,66.69-55.6,68.13c0,.4,22,5.47,25.84,5.91a6.71,6.71,0,0,1,1.6.28c0,.24,52.32,11.58,52.84,11.46A.83.83,0,0,0,1350.93,434Zm15.14-47.29c6.82-21.93,12.46-40.14,12.46-40.5s-6.75-.64-25.64-.64c-24,0-25.61,0-25.33,1L1339,385.11l12.34,41.46c1.16,4,1.16,4,1.68,1.95.27-1.07,6.15-20,13-41.77Zm226.41-43.3a1,1,0,0,0-.4-1.07c-.68-.52-159.48-66.78-161.27-67.3s-1.28,1,.72,14.74c.91,6.35,1.75,12,1.79,12.66s-.2,1.11-.68,1.11a20.81,20.81,0,0,1-2.19-9.62c0-2.56-2.64.36-9.83,11.54-12,18.53-26.44,24.36-42.69,17.14-4-1.72-4-1.72-14.62,9.1a127.76,127.76,0,0,0-10.82,11.5c0,.84,239.63,1,240.11,0Zm-197.26-20.64a32.27,32.27,0,0,0,21-14.9c3.23-5.51,3.27-5.83,1.12-5.47-6.59,1-6.43,1-7.35-.76s-.84-1.64,4.55-6.51c10.66-9.55,13.5-12.34,13.5-13.26s-.76-.28-2.76,1.48c-13.06,11.42-38.38,13.14-53.87,3.67-6-3.63-10.71,11.66-6.39,20.61A29.09,29.09,0,0,0,1395.22,322.81ZM1420,300c2.12,0,2.44-.2,4.84-3.47l4-5c1.24-1.59,1.16-5.39,0-5.39a102.38,102.38,0,0,0-14.94,13.74c0,.68.4.8,2.08.52a31.64,31.64,0,0,1,4.35-.36Zm-11.46-10.3c9.67-2.32,19.33-9.39,19-13.94a35.92,35.92,0,0,0-10.14-18.13c-1.32-1-2.12-1-27.52,0l-26.32,1.11a17.45,17.45,0,0,0,.68,8c4,1.6,4,15.66-.32,16.78-.8,0-1,.79-1,2.43,0,2.88.92,2.72,3.51-.72,2-2.67,2.16-2.75,3.36-1.91,8.63,6.23,26.52,9.06,38.74,6.15ZM1392,284.94c-6.75-3.27-4-24,2.91-20.92,5.27,2.39,5.23,18.57,0,21a6,6,0,0,1-1.52.6Zm2.75-2.51c4-4.52,1.76-19.73-2.28-16s-2.63,17.06,1,17.06c.24-.24.76-.68,1.32-1.2ZM1365,279.11a12,12,0,0,0-.68-8.86c-.68-.92-.76-.32-.8,4.95,0,6.51,0,7,1.48,4Zm59.67-20.49c-3.28-18.25-16.38-29-32.16-26.48-5.07.84-8-.48-13-6-3.27-3.51-2.79-3.71-4.87,1.72a16.33,16.33,0,0,0-1.4,10.58c.8,4-4.35,1.6-9.18-4-4-4.75-6.15,4.47-3.48,16.38,1.4,6.35-1.27,5.91,29.4,4.63,20.73-.88,26.8-1,27.48-.48a28.57,28.57,0,0,1,6.27,6.71,19.12,19.12,0,0,0,1.83,2.64s-.32-2.6-.87-5.84Z" transform="translate(-849.56 -70.05)"/><path id="path275" class="cls-11" d="M1290.38,853.23c-2.48-2.71-2.4-2.79,25.8-29,14.54-13.54,26.52-24.88,26.56-25.24s.88-12.94,1.8-28,1.84-28.72,2-30.47c.31-3.2.31-3.2-7.63-3.2-13.9,0-15.46-.56-12.78-4.35a32,32,0,0,0,1.83-3.16,27.24,27.24,0,0,1,1.8-3.15c1-1.44,1-1.44-22.33-1.8-24-.36-35.94-1-37.26-2.12s-1-2.43,21.53-81.39c12.26-43,22.28-78.52,22.28-78.92s-8-2.28-26-6c-28.87-5.75-36.86-8-36.86-9.51,0-.2,9-26.72,20-59s20.21-59.07,20.37-59.55-1.76-1.27-11.34-3.27c-14.46-3-15.78-3.64-15.78-7.43,0-1.16,54.76-70.09,60.15-75.88.92-1,2.08-1.12,12.62-1.28,11.58-.2,11.58-.2,21.41-10s9.94-9.7,7.43-12.5c-7.43-8.22-7.11-6.83-7.27-33.51,0-22.52-.2-24-1.24-26.48a44.81,44.81,0,0,1-2.28-24c2.36-6.87,10.15-9.42,12.26-4,.44,1.2.48,1.2.84,0,3-9.11,5.75-13.1,8.75-13.1,1.68,0,2,.24,6.71,5.75,3.35,4,4.43,4.31,10.26,4a32.18,32.18,0,0,1,25.8,9.83c7.07,6.75,8.79,11.46,11.35,28.35a27.46,27.46,0,0,0,1.23,5.88c.6.51,164.31,68.57,165.75,68.93a19.42,19.42,0,0,1,6.83,6.47c.84,1.24,12,16,25,32.95,28.68,37.5,27.52,34.35,14.5,39.7-7,2.91-7,2.91-6,5.23,2.48,5.63,12.66,28.72,63.9,144.22,76.13,172.1,71,160.24,71,162.79s-.6,2.68-10.5,2.44c-29.24-.84-302.42-5.83-302.7-5.59a10.66,10.66,0,0,0,.36,3.55c.4,1.76.76,4,.84,4.59s2.64,16,5.67,33.79c5.51,32.39,5.51,32.39,7.43,32.55s2.36,0,8.39,27c4.59,20.57,4.75,22,2.71,24s-61.38.72-63-.71-1.2-5,5-24.29c3.28-10.14,6-18.81,6-19.29a13,13,0,0,1,3.44-6.83c1.28-.68,1.28-.68-7.35-28.75-4.75-15.46-8.71-28-8.79-28.28a67,67,0,0,0-6.51,2.68c-5.35,2.43-6.67,2.79-8.55,2.51-4.35-.68-4.47-1.6-1.67-14.06,2.35-10.54,2.35-9.62,0-9.62s-2,0-1.52,1.8c1.92,7.62.6,9.34-7.43,9.34a36,36,0,0,0-6.31.28s-3.63,14.34-8,31.59-8.38,33-8.86,35.19c-10.23,46.57-10.39,47.29-11.55,48.28-1.91,1.56-68.33,1.48-69.73,0Zm66.7-4.67c2-8,8.67-39.06,8.67-39.94s-.4-1.12-11.43-1.23h-12c-.84,0-43.93,39.93-44.57,41.17s4,.8,28.76.92c16,0,29.35,0,29.75.28s.8-.4,1-1.12Zm124.41-.48c0-1.4-8.23-37.86-8.91-39.46s-.52-1.23-16.93-1.23-16.42,0-21.21,14.85c-2.64,8.19-5.51,17.18-6.43,20-2.08,6.43-2.12,6.27,1,6.51,10.86.88,52.44.36,52.44-.6Zm-105.6-77.16c4.83-18.89,8.79-34.63,8.79-34.95a249.81,249.81,0,0,0-33.39-1c-.36.36-4.36,64.42-4.36,68.77,0,1.52,0,1.52,10.19,1.52S1367.1,805.31,1375.89,770.92Zm92.22,33c0-1.64-12.74-76.68-13.1-77s-30.59,13.14-30.71,14.46,4,15,9.26,31.71,9.15,30.55,8.87,30.83c-1.12,1.28.24,1.44,12.62,1.44,13.06,0,13.06,0,13.06-1.4Zm-52.88-61.47a32.19,32.19,0,0,0,6.83-3.63,1.07,1.07,0,0,1,1.24-.52,154.33,154.33,0,0,0,16.81-6.75l19.65-8.63c8.87-3.75,9.07-4,8.79-4.87-.6-2.08-19.49-48.84-20-49.48s-.52-12.82-.48-34.63c0-34,0-34-1.76-34-1,0-11.42.52-23.12,1.2-21.29,1.24-21.29,1.24-21.29,7s0,5.79,6.55,5.47c16.22-.84,38.66-1.52,39-1.2,1.16,1.16-2.28,1.84-12.54,2.52-31.67,2-32.71,2.2-32.71,5.39,0,4,1.8,3.4-19.21,4-22.53.8-22.41.8-22.81-3.39-.28-3-.28-3-3.47-3.32s-3.24-.27-3.2,41.3,0,41.62-11.1,57.59-11.14,16,1.24,16.38c11.22.32,55,.6,54.92.32a100.53,100.53,0,0,0-2.52-11.06,5.24,5.24,0,0,1-.6-1.84,75.94,75.94,0,0,0-2.4-10.31,77.52,77.52,0,0,1-3.11-16c.6-1,1.24-.24,1.64,1.72,1.39,7.1,1.39,7.1,4-2.64,4-15.34,3.63-15.42,12.5,2.44,6.55,13.22,7.39,15.21,6.63,16a94.7,94.7,0,0,0-4.43,16.74c-1.88,8.86-3.56,16.57-3.72,17.09-.32,1.16-.52,1.24,8.67-2.88Zm350.7-16.29c-.55-1.32-20-44.69-42.61-96.45L1667,502.25c-20.49-46.69-20.49-46.41-1.56,4.83,13.94,37.23,15,40.58,13.42,38.86-.6-.63-29.2-75.88-36.27-95.85-4.79-13.38-10.78-28.68-11.26-28.83s-71.13,29-72.17,29.91a66.3,66.3,0,0,1-17,6.39c-.44-.56-.32-.88.48-1.32,1.47-.8,1.67-6,2-57.35.28-40.94.28-40.94-1.44-37.58-1,1.83-13.85,25.92-28.67,53.55s-26.92,50.57-26.92,51a1.13,1.13,0,0,1-.52,1,308.44,308.44,0,0,0-7.31,31.95c.2.28,7.43,6.55,16,13.94,17.89,15.25,12.42,16.85,42-12,24-23.36,26.24-25.56,26.88-25.56,1.6,0,.32,1.8-5,7-22.81,22.17-33,32.35-32.23,31.95l27.32-4.39c14.53-2.32,26.48-4.23,26.56-4.31s-5-12-11.23-26.52c-12.58-29.12-11.66-26.76-10.66-26.76s24,53.48,23.08,54.27-13.73,2.76-29.63,5.24c-28.8,4.91-28.8,4.91-32.15,8-7.35,7.07-51.28,49.93-61,59.55-10.42,10.27-10.42,10.27-10.46,29.72,0,16.53,0,19.41.76,19.25s11.22-13.62,24-30.08c15.74-20.28,23.4-29.79,24-29.55s41.1-4.39,90.43-10.14,89.82-10.27,90.1-9.91c1,1-7,2-90.58,11.74-49.41,5.71-90,10.59-90.23,10.79-1.79,1.91-45.17,58.35-45.81,59.63s-1.11,1.67-1.43,1.67a114.35,114.35,0,0,0-.52,16.86c0,16.81,0,16.81,10.38,42.85,8.35,20.85,10.63,26,11.42,26,2,0,.92,1.56-1.91,2.76l-4,1.67c-.72.32,1.84.52,7.23.6,4.59,0,67.9,1.28,140.51,2.72,169.34,3.43,153.8,3.39,152.56.48Zm-354.85-10.34c1.39-6.24,1.39-6.24-4.92-18.86-7.34-14.65-6.07-14.69-9.78,0-2.28,9-2.28,9-.52,16.5s1.76,7.51,7.11,8c2.91.2,5.59.4,5.87.52s.72.51,2.24-6.27Zm-66.62-5.4c6.79-9.74,6.79-9.74,6.79-47,0-33.55,0-37.31-.88-37.47s-4-9.1-11.3-32c-10.47-31.95-10.47-31.95-14.5-32.75a24.73,24.73,0,0,0-4-.84s-36.66,127.45-44.73,155.84c-.92,3.24-3.11,2.92,20.17,3.2,11.27,0,20.57.36,20.69.48s4.91.24,10.58.24c10.35,0,10.35,0,17.18-9.75ZM1351.81,577c0-46.33,0-46.33-8-49.33l-18.53-6.75c-31-11.42-28.68-11-37.94-7.19-8.55,3.52-8.79,3.6-7.19,2.36a70.15,70.15,0,0,1,8.46-4c7.19-2.88,7.19-2.88,17.34.68a68.6,68.6,0,0,0,11,3.27,160.68,160.68,0,0,0,8.63-18.77c4.27-10.15,11.58-27.48,16.25-38.5,8.83-20.77,9.15-21.73,7.55-22.21-2.52-.76-51.92-11-52.16-10.82s-41.26,119.7-41.06,119.94,71.81,14.85,72.73,14.85,2.68,5,11.26,30.76c9.63,29,10.79,32.23,11.43,32.23s.24-20.85.24-46.33Zm30.07,45.49c8,0,15.1-.44,16-.6,2-.28,2-.28,2.11-13.42s0-13.1-8.42-12.78l-20.13.8c-12,.36-12,.36-12,1.83,0,.8.63,6.59,1.39,12.86s1.4,11.63,1.4,12,1.2.32,2.64,0,9-.44,16.85-.64Zm-17.53-7.07a35.51,35.51,0,0,1-.72-12,185.15,185.15,0,0,1,28.24-1.56,33,33,0,0,1,.44,13.74c-.48,0-6,.48-12,.68s-12,.48-13.18.6c-1.63.28-1.87,0-2.59-1.56Zm21.92-1.36c5.2-.32,5.2-.32,4.88-5.31a46.64,46.64,0,0,0-.28-5.15c-.2,0-24.45,1.31-25.16,1.55a28.7,28.7,0,0,0,0,9.43,143.32,143.32,0,0,0,20.72-.52Zm-28.67,1.48c2.12,0,2.12,0,1.76-4.87-.48-5.8-.48-5.8-4-5.36-2.59.36-2.59.36-2.59,5.64s0,5.27,1.23,5a15.55,15.55,0,0,1,3.6-.36Zm0-16c-.48-5-1.28-4.79,22.44-5.59s22.45-1,22.13,2.92-2.84,3.59,22.41,2c26.2-1.59,23.36-.87,23.36-6a9,9,0,0,1,.52-4c.28,0,.6-.32.68-.76s12.46-12.7,27.44-27.32l30.47-29.71c3.23-3.16,3.23-3.16-12-16.22-17.93-15.25-17.3-14.74-18.17-14-3.28,2.76-32.67,11.63-49.09,14.82-26.28,4.91-60.91,5.27-73.41.48-.84-.32-.92,2.76-.92,43.37,0,43.94,0,43.94,2.32,43.94s2.28,0,2-3.64Zm-6.39-108.27c0-24-.2-37-.56-36.31-1.12,2.44-18.85,65.38-18.57,66.06a43.57,43.57,0,0,0,8.74,3.76,93.9,93.9,0,0,1,9,3.47,1.8,1.8,0,0,0,1.08.32c.24,0,.44-16.81.4-37.42Zm48.36,26.28a249.92,249.92,0,0,0,62.07-12.94c14.62-5,16-5.55,16.41-8,1.52-5.91,6.23-28,6.35-29.79s-.67-3-18.21-22.77l-85-95.85c-.76-.84-.44-1.8-14.38,42.77-13.42,42.74-13.42,42.74-13.38,82.83v40.26c1.16,1.16,13.46,3,23.49,3.52a131.37,131.37,0,0,0,22.44,0Zm-71.65-2.88c.32-1.32,2.72-9.74,5.28-18.77s4.59-16.45,4.51-16.53-15.1,34.94-15.1,35.66a9.93,9.93,0,0,0,4.36,2A11.68,11.68,0,0,0,1327.92,514.67Zm188.95-108.11c18.74-34.95,28-52.48,28-54s.56-2.24,1.12-2.24,3.67-4.55,3.2-5-38,0-84.2,0c-83.87,0-83.87,0-37.82,52.2l52.6,59.19c6.35,7.15,6.35,7.15,8,4.43.88-1.47,14-26,29.27-54.43ZM1598.55,433C1649,412,1649,412,1623.51,378.68S1598,345.33,1575,345.17c-30.84,0-28-5.87-28.56,59.91-.36,48.61-.36,49.72.68,49.4S1570.83,444.7,1598.55,433Zm-247.3,1.51c0-1-25.08-85.26-25.52-85.74s-13,15.13-28.36,34.18-28,34.67-27.76,34.75,6.15,1.44,13.42,3c14.5,3.11,22,4.71,48.69,10.54C1350.93,435.47,1351.25,435.51,1351.25,434.55Zm14.78-47c7.14-22.69,12.86-41.74,12.86-42s-50.73-.52-51.17,0,23.13,80.68,24.65,84.55c.28.68.36.68.56,0S1358.92,410.35,1366,387.51Zm226.69-43.94c.52-.36,0-.79-1.68-1.63-3-1.56-159-66.5-160.23-66.86s-1.24,1.72.91,16a65.7,65.7,0,0,1,1.28,12.43c-.76.51-1.31-.76-1.71-4-.92-7.23-1.36-7.79-3.68-4.67s-7.11,10.42-9.26,14.1a32,32,0,0,1-40.46,13.9c-4-1.76-4-1.76-14.7,9.06a127.76,127.76,0,0,0-10.82,11.5c0,.8,239,1,240.35,0Zm-196.34-20.8A32,32,0,0,0,1418,305.15c1.63-3.19,1.75-3.11-3-2.63s-5.19,0-5.19-2a72.28,72.28,0,0,1,9.1-8.91c6.51-5.75,9.15-8.42,9.15-9.3s-.4-.88-4,1.87c-13.62,10.63-36.91,12-52.56,2.68-3-1.72-2.48-1.92-5.43,2.2a20,20,0,0,0,1.63,23A28.56,28.56,0,0,0,1396.38,322.77Zm24-22.81c1.84,0,2.28-.32,4.64-3.47,1.39-1.92,3.11-4,3.79-5,1.24-1.55,1.12-5.47,0-5.47a127.39,127.39,0,0,0-15,13.5c-.6,1.08-.52,1.12,2,.76a41.3,41.3,0,0,1,4.71-.36Zm-11.5-10.3c9.82-2.6,19.05-9.47,18.77-13.94a35.25,35.25,0,0,0-10.34-18.33c-1.16-.76-3.4-.76-21.81,0-35.11,1.43-32,.87-32,5.35,0,2.87.2,4,.8,4.19,4,1.6,4,15.66-.32,16.78-.8,0-1,.79-1,2.43,0,2.88.92,2.72,3.51-.72,2-2.67,2.16-2.75,3.36-1.91C1378.45,289.74,1397.3,292.69,1408.84,289.66Zm-17.45-5.6c-6.11-5.15-3-23.12,3.55-20.16s4.75,21.6-1.4,21.6A6.94,6.94,0,0,1,1391.39,284.06Zm4.39-3.15c2.32-5.07.8-15.46-2.24-15.46s-4.51,10.39-2.23,15.46c.76,1.68,1.39,2.36,2.23,2.36s1.32-.68,2.24-2.32Zm-30.07-5.71a12.11,12.11,0,0,0-1.08-4.43c-1-2.24-1-2.24-1,4.43s0,6.67,1,4.47A12.37,12.37,0,0,0,1365.71,275.2Zm59-17c-3.24-18.37-17.26-29.15-33.43-26-3.76.72-5.55,0-11-5.51-4.23-4-3.59-4-5.31-.28a16,16,0,0,0-2.12,10.67,19.4,19.4,0,0,1,.64,2.71c0,.8-2,.84-3,0a37.8,37.8,0,0,0-3.36-2.55,18.82,18.82,0,0,1-3.71-3.64c-1-1.68-1-1.68-2.16,0-2.55,3.24-2.91,10.15-.92,17.77,1.56,6-1,5.56,29.32,4.32,22-.92,26.6-1,28-.36a24.08,24.08,0,0,1,6.75,7.59c1.63,2.91,1.67,2.55.4-4.64Z" transform="translate(-849.56 -70.05)"/></g></g><g id="Layer14"><path class="cls-12" d="M1477.73,499.86l9-32.87,65.1-123.26,2.8,107.84,5.63,3.19,20.65,50.69-63.91,12-5.75,9.14Z" transform="translate(-849.56 -70.05)"/><path class="cls-12" d="M1477.73,500.89l31.4,28,15.37-14.78Z" transform="translate(-849.56 -70.05)"/></g><g id="Layer2"><path class="cls-13" d="M1352.17,435l-2.68-91.3" transform="translate(-849.56 -70.05)"/></g></g></g></g></g></svg>