<svg id="лево" xmlns="http://www.w3.org/2000/svg" viewBox="0 0 679.2 567.51"><defs><style>.cls-1,.cls-2{fill:#fff;}.cls-12,.cls-2,.cls-3,.cls-9{fill-rule:evenodd;}.cls-3{fill:#d7e2e7;}.cls-4{fill:#d6e1e5;}.cls-5{fill:#75848a;}.cls-6{fill:#0565b1;}.cls-7{fill:#42515c;}.cls-8{fill:#314653;}.cls-9{fill:#1c2c38;}.cls-10,.cls-11,.cls-12{fill:none;stroke-linecap:round;}.cls-10,.cls-11{stroke:#1c2c38;stroke-linejoin:round;}.cls-10{stroke-width:1.85px;}.cls-11{stroke-width:0.83px;}.cls-12{stroke:#fff;stroke-miterlimit:10;stroke-width:17.01px;}</style></defs><path class="cls-1" d="M502.53,219s55.15-49.14,39.49-63c33,0,59.69,2.75,48-22.72-9.53-20.77-42.21-18.16-66.38-20.08,3.74-10.27,15.87-30.15-3.41-25.88C498.6,92.06,457.94,96.46,449,99.49c-6.49,2.19-5,50.6-15.88,44.29s-60.54-43.13-174.24-30.53c-4.07-38.4-13.35-78.9-30-78.06C218.7,35.7,219,45.52,219,45.52A17.07,17.07,0,0,0,204.64,44c-6.24,2.33-27.62,9-38.1,33.59-7.41,17.39-.66,34.82-4.4,38.73-3.35,3.49-119.4,72.78-149.69,90.88-3.19,1.91-9.71,4.59-8.94,11,1.33,11.1,26.28,21,35,21.91C31,262.25-84.83,540.11-86.23,546.51c-1.34,6.11,6.57,10.86,26.38,10.55,65-1,197.7,2,198.3-1.49l36,0Z" transform="translate(86.38 -35.17)"/><path id="Ellipse_8_copy" data-name="Ellipse 8 copy" class="cls-2" d="M306.88,102.88c135.11,0,244.64,111.89,244.64,249.9S442,602.68,306.88,602.68,62.23,490.8,62.23,352.78,171.76,102.88,306.88,102.88Z" transform="translate(86.38 -35.17)"/><path class="cls-3" d="M306.88,121.25c125.17,0,226.65,103.66,226.65,231.53S432.05,584.31,306.88,584.31,80.22,480.65,80.22,352.78,181.7,121.25,306.88,121.25Z" transform="translate(86.38 -35.17)"/><g id="Слой_2" data-name="Слой 2"><g id="Слой_1-2" data-name="Слой 1-2"><g id="rysunek-4.svg"><g id="Warstwa-11"><g id="g305"><path id="path321" class="cls-4" d="M249,584c0-.69,1-7.93,2.25-16.12s2.09-15,2-15.21a2.91,2.91,0,0,1,.19-2.8,11.06,11.06,0,0,0,1-4.77c-.39-.42-325.27,2-325.76,2.39-2.19,1.86-4.5-1.15-3.1-4,.26-.52,20.33-49.43,44.64-108.73S23.32,305.13,34.29,278.4C50.83,238,54.13,229.78,53.67,229.46s-8.16-1.67-17.52-3.27c-18.67-3.45-17.88-3.26-18.31-5.77-.36-2-2.35-.72,53.65-35.15,28.62-17.58,52.6-32.63,53.32-33.08a7,7,0,0,1,2.12-1.31c.45,0,11.29-6.52,24-14.49,23.23-14.29,23.23-14.29,23.17-15.56-1.34-25.52,1.63-34.95,15.23-48.59,10.54-10.54,20.2-16.32,27.41-16.32,3.72,0,4,.27,5.19,5.45,1,4,1,4,1.77,3.53a7.44,7.44,0,0,0,2.44-9.14C224.3,50.87,227.63,49,231,53c12.4,14.88,20.23,42.42,17.39,61.15-.36,2.25-.88,5.78-1.18,7.87a26.77,26.77,0,0,1-1.46,6.68c0,.36-.75,2-1.31,3.66a39.84,39.84,0,0,1-4.83,9.79c-1.08,1.53-1.08,1.53,5.06,6.23,3.26,2.61,26.95,20.66,52.44,40.17s46.73,35.9,47.25,36.32c1.07,1,45,16.31,46.73,16.31a4.08,4.08,0,0,1,1.79.62,69.83,69.83,0,0,0,7.73,3c9.79,3.26,9.79,3.26,10.32,6.29.19,1.15,11.78,29.11,12,28.92s2.45-12.4,5.35-27.48c5.62-29.37,5.78-29.95,7.25-35.21a27.68,27.68,0,0,0,.94-4.5,4.36,4.36,0,0,1,.33-1.67c.2-.32,1.14-4.83,2.15-10.05s1.93-9.79,2.09-10.14,1.14-5,2.16-10.32,1.95-9.79,2.12-10.31,1.11-4.89,2.12-10.11,2-9.79,2.12-10.15,1.11-5,2.12-10.31,2-9.79,2.15-10.31,1-4.18,1.8-8.49c2.18-11.52,2-11.16,6.26-10.8,7.8.69,22.52-2.09,34.63-6.53,1.79-.65,5.61-2,8.51-3.06s6-2.29,6.92-2.74c3.26-1.67,5.09,0,2.94,2.61-.39.49-1.15,1.5-1.63,2.21a94.73,94.73,0,0,1-16.32,18.74c-1.89,1.63-2.94,1.56,32.14,2,43,.59,39.55.29,42.13,3.56L574.4,131l3.26,4.24c6,7.83,6.11,8,4.87,9.53-.56.68-40,0-76.43-1.18-5.84-.19-5.84-.39,0,4.54,1.08.94,3.46,3,5.26,4.63s5.45,4.86,8.12,7.21c9.79,8.49,9.79,8.68,7.25,11.82s-6.53,7.76-8.23,9.78c-1,1.18-2.9,3.46-4.24,5.1l-8.94,10.73c-1,1.21-2.77,3.26-3.85,4.6l-4.4,5.26c-1.34,1.59-3.27,3.78-4.08,4.89-5.49,6.76-5,6.53-9.79,5.29-2.71-.69-2.52-1.44-1.9,8.22.3,4.63.69,11.45.89,15.14C482.9,255.56,493.7,415.36,494,416a4.16,4.16,0,0,1,0,2.61c-.42,2.29-16.54,45.46-17.2,46.14s-5.54.46-35,.43c-34.59,0-34.59,0-34.4.85s.33,4,.56,7.86c.39,6.92.39,6.92,22.84,26.73,12.27,10.93,22.48,20.2,22.68,20.65.91,2-.29,4-2.28,3.66-.62,0-8-2.55-16.32-5.45s-15.37-5.22-15.43-5.16,6,6.14,13.6,13.48a141.4,141.4,0,0,1,13.74,14.06c0,1.76,0,1.8-14.23,2-7.18,0-13.05.23-13.05.26s1.11,8.26,2.51,18.24.51-4.57.67-3.26c.26,2.35,2.47,26.14-85.48,26.14s-87.94,0-87.94-1.21Z" transform="translate(86.38 -35.17)"/><path id="path319" class="cls-1" d="M249,584.36c0-.79.62-5.16,3.88-27.51a17.27,17.27,0,0,0,.33-4.18c-.52-.33-.29-2.12.33-3a7.27,7.27,0,0,0,.88-2.81c.22-1.92.22-1.92-22.45-1.73-12.47,0-85.69.62-162.7,1.11-116.53.72-140.09,1-140.55,1.31-2,1.73-4.66-1.31-3.26-3.72S54.13,229.78,53.7,229.59s-8.19-1.67-17.55-3.26c-18.67-3.27-17.88-3.27-18.31-5.75-.36-2-2.45-.65,54-35.31,28.78-17.68,52.7-32.46,53.16-32.89a12.14,12.14,0,0,1,2.28-1.4c.82-.39,11.72-7,24.22-14.72,22.84-14,22.84-14,22.84-15.27-.78-16.74,0-23.46,3.82-33.22,5.38-13.6,27.64-31.68,39-31.68,3.56,0,3.85.29,5.06,5.45.94,4,.94,4,1.76,3.52a7.46,7.46,0,0,0,2.45-9.14c-.92-2.35-1-3.06,0-3.94,2.44-2.65,5.18.22,11.71,12.23,9.17,16.94,13.05,34.46,10.54,49.93-.36,2.51-.91,6.2-1.21,8.16a38.88,38.88,0,0,1-.94,4.76c-.26.62-.92,2.61-1.5,4.41a50.65,50.65,0,0,1-5.52,10.76c-.95,1.41-.95,1.41,6.53,7.25,4.17,3.26,27.77,21.27,52.44,40.13s45.26,34.72,45.68,35.21c1,1,44.9,16.32,46.6,16.32a2.19,2.19,0,0,1,1.3.46,148.65,148.65,0,0,0,15.18,5.51,4.71,4.71,0,0,1,3.85,3.95c0,.72,11.78,29.07,12,28.88s2.22-11.29,4.83-24.93c5.49-28.52,6.53-33.91,7.48-36.65.36-1.07,1.73-7.34,3.06-13.9C441,191.41,443.81,178,447.17,162s6.14-29.63,8.32-40.4c2.55-12.46,1.7-11.42,9.11-11.48a94.61,94.61,0,0,0,30.18-5.84l8.81-3.27c3.26-1.11,6.53-2.44,7.64-3,4.08-2,5.77-.55,3.26,2.84l-2.71,3.72A100.66,100.66,0,0,1,497.1,121c-2.16,1.83-3.56,1.73,31.19,2.22,13.68.16,28.46.42,32.63.52,8.78.23,7.61-.42,13.84,7.77l3.43,4.47,3.26,4.37c1.5,2,1.7,3,.78,4.14s-.58.72-41-.29c-22.19-.56-40.4-1-40.46-.91a104,104,0,0,0,10.51,9.49l8.51,7.57c2,1.8,4.41,3.92,5.35,4.7a10.53,10.53,0,0,1,2.22,2.35c1,1.86,1,1.76-4.6,8.48-.72.85-2.35,2.81-3.59,4.34l-4.76,5.65L510,191.18c-1.14,1.37-2.83,3.46-3.81,4.6l-3.76,5-9.23,11.1-3.26,4.08c-2.19,2.67-2.09,2.64-6.53,1.43-2.28-.62-2.28-.62-1.76,7.74.32,4.56.78,12.82,1.08,18.3s1.82,29.57,3.45,53.48,4.05,60.37,5.42,81,2.64,37.76,2.81,38.08a4.92,4.92,0,0,1,0,2.29c-.2,1.66-16.12,44.83-17,46.27-.45.72-.45.72-35.14.72s-34.69,0-34.52,1.07.35,4.11.55,7.83c.39,6.79.39,6.79,21.86,25.85,25.16,22.35,23.47,20.75,23.76,22.29.49,2.64-1.44,3.26-5.09,2s-29.37-10-29.37-9.79S425.44,520.59,433,528c10,9.79,13.74,13.57,13.74,14.1,0,1.63-.52,1.69-14.36,1.89-7.08,0-13.05.19-13.05.26s1,8.16,2.44,18.08.47-4.67.57-3.27c.26,2.51,2.47,26.31-85.41,26.31s-87.87,0-87.87-.89ZM403.05,446.62c0-.65-2.21-35.31-4.92-76.95s-5.26-81.83-5.75-89.31-.91-13.9-1-14.32c-.2-.92-19.58-21.87-23.7-25.65-7.27-6.53-3.65-4.93-29-13.67-22.48-7.77-22.48-7.77-24.27-6.2-4,3.46-11.3,10.41-62,59.35-53.16,51-53.16,51-51.76,52.38,7.9,7.73,114,108.82,114.21,109s15.18-2,33.19-4.66c34.65-5.13,33.9-5.06,33-3.27-.2.36-2.84,3.69-5.88,7.44s-5.51,6.86-5.51,7,7.5.2,16.67.2c16.71,0,16.71,0,16.71-1.24Z" transform="translate(86.38 -35.17)"/><path id="path317" class="cls-5" d="M249,584.36c0-.79.62-5.16,3.88-27.51a17.27,17.27,0,0,0,.33-4.18c-.52-.33-.29-2.12.33-3a7.27,7.27,0,0,0,.88-2.81c.22-1.92.22-1.92-22.45-1.73-12.47,0-85.69.62-162.7,1.11-116.53.72-140.09,1-140.55,1.31-2,1.73-4.66-1.31-3.26-3.72S54.13,229.78,53.7,229.59s-8.19-1.67-17.55-3.26c-18.67-3.27-17.88-3.27-18.31-5.75-.36-2-2.45-.65,54-35.31,28.78-17.68,52.7-32.46,53.16-32.89a12.14,12.14,0,0,1,2.28-1.4c.82-.39,11.72-7,24.22-14.72,22.84-14,22.84-14,22.84-15.27-.78-16.74,0-23.46,3.82-33.22,5.38-13.6,27.64-31.68,39-31.68,3.56,0,3.85.29,5.06,5.45.94,4,.94,4,1.76,3.52a7.46,7.46,0,0,0,2.45-9.14c-.92-2.35-1-3.06,0-3.94,2.44-2.65,5.18.22,11.71,12.23,9.17,16.94,13.05,34.46,10.54,49.93-.36,2.51-.91,6.2-1.21,8.16a38.88,38.88,0,0,1-.94,4.76c-.26.62-.92,2.61-1.5,4.41a50.65,50.65,0,0,1-5.52,10.76c-.95,1.41-.95,1.41,6.53,7.25,4.17,3.26,27.77,21.27,52.44,40.13s45.26,34.72,45.68,35.21c1,1,44.9,16.32,46.6,16.32a2.19,2.19,0,0,1,1.3.46,148.65,148.65,0,0,0,15.18,5.51,4.71,4.71,0,0,1,3.85,3.95c0,.72,11.78,29.07,12,28.88s2.22-11.29,4.83-24.93c5.49-28.52,6.53-33.91,7.48-36.65.36-1.07,1.73-7.34,3.06-13.9C441,191.41,443.81,178,447.17,162s6.14-29.63,8.32-40.4c2.55-12.46,1.7-11.42,9.11-11.48a94.61,94.61,0,0,0,30.18-5.84l8.81-3.27c3.26-1.11,6.53-2.44,7.64-3,4.08-2,5.77-.55,3.26,2.84l-2.71,3.72A100.66,100.66,0,0,1,497.1,121c-2.16,1.83-3.56,1.73,31.19,2.22,13.68.16,28.46.42,32.63.52,8.78.23,7.61-.42,13.84,7.77l3.43,4.47,3.26,4.37c1.5,2,1.7,3,.78,4.14s-.58.72-41-.29c-22.19-.56-40.4-1-40.46-.91a104,104,0,0,0,10.51,9.49l8.51,7.57c2,1.8,4.41,3.92,5.35,4.7a10.53,10.53,0,0,1,2.22,2.35c1,1.86,1,1.76-4.6,8.48-.72.85-2.35,2.81-3.59,4.34l-4.76,5.65L510,191.18c-1.14,1.37-2.83,3.46-3.81,4.6l-3.76,5-9.23,11.1-3.26,4.08c-2.19,2.67-2.09,2.64-6.53,1.43-2.28-.62-2.28-.62-1.76,7.74.32,4.56.78,12.82,1.08,18.3s1.82,29.57,3.45,53.48,4.05,60.37,5.42,81,2.64,37.76,2.81,38.08a4.92,4.92,0,0,1,0,2.29c-.2,1.66-16.12,44.83-17,46.27-.45.72-.45.72-35.14.72s-34.69,0-34.52,1.07.35,4.11.55,7.83c.39,6.79.39,6.79,21.86,25.85,25.16,22.35,23.47,20.75,23.76,22.29.49,2.64-1.44,3.26-5.09,2s-29.37-10-29.37-9.79S425.44,520.59,433,528c10,9.79,13.74,13.57,13.74,14.1,0,1.63-.52,1.69-14.36,1.89-7.08,0-13.05.19-13.05.26s1,8.16,2.44,18.08c3.46,24.24,1.06-.76-.54-.76-.72,0-1.34,0-1.34-.26s1,15.18-.4,5-2.84-20.17-3.1-22.22c-1.83-14.43-1.79-14.33-6.1-14.33a4.25,4.25,0,0,1-1.54-.29c-.58-.36-49.46-10.28-49.63-10.09a46,46,0,0,0-.78,5.49l-1,7.67c-.33,2.28-3.43,27.08-3.75,30,0,.78-.46,3.66-.82,6.36s-.65,5.36-.65,5.91,0,1,28.19,5.38L405.68,579c1.93.32-10,6.28-74.41,6.28-82.2,0-82.2,0-82.2-.85Zm103.47-22.58c.92-6.24,3.27-25.95,3.07-26.11s-93.81-15.24-94.27-14.91a195.72,195.72,0,0,0-3.26,22,.78.78,0,0,1,0,.78,37,37,0,0,0-1.37,7.74s93.48,11.87,94.63,11.91,1-.23,1.2-1.37Zm96.36-41c0-.46-40.07-36.13-41.27-36.78a8.27,8.27,0,0,1-1.7-1.53c-1.34-1.5-18.11-16.32-20.79-18.37a141.37,141.37,0,0,1-11.94-10.61c-2.15-2.09-4.28-4-4.7-4.31-1-.65-.65-1.24,5.87-9.3,4.38-5.41,5-6.52,4.18-6.52s-34.62,5.06-48.29,7.21c-8,1.27-14.82,2.25-15.24,2.22s-7.18-6.3-19.06-17.82c-10.05-9.79-35.14-33.77-55.73-53.45L199.4,332.74l-13.83-13.25A110.07,110.07,0,0,1,175,308.65a.59.59,0,0,0-.49-.62c-.26,0-.49.3-.49.66,0,.94,2.12.58-45.2,7.53C83,323,82,323.08,82.78,322.33s16.31-2.74,44.8-6.89c50.91-7.44,45.1-6.52,46.14-8a10.57,10.57,0,0,1,1.5-1.89c.39-.36,2.29-2.55,4.24-4.9,3.56-4.21,3.56-4.21.3-26.95-1.8-12.5-3.26-22.84-3.59-23.14s-91-17.36-91.37-17S26,375.06,26,376.07s0,1,3.26,2.09c6.2,2,49.21,16.64,135.39,46.07L328,480c43,14.69,78.48,26.7,78.9,26.7a2,2,0,0,1,1.21.42c.23.23,8.39,3.26,18.08,6.53l19.8,6.75c2.48.88,2.94,1,2.91.39Zm34.36-80.08c8.13-21.73,8.13-21.73,1.83-115-7.89-117-7.57-112.25-7.11-112.74s.52-.26,1,0a7.63,7.63,0,0,0,2.22.88c.88.19,2.41.62,3.26.91,1.76.56,1.76.56,2.38-.26s1.27-1.53,2.06-2.41c2.64-3.27,4.92-5.85,6.52-7.74.85-1,1.9-2.32,2.35-2.8s3-3.5,6.1-7.31c2.58-3.27,5.19-6.2,6.2-7.35l2.32-2.8c2.12-2.65,5.65-6.89,6.23-7.51s1.15-1.3,1.93-2.28,2.12-2.51,2.87-3.27a6.64,6.64,0,0,0,1.4-2A196.93,196.93,0,0,0,508,153.79l-8.91-7.8a48.56,48.56,0,0,0-5.74-4.67c-.82,0-.92-.65,0-.95a1.92,1.92,0,0,1,1,0s17.23.59,38,1.08l42.19,1.08c5,0,5.06,0,3.56-1.73l-3.59-4.57c-8.09-10.51-6-9.37-18-9.59-5.9,0-22.55-.4-37-.59-32.64-.43-34.79-.59-31.36-2,4.63-2,16.31-13.61,20.85-20.69,1.27-2,.91-2.19-1.8-1a111.44,111.44,0,0,1-41.34,10.48c-5.38.19-5.38.19-5.84,2-.23,1-1.37,6.36-2.51,11.94s-3.07,14.78-4.25,20.46-3.1,14.85-4.27,20.43-3.07,14.78-4.24,20.46l-4.08,19.77c-1.05,5.22-2.06,10.08-2.25,10.8-1.6,5.61-4.41,18.34-6.53,28.91-1.34,7-8.19,42.59-15.21,79.2C404,393.5,404,393.5,407.75,406.55c4,14.75,3.76,13.77,3.27,13.77a61,61,0,0,1-3.46-11.23c-1.67-6.16-3.27-11.81-3.69-12.56-.95-2.06-1.4.59,9.33-55.47,5.52-28.65,10-52.44,10-52.83a75.87,75.87,0,0,0-6.2-14.3,184.64,184.64,0,0,0-9.79,17.27L397,310c-.89,1.53-.89,1.53,3.94,76.55,2.65,41.25,4.9,75.05,5,75.41s7.22.43,34.82.36c34.72,0,34.72,0,42.81-21.86Zm-7.73-241.8c-.19-.26-.88-5.58-1.53-11.88s-1.5-13.44-1.83-15.85A80,80,0,0,1,470.7,155c.85-.85.72-1.6,3.26,19.57,2.68,25,2.74,25.82,1.47,24.25Zm-4-44.8a32.28,32.28,0,0,1,5.32-3.82l9.56-6.13c4.43-2.87,4.73-3,4.73-2.35a11.71,11.71,0,0,1-3,2.38c-1.67,1-5.84,3.75-9.24,6-6.36,4.12-7.37,4.67-7.37,3.89ZM403.05,446.65c0-.65-2.21-35.31-4.92-76.94s-5.26-81.84-5.75-89.31-.91-13.91-1-14.33c-.2-.91-19.58-21.86-23.7-25.65-7.27-6.52-3.65-4.93-29-13.67-22.48-7.77-22.48-7.77-24.27-6.2-4,3.46-11.3,10.41-62,59.36-53.16,51-53.16,51-51.76,52.34,7.9,7.73,114,108.82,114.21,109s15.18-2,33.19-4.66c34.65-5.13,33.9-5.06,33-3.27-.2.36-2.84,3.69-5.88,7.44s-5.51,6.86-5.51,7,7.5.2,16.67.2c16.71,0,16.71,0,16.71-1.24Zm-62-221c0-.23-.32-.58-.68-.85s-37.1-28.29-93.16-71.26c-6.17-4.73-11.36-8.62-11.52-8.62a11.32,11.32,0,0,0-2.32,2.16c-18.86,20.16-46.6,10-56-20.56-.46-1.44-.85-2.19-1.11-2.12-.91.19-46.24,28.26-46.24,28.62s.85.65,1.86,1l54.72,18.86,86.87,30,37.79,13.06,15.85,5.48c6.53,2.28,12.34,4.27,12.6,4.44s1.31.35,1.31,0Zm-98.22-98.48a47.13,47.13,0,0,0,2-15.79,50.43,50.43,0,0,0-4-21.38c-1.24-2.83-.49-2.54-9.79-3.75-7-.91-11.84-1.66-29-4.31-4.5-.68-4.5-.68-7.08.33a54,54,0,0,0-13.47,8.42c-4,4.24-6.24,21.83-4,30.77.27,1.11-.35,1.31,19.06-6.53,18-7.34,18-7.34,30.87,2.19,7,5.22,13,9.79,13.48,10.12.88.84,1.69.78,1.89,0Zm-12.66-12.27c-4.3-1.08-6.52-9.4-4.17-15.3,3.78-9.33,11.45-10.57,14-2.25S236.24,116.46,230.17,114.92ZM197,108.4c-5.19-1.11-7.64-10-4.73-17.17,4.21-10.24,13.9-7,13.9,4.63,0,7.22-4.63,13.38-9.17,12.4ZM411.54,571.76c-.65-.23-31.52-4.21-32.63-4.21a.29.29,0,0,1,0-.42c.19-.23.81-6.53,1.6-14.07s1.5-13.83,1.63-14,25.78,3.26,27.64,4.18c1,.39,1,.39,1.73,12.27.42,6.52.88,12.79,1,13.87C412.84,571.7,412.52,572.09,411.54,571.76Z" transform="translate(86.38 -35.17)"/><path id="path315" class="cls-6" d="M249.2,584.32c0-.52.81-7.8,2-16.31s2.09-15.34,2-15.44a4.53,4.53,0,0,1,.33-3,7.15,7.15,0,0,0,.88-2.71c.22-1.92.22-1.92-24.25-1.69l-162.54,1c-118.12.72-138.19.91-138.91,1.31-2.38,1.27-5.06-1.7-3.26-3.63,0-.19,1.27-2.74,2.48-5.71S-42,464.76-8,381.55,54,230.21,54,230s-4.11-1.24-17.23-3.69C17.22,222.67,18,223,18,220.13c0-2.09-4.21.65,53.81-35,28.78-17.68,52.8-32.63,53.32-33a12.14,12.14,0,0,1,2.28-1.4c.72-.33,11.56-6.88,24.05-14.62,22.85-14,22.85-14,22.85-15.47,0-.78,0-3.91-.3-7-.62-14.88,2.78-27,10.09-35.73,10.83-13,24.53-22.06,33-22.06,3.49,0,3.75.27,5,5.45.95,4,.95,4,2.15,3.27a7.58,7.58,0,0,0,2.09-8.94c-1.3-3-.75-4.67,1.63-4.67,4.12,0,15.67,21.93,18.9,35.89a75.94,75.94,0,0,1,1.53,26.83c-.39,2.35-.78,5-.88,6.07a56.94,56.94,0,0,1-7.8,22c-1.21,1.86-1.21,1.86,1.5,4l97.41,74.59c1.89,1.44,4.17,3.27,5.09,4,1.69,1.43,44.9,16.8,47.18,16.8a2.31,2.31,0,0,1,1.34.46,81.53,81.53,0,0,0,8.35,3.26c8.36,2.84,10,3.79,10,5.65,0,.65,12.14,29.79,12.33,29.59s1.93-9.79,4.18-21.5c5.48-28.52,7.28-37.36,8.06-39.65.36-1.07,1.67-7,2.91-13s3.26-15.76,4.37-21.31,3.1-14.88,4.31-20.62,3.1-15,4.24-20.62c7.08-34.4,6.52-31.62,7.54-32.64a18,18,0,0,1,6.16-.52,94.73,94.73,0,0,0,28.91-5.48c11.2-3.88,16.74-5.91,18.05-6.53,3.26-1.89,4.73,0,2.41,3.27-3.75,5.41-4.76,6.82-6.52,8.81a89.06,89.06,0,0,1-9.79,10.11,14.83,14.83,0,0,0-2.55,2.52s16.32.42,36.22.75c41.38.68,37,.32,39.16,3.26.88,1.24,2.61,3.49,3.82,5l7.6,10c.95,1.3.95,2.18,0,3.26s-.78.72-41-.3c-22.09-.52-40.2-.94-40.27-.88a33.54,33.54,0,0,0,3.72,3.53c2.16,1.86,5.35,4.7,7.18,6.33,6.36,5.71,13.38,11.91,14.29,12.59,2.35,1.83,2.39,3.53.17,6.07-1.63,1.9-4,4.7-7.57,9.07-1.57,1.93-3.53,4.28-7.87,9.37-1.27,1.5-3.26,3.72-4.11,5l-3.26,4c-3.89,4.57-11,13-13.77,16.58-1.83,2.21-2.68,2.61-4.47,2.08-4.93-1.46-4.57-2.15-3.95,7.12.29,4.6.72,11.81.91,16,.36,7,2.35,37.27,9.37,140.84,1.34,20.13,2.38,37.1,2.28,37.66-.26,1.37-16.31,44.54-16.87,45.12s-5.71.46-35,.46c-34.66,0-34.66,0-34.5,1.08s.33,4.08.56,7.76c.36,6.53.36,6.73,1.24,7.57s10.21,9.14,21.63,19.26,21.18,18.79,21.64,19.32c2.05,2.15,1.21,5.12-1.37,4.79-1,0-27.48-9.1-31.23-10.57-1.7-.65-2.71-1.73,13.28,13.84,17.2,16.73,17.29,15.3-1,15.59-7.08,0-13,.23-13,.3s1,8.15,2.45,18.07c3.26,23.4,1.05-.75-.61-.75-.69,0-1.27,0-1.27-.26s1,15.18-.41,5-2.84-20.17-3.1-22.23c-1.83-14.42-1.79-14.32-6.1-14.32a3.66,3.66,0,0,1-1.53-.33c-.59-.32-49.47-10.24-49.64-10.05a45.67,45.67,0,0,0-.78,5.48L357,533c-.33,2.29-3.43,27.09-3.75,30,0,.78-.46,3.65-.82,6.36s-.65,5.35-.65,5.91,0,1,28.19,5.38l25.38-1.1c2.44.4,2.44.4-1.8.43s-52.62-2-53.44-2.72a49.59,49.59,0,0,1,.59-6.1,57.67,57.67,0,0,0,.59-6c-.16,0-94.93-12-95-11.88s-1.15,7.38-2.45,16.32c-2.38,16.31-2.38,16.31-3.59,16.31s-1.21,0-1.37-.91Zm103.24-22.54c.92-6.24,3.27-25.95,3.07-26.11s-93.81-15.24-94.27-14.91a195.72,195.72,0,0,0-3.26,22,.78.78,0,0,1,0,.78,37,37,0,0,0-1.37,7.74s93.48,11.87,94.63,11.91,1-.23,1.2-1.37Zm3.27-28.95c0-.59.52-4,1-7.54.88-7,1.1-7.86,2.21-7.6,3.59.85,49.15,9.79,49.24,9.79s-1-18.63-1.2-18.89-19.58-6.82-42.91-14.82l-89.12-30.48-49.66-17c-2.58-.89-3.27-1-2.88-.53l19.32,36.52c10.48,19.81,19.19,36.15,19.35,36.32s91.66,15.17,93.65,15.17c.85,0,.85,0,1.08-1Zm93.09-12.07c0-.46-40.07-36.13-41.27-36.78a8.27,8.27,0,0,1-1.7-1.53c-1.11-1.24-17.85-16.12-20.14-17.85s-8.71-7.47-12.75-11.32c-2.06-2-4.12-3.82-4.54-4.12-1-.65-.65-1.2,5.87-9.3,4.38-5.41,5-6.52,4.18-6.52s-34.62,5.06-48.29,7.21c-8,1.27-14.82,2.25-15.24,2.22s-7.18-6.3-19.06-17.82c-10.05-9.79-35.14-33.77-55.73-53.45L199.4,332.74l-13.83-13.25A110.07,110.07,0,0,1,175,308.65a.59.59,0,0,0-.49-.62c-.26,0-.49.3-.49.66,0,.94,2.12.58-45.2,7.53C83,323,82,323.08,82.78,322.33s16.31-2.74,44.8-6.89c50.91-7.44,45.1-6.52,46.14-8a10.57,10.57,0,0,1,1.5-1.89c.39-.36,2.29-2.55,4.24-4.9,3.56-4.21,3.56-4.21.3-26.95-1.8-12.5-3.26-22.84-3.59-23.14s-91-17.36-91.37-17S26,375.06,26,376.07s0,1,3.26,2.09c6.2,2,49.21,16.64,135.39,46.07L328,480c43,14.69,78.48,26.7,78.9,26.7a2,2,0,0,1,1.21.42c.23.23,8.39,3.26,18.08,6.53l19.8,6.75c2.48.88,2.94,1,2.91.39Zm-43.95-48.17c-.26-4-.62-9.43-.82-12.1s-.42-6.27-.55-7.93c-.2-3-.2-3-16.32-3s-16.31,0-14.58,1.44c10.5,9.4,32.63,29,32.63,28.91S405.21,476.61,404.85,472.59Zm78.31-31.91c8.13-21.73,8.13-21.73,1.83-115-7.89-117-7.57-112.25-7.11-112.74s.52-.26,1,0a7.63,7.63,0,0,0,2.22.88c.88.19,2.41.62,3.26.91,1.76.56,1.76.56,2.38-.26s1.27-1.53,2.06-2.41c2.64-3.27,4.92-5.85,6.52-7.74.85-1,1.9-2.32,2.35-2.8s3-3.5,6.1-7.31c2.58-3.27,5.19-6.2,6.2-7.35l2.32-2.8c2.12-2.65,5.65-6.89,6.23-7.51s1.15-1.3,1.93-2.28,2.12-2.51,2.87-3.27a6.64,6.64,0,0,0,1.4-2A196.93,196.93,0,0,0,508,153.79l-8.91-7.8a48.56,48.56,0,0,0-5.74-4.67c-.82,0-.92-.65,0-.95a1.92,1.92,0,0,1,1,0s17.23.59,38,1.08l42.19,1.08c5,0,5.06,0,3.56-1.73l-3.59-4.57c-8.09-10.51-6-9.37-18-9.59-5.9,0-22.55-.4-37-.59-32.64-.43-34.79-.59-31.36-2,4.63-2,16.31-13.61,20.85-20.69,1.27-2,.91-2.19-1.8-1a111.44,111.44,0,0,1-41.34,10.48c-5.38.19-5.38.19-5.84,2-.23,1-1.37,6.36-2.51,11.94s-3.07,14.78-4.25,20.46-3.1,14.85-4.27,20.43-3.07,14.78-4.24,20.46l-4.08,19.77c-1.05,5.22-2.06,10.08-2.25,10.8-1.6,5.61-4.41,18.34-6.53,28.91-1.34,7-8.19,42.59-15.21,79.2C404,393.5,404,393.5,407.75,406.55c4,14.75,3.76,13.77,3.27,13.77a61,61,0,0,1-3.46-11.23c-1.67-6.16-3.27-11.81-3.69-12.56-.95-2.06-1.4.59,9.33-55.47,5.52-28.65,10-52.44,10-52.83a75.87,75.87,0,0,0-6.2-14.3,184.64,184.64,0,0,0-9.79,17.27L397,310c-.89,1.53-.89,1.53,3.94,76.55,2.65,41.25,4.9,75.05,5,75.41s7.22.43,34.82.36c34.72,0,34.72,0,42.81-21.86Zm-7.73-241.8c-.19-.26-.88-5.58-1.53-11.88s-1.5-13.44-1.83-15.85A80,80,0,0,1,470.7,155c.85-.85.72-1.6,3.26,19.57,2.68,25,2.74,25.82,1.47,24.25Zm-4-44.8a32.28,32.28,0,0,1,5.32-3.82l9.56-6.13c4.43-2.87,4.73-3,4.73-2.35a11.71,11.71,0,0,1-3,2.38c-1.67,1-5.84,3.75-9.24,6-6.36,4.12-7.37,4.67-7.37,3.89Zm-68.23,292c0-1.11-2.62-39.65-5.55-85.62s-5.58-86.18-5.81-89.38c-.39-5.78-.39-5.78-11.32-17.56-6-6.52-11-11.81-11.13-11.81a54.33,54.33,0,0,1-4.05-3.69c-3.91-3.68-3.91-3.68-26.1-11.32L316.39,219c-.66-.23-79.33,74.79-113.1,107.88-4.25,4.11-4.25,4.11,53.61,59.39,42.88,41,58,55.24,58.51,55.18l32.86-4.83C366,434,380.57,431.9,380.73,432c.76.46,0,1.8-5.58,8.48-5.84,7.22-5.84,7.22,6.17,7.38l17,.26C403.38,448.19,403.38,448.19,403.19,446.13Zm-62-220.49a2.17,2.17,0,0,0-.85-.85c-.56-.36-37.2-28.39-93.13-71.27-6.17-4.73-11.36-8.61-11.52-8.61a11.56,11.56,0,0,0-2.32,2.15c-18.86,20.17-46.6,10-56-20.55-.46-1.44-.85-2.19-1.11-2.13-.91.2-46.24,28.26-46.24,28.62s.85.66,1.86,1l54.72,18.86,86.87,30,37.79,13,15.85,5.49c6.53,2.28,12.34,4.27,12.6,4.43.75.43,1.63.33,1.44,0Zm-98.36-98.45a47.13,47.13,0,0,0,2-15.79,50.43,50.43,0,0,0-4-21.38c-1.24-2.83-.49-2.54-9.79-3.75-7-.91-11.84-1.66-29-4.31-4.5-.68-4.5-.68-7.08.33a54,54,0,0,0-13.47,8.42c-4,4.24-6.24,21.83-4,30.77.27,1.11-.35,1.31,19.06-6.53,18-7.34,18-7.34,30.87,2.19,7,5.22,13,9.79,13.48,10.12.88.84,1.69.78,1.89,0Zm-12.66-12.27c-4.3-1.08-6.52-9.4-4.17-15.3,3.78-9.33,11.45-10.57,14-2.25S236.24,116.46,230.17,114.92Zm3.46-2.25c6.53-3.26,6.86-19.09.59-19.09-2.06,0-6.2,3.75-6.2,5.61a1.41,1.41,0,0,1-.29.79,14.69,14.69,0,0,0-1,5.45C226.71,111.46,229.78,114.63,233.63,112.67ZM197,108.26c-5.19-1.1-7.64-10-4.73-17.16,4.21-10.25,13.9-7,13.9,4.63C206.19,103.08,201.56,109.24,197,108.26Zm2.61-2.12c5.29-2.74,6.53-14.45,2-18.47-4-3.52-9.49,3.27-8.84,10.94C193.33,104.61,196.27,107.87,199.63,106.14Zm46.27-6.52a90.61,90.61,0,0,0-12.79-37.46c-3.69-6.37-3.52-6.2-3.26-3.27.42,5.09-.79,7.48-4.7,9.27s-4.47,1.76-6-4.93c-1.15-5-1.73-5.32-7.54-3.26s-18.57,11.45-20.1,14.49a23.9,23.9,0,0,1-2.48,3.1,43.5,43.5,0,0,0-7.15,10.93,14.47,14.47,0,0,0,2.51-1.57,39.88,39.88,0,0,1,12.7-6.52c1.07-.26,30.61,3.69,40.36,5.38.92,0,1.08,0,.88-.32s1.15.26,2.52,1.73a33.93,33.93,0,0,1,4.66,14.48c.23,2.78.53,3.89.72,2.55a35,35,0,0,0-.36-4.8ZM411.54,571.89c-.65-.23-31.52-4.21-32.63-4.21a.29.29,0,0,1,0-.42c.19-.23.81-6.53,1.6-14.07s1.5-13.83,1.63-14,25.78,3.26,27.64,4.18c1,.39,1,.39,1.73,12.27.42,6.52.88,12.79,1,13.87C412.84,571.83,412.52,572.22,411.54,571.89Zm-.46-2.64c0-.59-.49-6.53-.88-12.86s-.72-11.81-.75-11.84-24.8-4-25.52-4a176.48,176.48,0,0,0-3.26,25.81s28.36,3.82,30,3.92c.36-.07.55-.26.36-1.11Z" transform="translate(86.38 -35.17)"/><path id="path313" class="cls-7" d="M249.2,584.32c0-.52.81-7.8,2-16.31s2.09-15.34,2-15.44a4.53,4.53,0,0,1,.33-3,7.15,7.15,0,0,0,.88-2.71c.22-1.92.22-1.92-24.25-1.69l-162.54,1c-118.12.72-138.19.91-138.91,1.31-2.38,1.27-5.06-1.7-3.26-3.63,0-.19,1.27-2.74,2.48-5.71S-42,464.76-8,381.55,54,230.21,54,230s-4.11-1.24-17.23-3.69C17.22,222.67,18,223,18,220.13c0-2.09-4.21.65,53.81-35,28.78-17.68,52.8-32.63,53.32-33a12.14,12.14,0,0,1,2.28-1.4c.72-.33,11.56-6.88,24.05-14.62,22.85-14,22.85-14,22.85-15.47,0-.78,0-3.91-.3-7-.62-14.88,2.78-27,10.09-35.73,10.83-13,24.53-22.06,33-22.06,3.49,0,3.75.27,5,5.45.95,4,.95,4,2.15,3.27a7.58,7.58,0,0,0,2.09-8.94c-1.3-3-.75-4.67,1.63-4.67,4.12,0,15.67,21.93,18.9,35.89a75.94,75.94,0,0,1,1.53,26.83c-.39,2.35-.78,5-.88,6.07a56.94,56.94,0,0,1-7.8,22c-1.21,1.86-1.21,1.86,1.5,4l97.41,74.59c1.89,1.44,4.17,3.27,5.09,4,1.69,1.43,44.9,16.8,47.18,16.8a2.31,2.31,0,0,1,1.34.46,81.53,81.53,0,0,0,8.35,3.26c8.36,2.84,10,3.79,10,5.65,0,.65,12.14,29.79,12.33,29.59s1.93-9.79,4.18-21.5c5.48-28.52,7.28-37.36,8.06-39.65.36-1.07,1.67-7,2.91-13s3.26-15.76,4.37-21.31,3.1-14.88,4.31-20.62,3.1-15,4.24-20.62c7.08-34.4,6.52-31.62,7.54-32.64a18,18,0,0,1,6.16-.52,94.73,94.73,0,0,0,28.91-5.48c11.2-3.88,16.74-5.91,18.05-6.53,3.26-1.89,4.73,0,2.41,3.27-3.75,5.41-4.76,6.82-6.52,8.81a89.06,89.06,0,0,1-9.79,10.11,14.83,14.83,0,0,0-2.55,2.52s16.32.42,36.22.75c41.38.68,37,.32,39.16,3.26.88,1.24,2.61,3.49,3.82,5l7.6,10c.95,1.3.95,2.18,0,3.26s-.78.72-41-.3c-22.09-.52-40.2-.94-40.27-.88a33.54,33.54,0,0,0,3.72,3.53c2.16,1.86,5.35,4.7,7.18,6.33,6.36,5.71,13.38,11.91,14.29,12.59,2.35,1.83,2.39,3.53.17,6.07-1.63,1.9-4,4.7-7.57,9.07-1.57,1.93-3.53,4.28-7.87,9.37-1.27,1.5-3.26,3.72-4.11,5l-3.26,4c-3.89,4.57-11,13-13.77,16.58-1.83,2.21-2.68,2.61-4.47,2.08-4.93-1.46-4.57-2.15-3.95,7.12.29,4.6.72,11.81.91,16,.36,7,2.35,37.27,9.37,140.84,1.34,20.13,2.38,37.1,2.28,37.66-.26,1.37-16.31,44.54-16.87,45.12s-5.71.46-35,.46c-34.66,0-34.66,0-34.5,1.08s.33,4.08.56,7.76c.36,6.53.36,6.73,1.24,7.57s10.21,9.14,21.63,19.26,21.18,18.79,21.64,19.32c2.05,2.15,1.21,5.12-1.37,4.79-1,0-27.48-9.1-31.23-10.57-1.7-.65-2.71-1.73,13.28,13.84,17.2,16.73,17.29,15.3-1,15.59-7.08,0-13,.23-13,.3s1,8.15,2.45,18.07c3.26,23.3,1.05-.75-.55-.75s.84,23.34-5-18.89c-1.86-13.51-1.6-13.05-5.94-13.05a3.5,3.5,0,0,1-1.56-.33c-.69-.39-49.44-10.24-49.67-10.05s-1.3,9.5-2.77,20.88-3,23.6-3.27,27.12-.81,6.82-.81,7.38-.1,1.62,30.41,5.71c30.34,4.06,25-1.88,21.13-1s-52.39-2-53.11-2.69a49.94,49.94,0,0,1,.59-6.11,57.21,57.21,0,0,0,.59-6c-.17,0-94.93-12-95-11.88s-1.14,7.38-2.44,16.32c-2.38,16.31-2.38,16.31-3.59,16.31s-1.21,0-1.37-.91Zm103.24-22.38c.66-3.69,3.27-26.11,3-26.3s-92.58-15.11-93.92-15.14A119.61,119.61,0,0,0,258,542.42a.71.71,0,0,1,0,.72,47.37,47.37,0,0,0-1.31,7.93S349.83,562.92,351.3,563,352.28,562.92,352.44,561.94Zm3.27-29.11c0-.59.52-4,1-7.54.88-7,1.1-7.86,2.21-7.6,3.59.85,49.15,9.79,49.24,9.79s-1-18.63-1.2-18.89-19.58-6.82-42.91-14.82l-89.12-30.48-49.66-17c-2.58-.89-3.27-1-2.88-.53l19.32,36.52c10.48,19.81,19.19,36.15,19.35,36.32s91.66,15.17,93.65,15.17c.85,0,.85,0,1.08-1Zm93.13-12.07c0-.23-7.12-6.53-15.73-14.33s-17.85-15.82-20.53-18.21a48.1,48.1,0,0,0-5.19-4.34,4.66,4.66,0,0,1-1.46-1.3c-1.21-1.44-17.43-15.83-21.21-18.83a159.12,159.12,0,0,1-12.27-10.93c-2-1.89-3.89-3.62-4.21-3.82-.85-.46-.69-.68,5.58-8.52,4.92-6.1,5.48-7,4.57-7s-38.8,5.68-51.43,7.67c-6.33,1-11.75,1.79-12,1.79a151.78,151.78,0,0,1-11.42-10.54c-15.67-15.2-22.62-21.89-64.19-61.57-20.52-19.58-40.4-38.57-44.15-42.19L181.65,315.6a50.82,50.82,0,0,1-6.53-6.91c0-.88-.91-.79-1,0s-.42.78-1.08.94c-2.51.59-89.8,13.06-90,13.06s2.31-1,45-7.25c44.78-6.52,44.78-6.52,45.69-7.86.55-.72,1.34-1.67,1.76-2.12a43.91,43.91,0,0,0,7.41-9.79c0-1.15-6.53-45.23-6.53-45.36S85,233.37,85,233.6,26,375.42,26,376.27s4.57,2.87,6.23,2.87c.26,0,13.38,4.4,29.11,9.79l252.14,86.14C364.84,492.63,407.2,507,407.56,507s.72,0,.78.29,8.06,3,17.75,6.23,18.57,6.33,19.58,6.76C448,521.18,448.84,521.31,448.84,520.76Zm-44-48.17c-.26-4-.62-9.43-.82-12.1s-.42-6.27-.55-7.93c-.2-3-.2-3-16.32-3s-16.31,0-14.58,1.44c10.5,9.4,32.63,29,32.63,28.91S405.21,476.61,404.85,472.59Zm78.31-31.84c8.13-21.67,8.13-21.67,1.83-115.29-8.12-121.23-7.57-112.09-7.08-112.58s.46-.33.65,0a37.75,37.75,0,0,0,7.54,2.38,19.39,19.39,0,0,0,2.42-2.54c2.87-3.27,8.48-10.12,10.7-12.83,1.63-2,3.26-3.81,10.73-13,1.21-1.43,2.71-3.26,3.27-3.91s1.83-2.16,2.61-3.27,2.12-2.61,3-3.59a53.38,53.38,0,0,0,5.84-7.4,75.75,75.75,0,0,0-8.91-8.36l-8.45-7.47c-12-10.7-13.25-11.75-13.8-11.75a.59.59,0,0,1-.56-.55c0-.46.59-.49,5.32-.3,2.9,0,20.46.56,39.16,1l37.69.95c4.57.19,4.66,0,2.93-2-.58-.68-2.93-3.69-5.22-6.53s-4.47-5.8-4.89-6.29-.75-.88-23.63-1.24c-52.5-.82-56.51-.92-56.91-1.31s-.22-.46,0-.59c4.21-1.5,14.59-11.48,21-20.13,1.95-2.68,2-2.84.35-2.74-.71,0-1.24.16-1.14.26a83.92,83.92,0,0,1-16.31,6.53,95.79,95.79,0,0,1-25.32,4.7c-5.62.19-5.62.19-6.14,2.51l-2.32,11.16c-1,4.86-2.74,13.41-3.91,19s-3,14.42-4.05,19.58-2,9.79-2.15,10.24-1.08,4.9-2.12,10.06c-5.65,27.67-7,33.93-9.34,43.23-1.4,5.61-.39.52-18,92.05C404,393.5,404,393.5,407.75,406.55c2,7.31,3.49,13.41,3.27,13.57-.4.66-.92-.91-3.85-11.58-1.7-6.2-3.27-11.85-3.56-12.56-.75-2-1.24.94,9.59-55.48,5.78-30.05,10-52.89,9.79-53.09s-1.5-3.26-3-6.82c-1.89-4.53-2.84-6.53-3.26-6.53a169.15,169.15,0,0,0-10,17.27c-5.15,9.46-9.78,17.91-10.27,18.79-.85,1.54-.85,1.54,4,76.95s4.89,75.41,39.68,75.31,34.78,0,42.88-21.76Zm-7.79-242.16c-.17-.46-1.08-7.7-2-16.32s-2-18-2.39-21.17c-.52-4.48-.62-5.88-.29-6.17s.85,0,1.4,4.89c4,35.9,4.34,38.67,4,39.16S475.63,199.18,475.37,198.59Zm-3.95-44.48a20.3,20.3,0,0,1,3.68-2.71l9.57-6.16a26.23,26.23,0,0,1,6.2-3.53c.39.39,1.33-.29-9.44,6.53-9.29,6.1-10,6.49-10,5.84ZM403.18,446.16c0-1.11-2.61-39.64-5.54-85.62s-5.58-86.18-5.81-89.38c-.39-5.78-.39-5.78-11.32-17.56-6-6.52-11-11.81-11.13-11.81a54.73,54.73,0,0,1-4.05-3.72c-3.91-3.68-3.91-3.68-26.1-11.32L316.39,219c-.66-.23-79.33,74.79-113.1,107.88-4.25,4.11-4.25,4.11,53.61,59.39,42.88,41,58,55.24,58.51,55.18l32.86-4.83C366,434,380.57,431.9,380.73,432c.76.46,0,1.8-5.58,8.48-5.84,7.22-5.84,7.22,6.17,7.38l17,.26c5.09.07,5.09.07,4.9-2ZM341,225.61a22,22,0,0,0-2.87-2.42c-1.44-1-25.06-19.09-52.44-40.1s-50-38.18-50.15-38.18a22.14,22.14,0,0,0-3,2.71c-18.69,18.76-44.93,9.53-54.59-19.19a19.68,19.68,0,0,0-1.7-4.11c-.58,0-46.33,28.29-46.33,28.68S111,146.87,257.16,197.35l57.89,19.94c19.77,6.82,23.49,8.12,24.08,8.45s2.19.49,1.86,0ZM243.52,124.45a58.79,58.79,0,0,0-2.19-33.19c-1.5-4-.65-3.59-11-5-5-.68-12.4-1.76-16.32-2.38-18.6-2.87-17-2.9-23.07.42-9.46,5.16-12,8.32-13.57,17-1.31,7.12-.82,21.08.68,21.08.26,0,8.49-3.26,18.24-7.24s17.88-7.25,18.08-7.28,25.19,18.27,26.46,19.58,1.77.75,2.68-3ZM230.47,115c-6.53-1.3-7.18-14.45-1.31-20.46,8.58-8.68,15.63,7,7.8,17.3a7.65,7.65,0,0,1-6.46,3.1Zm3.26-2.21c6.53-3.27,6.85-19.09.59-19.09-2.06,0-6.2,3.75-6.2,5.61a1.39,1.39,0,0,1-.3.78,14.75,14.75,0,0,0-1,5.45C226.81,111.53,229.88,114.69,233.73,112.74ZM196.3,108c-5.22-2-6.92-12.24-3.26-18.57,4.18-6.92,10.34-5.74,12.43,2.35S202,110.22,196.3,108Zm3.27-1.9c5.28-2.74,6.52-14.45,2-18.47-4.05-3.52-9.5,3.27-8.84,10.94.58,6,3.52,9.26,6.88,7.53Zm46.27-6.52a90.71,90.71,0,0,0-12.73-37.46c-3.69-6.37-3.52-6.2-3.26-3.27.42,5.09-.79,7.48-4.7,9.27s-4.47,1.76-6-4.93c-1.15-5-1.73-5.32-7.54-3.26s-18.57,11.45-20.1,14.49a23.9,23.9,0,0,1-2.48,3.1,43.5,43.5,0,0,0-7.15,10.93,14.47,14.47,0,0,0,2.51-1.57,39.88,39.88,0,0,1,12.7-6.52c1.07-.26,30.61,3.69,40.36,5.38.92,0,1.08,0,.88-.32s1.15.26,2.52,1.73a33.93,33.93,0,0,1,4.66,14.48c.23,2.78.53,3.89.72,2.55a35,35,0,0,0-.36-4.8ZM395.55,569.7c-8.88-1.14-16.32-2.15-16.32-2.25s2.65-27.8,3-28.26a239.16,239.16,0,0,1,27.15,4c1.3.42,1.3.42,2.18,13.47.46,7.18.92,13.51,1,14C412.75,572,414,572.05,395.55,569.7Zm15.53-.52c0-.58-.49-6.52-.88-12.85s-.72-11.82-.75-11.85-24.8-4-25.52-4a176.48,176.48,0,0,0-3.26,25.81s28.36,3.82,30,3.91c.36,0,.55-.19.36-1Z" transform="translate(86.38 -35.17)"/><path id="path311" class="cls-8" d="M249.2,584.19c0-.58.81-7.83,2.05-16.12s2.09-15.17,1.93-15.37a3,3,0,0,1,.33-3,7.27,7.27,0,0,0,.88-2.81c.22-1.92.22-1.92-25.06-1.69l-162.54,1c-117.47.72-137.38.91-138.1,1.31-2.8,1.53-4.5-.92-2.93-4.25.35-.75,8.81-21.27,18.76-45.68L8.28,341.87C33.41,280.59,54,230.27,54,230s-3.75-1.17-17.22-3.68c-19.58-3.66-18.83-3.43-18.83-6.17,0-2.09-4.28.68,53.81-35,28.78-17.68,53-32.63,53.77-33.25a5.77,5.77,0,0,1,1.8-1.07c.19,0,10.83-6.53,23.59-14.33,23.23-14.32,23.23-14.32,23.07-16.93-1.21-19.06,1.89-32,9.79-41.54C194.54,65.16,208.28,56,216.7,56c3.59,0,3.81.26,5.05,5.45.95,4,.95,4,2.16,3.26A7.61,7.61,0,0,0,226,55.73c-1-3.07-.43-4.7,1.95-4.7,4.08,0,15.67,22,18.9,35.89a76.46,76.46,0,0,1,1.63,25.85c-.29,2-.75,5.15-1,7a56.07,56.07,0,0,1-7.83,22c-1.11,1.63-1.14,1.76-.59,2.28s23.95,18.47,52.57,40.37,52.21,40.13,52.83,40.56S389.41,241.3,391,241.3a1.86,1.86,0,0,1,1.27.46,79.63,79.63,0,0,0,8.29,3.26c8.42,2.84,10.08,3.79,10.05,5.65,0,.68,12.11,29.79,12.3,29.59s2-10.08,4.37-22.32c5.65-29.36,7.12-36.51,7.93-38.89.36-1.11,1.6-6.53,2.74-12.3s3.1-15.31,4.41-21.41,3.26-15.34,4.24-20.46,3-14.32,4.21-20.46c4.7-22.65,6.53-31.72,6.53-31.95,0-1.46,1.76-2.25,4.53-2a95.06,95.06,0,0,0,32.28-5.74c13.44-4.7,15.85-5.58,17.42-6.37,3.62-1.82,4.83-.29,2.45,3.27l-2.91,4.21a99.61,99.61,0,0,1-13.83,15.4c-2.61,2.25-5.68,2,37.79,2.68,37.49.58,33.61.22,35.89,3.06s5.16,6.82,8,10.54c4.66,6,4.73,6.14,3.26,7.51-.82.72-.82.72-41-.3-22.09-.55-40.24-.94-40.3-.88a124.3,124.3,0,0,0,10.86,9.79c2.88,2.52,6.76,6,8.65,7.7s4.18,3.69,5,4.38c3,2.44,3.26,3.88.94,6.52L523.17,176c-.88,1.07-4.54,5.48-8.16,9.79s-7.34,8.77-8.32,10c-2,2.38-7.44,8.94-9.79,11.72l-3.26,3.95c-6.1,7.47-7.05,8.25-8.32,7s-4.77-1.31-4.64-.62.95,13.54,1.51,24.41c.35,7.4.75,13.05,7.53,113.52,2.35,34.82,4.18,63.76,4.08,64.32-.26,1.37-16.31,44.54-16.87,45.13s-5.77.45-35,.45c-34.69,0-34.69,0-34.5,1.24,0,.66.33,4.18.56,7.77.36,6.53.39,6.53,1.24,7.41s10.21,9.1,21.63,19.25,21.18,18.83,21.67,19.38c2,2.25,1.18,5.06-1.4,4.73-1,0-27.41-9.1-31.23-10.57-1.66-.65-2.74-1.79,13.25,13.8,17.23,16.78,17.33,15.34-1.11,15.63-7,0-12.76.23-12.79.27s1,8.19,2.44,18.11c3.27,22.84,1.06-.76-.57-.76s.84,23.27-4.94-18.89c-1.86-13.51-1.6-13-5.94-13a3.57,3.57,0,0,1-1.57-.33c-.68-.39-49.43-10.24-49.66-10s-1.31,9.5-2.77,20.89-3,23.59-3.27,27.11-.81,6.82-.81,7.38,0,1,29.17,5.51c33.07,4.14,26.6-2.21,22.37-.8-3.49,0-52.26-2.2-52.91-2.85a36,36,0,0,1,.45-6,49.32,49.32,0,0,0,.56-5.94c-.23-.23-94.86-12.07-95.06-11.88s-1.2,7.41-2.51,16.32c-2.35,16.32-2.35,16.32-3.52,16.32s-1.21,0-1.37-1Zm103.24-22.25c.66-3.69,3.27-26.11,3-26.3s-92.58-15.11-93.92-15.14A119.61,119.61,0,0,0,258,542.42a.71.71,0,0,1,0,.72,47.37,47.37,0,0,0-1.31,7.93S349.83,562.92,351.3,563,352.28,562.92,352.44,561.94ZM94.49,543c89.05-.55,162-1,162-1.07s.82-5,1.7-11.1c1.63-11,1.63-11-18.14-48.39-10.87-20.53-19.58-37.43-19.58-37.56a32.24,32.24,0,0,0-4.83-1.89L36.15,381.65c-10.8-3.78-12.24-4.4-11.81-5.12C26,373.23,83.27,233.6,82.81,233.6c-1.24-.52-24.6-4.6-24.83-4.31S-71,543.6-71,543.8-88.24,544.19,94.49,543Zm335.58-2.28c11.52,0,11.52,0,2-9.33-15.14-14.88-22.85-22.16-22.85-22a147.71,147.71,0,0,0,1.37,18.44,10.88,10.88,0,0,0,2.75.75c2.61.49,2.87.72,2.87,2.48a89.45,89.45,0,0,0,1.27,9.79.49.49,0,0,0,.65.23c.26,0,5.68-.2,12-.23Zm-74.23-7.25c0-.39.55-3.81,1-7.6,1-8.09,1-8,2-8,.42,0,11.68,2.22,25,4.93s24.38,4.86,24.48,4.77-.88-18.87-1.05-19.09L250,454.71c-15.21-5.19-27.67-9.4-27.71-9.33s8.65,16.64,19.35,36.87c19.58,36.78,19.58,36.78,55,42.42l47,7.57,11.68,1.9.39-.66Zm93-12.72c0-.23-7.12-6.53-15.73-14.33s-17.85-15.82-20.53-18.21a48.1,48.1,0,0,0-5.19-4.34,4.66,4.66,0,0,1-1.46-1.3c-1.15-1.34-18.15-16.32-20.4-18.18s-9.59-8.25-13.41-11.91c-1.24-1.22-2.53-2.39-3.88-3.49-.85-.46-.69-.68,5.58-8.52,4.92-6.1,5.48-7,4.57-7s-38.8,5.68-51.43,7.67c-6.33,1-11.75,1.79-12,1.79a151.78,151.78,0,0,1-11.42-10.54c-15.67-15.2-22.62-21.89-64.19-61.57-20.52-19.58-40.4-38.57-44.15-42.19L181.65,315.6c-6-5.77-7.47-7.44-6.13-7.14.26,0,5.38,4.79,11.42,10.51s11,10.47,11.06,10.47,25.06-23.95,55.47-53.25,56.59-54.3,58-55.64,2.35-2.42,2-2.55l-72.09-24.83-58-19.94c-30-10.34-54.82-18.82-55-18.82-1,0-107.09,65.58-106.51,65.85s34,6.52,34.75,6.52a1.3,1.3,0,0,0,.85-.55c.46-.62,1.47,0,1.47.68a92.64,92.64,0,0,0,13,2.87l16.32,3.27,3.62.68a8.29,8.29,0,0,1,1.31.2l2.12.36c1.56.19,101.51,18.76,102.23,19s.3-2.55-1-20.2c-2.22-29.37-2.16-27.74-1.27-27.74s.84-1.34,2.8,24.51c1,13.05,1.93,23.85,2.12,24s-.26,1.21-1.4,1.21c-.52,0-5.38-.82-10.77-1.83s-9.79-1.73-10-1.63,1.24,10.08,3,22.19,3.26,22.52,3.26,23.14a1.59,1.59,0,0,1-.78,1.66,43.4,43.4,0,0,0-4.8,5.16,39.87,39.87,0,0,1-4.28,4.63c-.22,0-.45.33-.52.72a1.28,1.28,0,0,1-1.07.94c-2.52.59-89.81,13.06-90,13.06s2.31-1,45-7.25c44.77-6.52,44.77-6.52,45.68-7.86.56-.72,1.34-1.67,1.76-2.12a43.91,43.91,0,0,0,7.41-9.79c0-1.14-6.53-45.23-6.53-45.36S84.74,233.77,84.74,234,26,375.42,26,376.27s4.57,2.87,6.23,2.87c.26,0,13.38,4.44,29.11,9.79l252.14,86.14C364.84,492.63,407.2,507,407.56,507s.72,0,.78.29,8.06,3,17.75,6.23,18.57,6.33,19.58,6.76c2.29.85,3.26,1,3.26.39ZM183.54,301c0-.19.2-.29.46-.19a1.23,1.23,0,0,0,.62,0h0s-1.17.75-1.17.23Zm221.9,178.69c0-.26-.69-10.8-1.31-20.49-.72-10.87,1.54-9.56-17-9.79H370.85s34.06,30.54,34.33,30.58a.28.28,0,0,0,.16-.3Zm77.82-38.93c8.13-21.66,8.13-21.66,2-113.16-3.26-50.35-6.23-92.77-6.3-94.31s-.45-6.52-.75-11.35c-.55-8.49-.45-10.54.49-9a37.54,37.54,0,0,0,7.54,2.38,18.67,18.67,0,0,0,2.41-2.54c2.88-3.27,8.49-10.12,10.71-12.83,1.63-2,3.26-3.81,10.73-13,1.21-1.43,2.71-3.26,3.27-3.91s1.82-2.16,2.61-3.27,2.12-2.61,3-3.59a54.14,54.14,0,0,0,5.84-7.4,75.75,75.75,0,0,0-8.91-8.36l-8.45-7.47c-12-10.7-13.25-11.75-13.81-11.75a.58.58,0,0,1-.55-.55c0-.46.59-.49,5.32-.3,2.9,0,20.46.56,39.16,1l37.68.95c4.57.19,4.67,0,2.94-2-.59-.68-2.94-3.69-5.22-6.53s-4.47-5.8-4.89-6.29-.75-.88-23.63-1.24c-52.5-.82-56.52-.92-56.91-1.31s-.23-.46,0-.59c4.7-1.69,18.76-15.69,22.52-22.41.49-.88,0-1.34-1.28-.92-.42.2-.52.33-.26.36,1.41,0-10.86,5-17,6.85A95.36,95.36,0,0,1,466,112.64c-5.61.19-5.61.19-6.13,2.51l-2.32,11.16c-1,4.86-2.74,13.41-3.92,19s-3,14.42-4,19.58-2.06,9.79-2.16,10.25-1.07,4.89-2.12,10.05c-5.64,27.67-7,33.93-9.33,43.23-1.4,5.62-.39.53-18,92.06-14,73-14,73-10.25,86.08,2,7.31,3.49,13.41,3.27,13.57-.4.66-.92-.91-3.85-11.58-1.7-6.2-3.27-11.85-3.56-12.56-.75-2-1.24.94,9.59-55.48,5.75-29.89,10-52.89,9.79-53.09s-1.47-3.26-2.93-6.72a54.9,54.9,0,0,0-3-6.53c-.16,0-2.54-5.41-5.25-11.78s-5-11.74-5.22-11.91-14.46-5.38-14.65-5.19,1,19.22,1.27,19.58a5,5,0,0,1,0,1.63c0,.72.49,10.28,1.21,21.28s1.27,21,1.27,22.22,2.19,36.12,4.83,77.47c4.83,75.05,4.83,75.05,39.61,75.05s34.79,0,42.88-21.8Zm-7.8-242.15c-.16-.46-1.07-7.71-2-16.32s-2-18-2.38-21.18c-.52-4.47-.62-5.87-.29-6.16s.85,0,1.4,4.89c4.05,35.89,4.34,38.67,4,39.16S475.72,199.14,475.46,198.56Zm-3.94-44.48a20,20,0,0,1,3.68-2.71l9.56-6.17a26.59,26.59,0,0,1,6.2-3.52c.39.39,1.34-.29-9.43,6.53-9.39,6.13-10.11,6.52-10.11,5.87ZM403.25,445.71c0-1.31-2.41-36.58-5.12-78.32s-5.29-81.87-5.75-89c-.81-12.4-.88-13-1.59-13.73-5-5.49-18.74-20.3-22.55-24.28-5.94-6.14-2.42-4.5-30.51-14.16-21.67-7.44-21.67-7.44-26.11-3.53-6.75,6.11-112.32,107.69-112.32,108.18s25,24.21,55.48,53.35l57.76,55.18c2.28,2.18,2.28,2.18,35.14-2.68,18.08-2.67,33-4.79,33.12-4.7.69.43,0,1.67-5.65,8.39-5.87,7.28-5.87,7.28,3,7.44C404.49,448.35,403.48,448.45,403.25,445.71ZM390.59,253.64c-.33-5-.65-9.17-.72-9.24s-.52-.26-13.8-4.86c-9.17-3.26-9.17-3.26-8-1.89,3.95,4.14,22.32,24.18,22.65,24.67s.52,1.24,0-8.68ZM341,225.51a22.83,22.83,0,0,0-2.87-2.42c-1.44-1-25.06-19.08-52.44-40.1s-50-38.18-50.15-38.18a22.14,22.14,0,0,0-3,2.71c-18.69,18.76-44.93,9.53-54.59-19.19a19.68,19.68,0,0,0-1.7-4.11c-.58,0-46.33,28.29-46.33,28.68S111,146.77,257.16,197.25l57.89,20c19.77,6.82,23.49,8.12,24.08,8.45s2.19.49,1.86,0Zm-125.4-70.22c11.26-2.09,22.45-13.06,26.1-25.95.23-.78.52-1.4.66-1.4a46.31,46.31,0,0,0,2.25-10,61.8,61.8,0,0,0-3.27-26.66c-1.5-4-.65-3.59-11-5-5-.68-12.4-1.76-16.32-2.38-18.6-2.87-17-2.9-23.07.42-9.46,5.16-12,8.32-13.57,17-1.31,7.12-.82,21.08.68,21.08.26,0,8.49-3.26,18.24-7.24s17.88-7.25,18.08-7.28,25,18.11,26.56,19.58c.92.82.43,1.57-.62.91-.36-.23-6.52-4.66-13.31-9.79-12.66-9.39-12.66-9.39-30.68-2s-18,7.34-17.29,10.15C184.39,146,199.83,158.16,215.59,155.29Zm14.91-40.37c-6.53-1.3-7.18-14.45-1.31-20.46,8.59-8.68,15.64,7,7.8,17.3a7.63,7.63,0,0,1-6.49,3.13Zm2.15-1.7a10.88,10.88,0,0,0,4.7-4.79c3.62-7.64.52-16.94-4.86-14.56-7.8,3.46-7.64,21.51,0,19.35ZM196.3,108c-6.88-2.65-6.82-17.75,0-22.16,4.77-3,9.79,2,9.79,9.79s-5.28,14-9.79,12.24Zm3.79-2c5.81-3.52,6-17.45.26-19.31-3-1-6.53,2.51-7.38,7.57C191.47,102,195.65,108.79,200.09,106Zm46.11-4a61.84,61.84,0,0,0-1-7.77c-.46-2.61-.91-5.28-1-5.9a7.37,7.37,0,0,0-.42-1.8c0-.36-.62-1.76-1-3.1a103,103,0,0,0-10.34-22.77c-2.87-5-2.77-4.9-2.68-1.51,0,5.55-.71,7.28-4.47,9s-5.35.88-5.35-2.12a32.75,32.75,0,0,0-1.73-6.53c-1.2-2.28-10.11,1.27-18,7.21a50.1,50.1,0,0,0-8.72,7.93,7.55,7.55,0,0,1-1.66,2,48.1,48.1,0,0,0-8.12,12,11.36,11.36,0,0,0,2.51-1.54c6-4.21,11.45-6.75,14.36-6.75.78,0,10,1.24,20.59,2.77,12.53,1.83,19.28,2.71,19.58,2.48s.81.16,1.59.88c2.32,2,5.06,9.79,5.52,15.86a4.06,4.06,0,0,0,.55,2.51c.2,0,.23-1.07,0-3ZM395.55,569.7c-8.88-1.14-16.32-2.15-16.32-2.25s2.65-27.8,3-28.26a239.16,239.16,0,0,1,27.15,4c1.3.42,1.3.42,2.18,13.47.46,7.18.92,13.51,1,14C412.75,572,414,572.05,395.55,569.7Zm15.53-1.5c0-1.14-.49-6.91-.88-12.85s-.72-10.84-.78-10.9-26.11-4.31-26.11-4.21-2.71,25.91-2.54,26.1,27.93,3.85,29.69,3.92c.82-.07.82-.07.56-2.09Z" transform="translate(86.38 -35.17)"/><path id="path309" class="cls-7" d="M249.23,584c0-.65.85-7.9,2.06-16.09,1.27-8.68,2.05-15,1.89-15.24a3,3,0,0,1,.33-3,7.27,7.27,0,0,0,.88-2.81c.22-1.92.22-1.92-25.55-1.69l-162.54,1c-117.31.72-136.89.91-137.61,1.31-2.8,1.53-4.5-.95-2.93-4.25.81-1.69,128.17-312.6,128.33-313.26s-3.72-1.17-17.22-3.68C17.29,222.67,18,222.9,18,220.16c0-2.09-4.34.75,53.81-35,28.78-17.69,52.63-32.44,53-32.63a17.27,17.27,0,0,1,2.28-1.41C128,150.69,139,144,151.5,136.3c22.84-14,22.84-14,22.84-15.47,0-.79,0-4-.26-7-.59-14.39,2.68-26.56,9.3-34.75,10.54-13,25.09-22.84,33.71-22.84,3.59,0,3.82.26,5.06,5.45.94,4,.94,4,2.15,3.26a7.81,7.81,0,0,0,2-9.4c-.85-1.86-.82-2.71,0-3.59,2.74-2.54,6.52,1.73,13.47,16a78.27,78.27,0,0,1,8.75,45.69c-.39,2.44-.85,5.67-1,7.21a55.18,55.18,0,0,1-7.67,20.91c-1.41,2.22-3.66,0,16.8,15.8,65,49.7,87.29,66.83,88.11,67.48s44.93,16.32,46.46,16.32a1.88,1.88,0,0,1,1.28.45,81.07,81.07,0,0,0,8.29,3.27c8.41,2.83,10.08,3.78,10.05,5.64,0,.69,12.1,29.79,12.33,29.6s2.45-12.4,5.35-27.41,5.68-29,6.23-31.07,2-8.61,3.27-14.55,3.26-15.8,4.57-21.9,3.26-15.33,4.24-20.46,3-14.32,4.24-20.46,3.26-15.46,4.27-20.75c2.88-14.13,2.58-13.54,6.86-13.22a94.83,94.83,0,0,0,32.24-5.74l10.11-3.52c3.07-1.08,6.33-2.35,7.28-2.81,3.65-1.86,4.86-.33,2.48,3.26l-2.68,3.89a99,99,0,0,1-14.71,16.31c-2.09,1.67-4.31,1.54,38.27,2.16,37.69.58,33.78.26,35.9,3.06,2.48,3.27,5.15,6.82,8,10.54,4.66,6,4.73,6.14,3.26,7.48-.78.71-37.76.16-75.25-1.15-4.47,0-6.13,0-6,.17s2.12,2,4.4,4l9.37,8.26c2.84,2.54,6.79,6,8.78,7.76,5.22,4.61,5.45,5.26,2.9,8.13l-3.26,3.79c-.88,1.07-2.71,3.26-4,4.86L515,186.06l-5.19,6.23-5.55,6.53c-1.21,1.43-2.71,3.26-3.26,3.91l-3,3.62c-9,11.13-10.05,12.27-11.36,12.27a2.13,2.13,0,0,1-1.11-.22c-.78-.79-4.76-1.31-4.63-.62s.94,13.44,1.5,24.4c.29,5.78,6.75,103,10.8,162.34a96.5,96.5,0,0,1,.62,16c-.52,2-16,43.46-16.54,44.34s-.46.72-35.15.72-34.69,0-34.52,1.4c0,.75.36,4.28.55,7.84.39,6.52.39,6.52,21.87,25.51,11.78,10.48,21.92,19.58,22.51,20.14,2.19,2.25,1.44,5.25-1.24,4.89-.95,0-22.84-7.5-30.25-10.24-2.8-1-4.18-2.55,12.5,13.7s17.1,15.11-1.34,15.4c-7,0-12.76.23-12.79.26s1,8.29,2.45,18.28c-13.67,14.18,1.05-.95-.58-.95s-.58,8.23-4.94-18.89c-1.86-13.51-1.6-13.06-5.94-13.06a3.49,3.49,0,0,1-1.56-.32c-.69-.39-49.44-10.25-49.67-10.05s-1.3,9.49-2.77,20.88-3,23.63-3.26,27.12-.82,6.82-.82,7.37,0,1,29.17,5.52c32.74,4,26.2-2.52,22.51-.81-3.27,0-52.43-2.23-53-2.85a37.12,37.12,0,0,1,.52-6.13c.43-3.26.75-5.91.72-5.94S257,552.74,256.87,552.9s-1.21,7.15-2.45,15.66c-2.74,18.77-2.32,16.94-3.69,16.94s-1.11,0-1.24-1.21Zm103.21-22.09c.66-3.69,3.27-26.11,3-26.3s-92.58-15.11-93.92-15.14A119.61,119.61,0,0,0,258,542.42a.71.71,0,0,1,0,.72,47.37,47.37,0,0,0-1.31,7.93S349.83,562.92,351.3,563,352.28,562.92,352.44,561.94ZM100.76,543c85.56-.55,155.62-1,155.65-1.07s.82-5.06,1.73-11.13c1.6-11,1.6-11-18.24-48.52C229,461.63,220,444.69,220,444.63s-23.53-8.13-52.21-17.95C15.46,374.67,24.17,377.73,24.17,377s5.68-14.23,43.92-106.57c8.42-20.14,15.21-36.78,15.14-36.78S58,228.81,57.88,229.13,29.23,299.26-5.88,384.55-69.81,540.6-70.33,541.84C-71.24,544-71.24,544-63,544c4.54,0,78.25-.42,163.78-1Zm340.73-2.38S409.12,509,408.86,509.17a124.11,124.11,0,0,0,1.54,19c.29,0,1.43.33,2.51.56,2.64.49,2.81.58,2.9,2.28.72,10.48.33,10.15,13.41,9.79l12.14-.26Zm-84.84-13.8c1.05-8.26,1.11-8.62,1.73-8.85s11.62,2.06,25.19,4.8,24.74,5,24.8,4.86a72.1,72.1,0,0,0-.45-8.48c-.46-4.6-.59-8.88-.59-9.53,0-1.17,0-1.17-5-2.9-35.89-12.34-180-61.45-180.06-61.35s38.84,73.65,39.39,73.75c2,.42,93.55,15,93.82,14.94A46.74,46.74,0,0,0,356.65,526.83ZM449,520.76c0-.23-7.25-6.53-15.86-14.33s-17.85-15.82-20.53-18.21a48.1,48.1,0,0,0-5.19-4.34,4.66,4.66,0,0,1-1.46-1.3c-1.15-1.31-18.11-16.32-20.4-18.18-1.76-1.33-9.79-8.45-13.57-12.07q-1.79-1.72-3.72-3.26c-.85-.46-.69-.69,5.58-8.52,4.92-6.13,5.48-7,4.53-7s-40.92,6-53.64,8c-5.22.82-9.79,1.47-9.79,1.47s-5.32-4.73-11.29-10.54c-16.32-15.73-23.4-22.61-64.19-61.58-20.52-19.57-40.4-38.57-44.15-42.19l-13.51-13.05c-6-5.71-7.5-7.47-6.17-7.15.27,0,5.45,4.87,11.52,10.67,11.06,10.54,11.06,10.54,13.87,7.8,1.53-1.5,26.11-25.16,54.63-52.57C319.52,213,314.36,218.23,313.55,218s-65.27-22.58-75.06-25.87l-58.18-20c-52.21-18-52.21-18-103.54,13.68L23.29,218.66c-1.11.68-2,1.33-1.86,1.47a320.41,320.41,0,0,0,35.9,6.13c.55-.72,1.76-.23,1.46.62a84.54,84.54,0,0,0,13.06,2.87L89.21,233c2.25.46,4.66.92,5.41,1l2.32.32,51,9.47,50.15,9.36s-.75-10.38-1.7-22.84c-1.92-25-1.92-24.87-.94-24.87s.49-2.93,2.61,24.71c.94,12.69,1.86,23.39,2,23.78.43,1.34-1,1.24-11.61-.75-5.58-1-10.25-1.76-10.38-1.63s1.14,9.79,2.78,21.21c3.65,25.55,3.62,25.23,2.74,25.62a46.31,46.31,0,0,0-4.64,5.06,46.76,46.76,0,0,1-4.4,4.83,1,1,0,0,0-.56.81c0,.46-.42.75-1.07.91-2.52.59-89.81,13.06-90,13.06s2.32-1,45-7.25c44.77-6.52,44.77-6.52,45.68-7.86.56-.72,1.34-1.67,1.76-2.12a43.91,43.91,0,0,0,7.41-9.79c0-1.14-6.53-45.23-6.53-45.36S84.87,233.77,84.87,234,26,375.42,26,376.27s4.57,2.87,6.23,2.87c.26,0,13.38,4.44,29.11,9.79l252.14,86.14C364.84,492.63,407.2,507,407.56,507s.72,0,.78.29,8.06,3,17.75,6.23,18.57,6.33,19.58,6.76c2.25.85,3.49,1,3.26.39ZM404.69,469.1c-.79-12.69-1.28-19.32-1.41-19.58s-7.44,0-16.31-.26c-16.32-.19-16.32-.19-15.6.52,1.47,1.47,33.9,30.22,34,30.16s-.19-5-.59-11Zm78.47-28.35c8.13-21.67,8.13-21.67,2-113-3.26-50.25-6.23-92.73-6.33-94.46s-.45-6.89-.75-11.52c-.55-8.32-.45-10.35.49-8.85a37.78,37.78,0,0,0,7.54,2.39,20.12,20.12,0,0,0,2.42-2.55c2.87-3.26,8.48-10.12,10.7-12.82,1.63-2,3.26-3.82,10.73-13.06,1.21-1.43,2.71-3.26,3.27-3.91s1.83-2.16,2.61-3.27,2.12-2.61,3-3.58a52.88,52.88,0,0,0,5.84-7.41,75.75,75.75,0,0,0-8.91-8.36l-8.45-7.47c-12-10.7-13.25-11.75-13.8-11.75a.59.59,0,0,1-.56-.55c0-.46.59-.49,5.32-.29,2.9,0,20.46.55,39.16,1l37.69.94c4.57.2,4.66,0,2.93-2-.58-.68-2.93-3.68-5.22-6.52s-4.47-5.81-4.89-6.3-.75-.88-23.63-1.24c-52.5-.82-56.51-.91-56.91-1.31s-.22-.45,0-.58c4.05-1.47,14.88-11.75,20.5-19.58,2.28-3.27,2.51-3.59,2-3.89s-2.58.33-2.32.72-9.79,4.57-16.32,6.53a95.16,95.16,0,0,1-25.28,4.8c-5.62.19-5.62.19-6.14,2.51l-2.32,11.16c-5,24-8.77,42.42-12.23,59.06-1.11,5.29-2.94,14.2-4.11,19.78-2.26,11-3.27,16-5.23,23.39-1.4,5.62-.39.52-18,92.06C404,393.5,404,393.5,407.75,406.55c2,7.31,3.49,13.41,3.27,13.57-.4.66-.92-.91-3.85-11.58-1.7-6.2-3.27-11.85-3.56-12.56-.75-2-1.24.94,9.59-55.48,5.75-29.89,10-52.89,9.79-53.09s-1.47-3.26-2.93-6.72a68.6,68.6,0,0,0-3-6.53c-.13,0-2.58-5.51-5.32-12.07-5.06-11.88-5.06-11.88-12.5-14.46-4.11-1.43-7.51-2.54-7.54-2.48s.49,8.81,1.11,17.27c.2,2.57,1,14.65,1.67,26.82S398,345.33,400.67,387c4.83,75.64,4.83,75.64,39.62,75.54S475.07,462.51,483.16,440.75Zm-7.79-242.16c-.17-.46-1.08-7.7-2-16.32s-2-18-2.35-21.17c-.53-4.38-.59-5.91-.33-6.2s.85,0,1.4,4.92c.3,2.65,1.41,12.4,2.45,21.73,1.73,16.65,2,19.91.82,17Zm-3.95-44.48a20.3,20.3,0,0,1,3.68-2.71l9.57-6.16a26.23,26.23,0,0,1,6.2-3.53c.39.39,1.33-.29-9.44,6.53-9.29,6.1-10,6.49-10,5.84ZM403.38,448c0-.23-8.84-136.6-10.67-164.69-1-15.53-1.24-17.92-1.73-18.47-2.15-2.45-14.45-15.66-20.39-22-7.15-7.57-7.15-7.57-9.79-8.55-4.15-1.63-44.58-15.5-44.87-15.4-.82.29-14.1,13.05-58.25,55.47L204.07,326c-5.16,5.09-5.16,5-3.88,6.11.48.42,25.64,24.4,55.86,53.28l56.88,54.33c2,1.86,2,1.86,33.87-2.83,36.81-5.42,34.1-5.06,34.26-4.38a56.67,56.67,0,0,1-5.81,7.87c-5.94,7.31-5.94,7.31,1.54,7.47,11.61.26,26.59.33,26.59,0ZM390.65,253.77c-.32-5-.71-9.17-.81-9.3s-22.55-8-22.68-7.83,5,5.61,11.23,12.33,11.64,12.66,12,13c.95,1.24.92,1.64.26-8.35ZM341,225.64a17.62,17.62,0,0,0-2.87-2.45c-1.44-1-25.06-19.09-52.44-40.1s-50-38.18-50.15-38.18a22.14,22.14,0,0,0-3,2.71c-18.69,18.76-44.93,9.53-54.59-19.19a19.68,19.68,0,0,0-1.7-4.11c-.58,0-46.33,28.29-46.33,28.68S111,146.87,257.16,197.35l57.89,19.94c9.79,3.26,22.84,8,24.86,8.68,1.28.49,1.5.42,1.08-.26ZM217.71,154.93a35.89,35.89,0,0,0,16.9-11.85,52.3,52.3,0,0,0,7-13.05,8.43,8.43,0,0,1,.82-2,50.6,50.6,0,0,0,2.12-10.12,61.8,61.8,0,0,0-3.27-26.66c-1.5-4-.65-3.59-11-5-5-.68-12.4-1.76-16.32-2.38-18.7-2.87-17-2.9-23.07.42-9.46,5.16-12,8.32-13.57,17-1.31,7.12-.82,21.08.68,21.08.26,0,8.49-3.26,18.24-7.24s17.88-7.25,18.08-7.28,25.26,18.34,26.63,19.58c.65.65.72.78.26,1a113.83,113.83,0,0,1-13.67-9.56c-7.25-5.39-13.32-9.79-13.51-9.79s-35.7,14.49-35.9,14.65a54.27,54.27,0,0,0,4.41,12c5,9.95,13.05,17.23,21.53,19.28l2.61.66a48.53,48.53,0,0,0,11.1-.59ZM229,114.24c-5.19-3.46-5.06-14.43.19-19.81,8.46-8.55,15.57,6.72,8,17.07A6.53,6.53,0,0,1,229,114.24Zm4.8-1.37c5.12-3,7-14,3-18.08-1.92-2-4.31-1.67-6.53.91C223.71,102.75,226.65,116.88,233.8,112.87ZM196.3,108c-6.88-2.65-6.82-17.75,0-22.16,5.88-3.72,11.42,4.6,9.24,13.87-1.34,5.74-5.75,9.79-9.3,8.29Zm2.87-1.37c3.27,0,6.3-8.49,5.19-13.91-2.12-10.37-11.09-7.11-11.78,4.28-.29,5.09,2.74,10.51,5.52,9.79a4.79,4.79,0,0,1,1.07,0ZM246,99.81c-.23-1.69-.68-4.73-1-6.69s-.72-4.14-.78-4.76c-.59-4.93-6.53-19-12.14-28.16-2.26-3.72-2.26-3.72-2.42.39-.26,5.29-1.37,6.59-5.94,8.26-2.84,1-3,.75-4.53-5.88-1.08-4.53-1.54-4.79-6.07-3.26-10.35,3.26-24.08,15.17-30,26.1a23.18,23.18,0,0,0-1.5,3,13.69,13.69,0,0,0,2.51-1.53,34.58,34.58,0,0,1,14.23-6.76c.68,0,9.78,1.24,20.32,2.77,20.73,3,20.33,3,20,2.39s.42,0,1.24.81c2.51,2.06,5.84,11.88,5.84,17.23a3.36,3.36,0,0,0,.22,1.47c.43.42.49-2.19,0-5.38ZM395.55,569.7c-8.88-1.14-16.32-2.15-16.32-2.25s2.65-27.8,3-28.26a239.16,239.16,0,0,1,27.15,4c1.3.42,1.3.42,2.18,13.47.46,7.18.92,13.51,1,14,.17,1.27,1.37,1.33-17-1Zm15.53-1.82c0-1.31-.49-7.08-.85-12.86s-.75-10.51-.81-10.6-26.11-4.31-26.11-4.21-2.8,26.1-2.67,26.1,28.45,3.72,29.66,3.75,1,.13.72-2.22Z" transform="translate(86.38 -35.17)"/><path id="path307" class="cls-8" d="M249.23,584c0-.65.85-7.9,2.06-16.09,1.27-8.68,2.05-15,1.89-15.24a3,3,0,0,1,.33-3,7.5,7.5,0,0,0,.88-2.81c.22-1.89.22-1.89-1.37-1.89-27.51-.16-323.64,2.09-324.33,2.48-2.28,1.24-5-1.79-3.26-3.62C-74.28,543.5,53.87,230.89,54.09,230c0-.36-3.62-1.14-17.26-3.69-19.22-3.59-18.47-3.26-18.69-6-.23-2.16-4.8.81,53.71-35.12,28.78-17.68,52.63-32.4,53-32.63a15.66,15.66,0,0,1,2.28-1.4c.92-.46,11.88-7.15,24.38-14.85,22.84-14,22.84-14,22.84-15.5,0-.78,0-3.88-.26-6.85-.62-13.31,2.51-26.1,8.29-33.68C191.93,67.41,208.31,56,217.09,56c3.59,0,3.82.26,5.06,5.45.94,4,.94,4,2.25,3.26a7.67,7.67,0,0,0,1.83-9.36c-.82-1.89-.79-2.71,0-3.59,2.7-2.55,6.26,1.63,13.34,15.66a78.77,78.77,0,0,1,8.81,46.08c-.39,2.45-.85,5.68-1,7.21a58.56,58.56,0,0,1-7.47,20.59c-1.38,2.12-1.38,2.12-.62,2.81s23.39,18,51.1,39.15,51.46,39.52,52.76,40.53c2.38,1.93,2.38,1.93,24.67,9.6,12.24,4.21,22.65,7.66,23.17,7.66a1.86,1.86,0,0,1,1.27.46,74.64,74.64,0,0,0,8.29,3.26c8.42,2.88,10.05,3.79,10.05,5.75,0,.72,12.11,29.69,12.33,29.37s2.45-12.34,5.32-27.25c5.32-27.44,6.53-33.64,7.18-34.72.17-.36,1.27-5.39,2.48-11.23s3.07-15.17,4.24-20.75c7.61-36.45,10.84-52.21,13.06-62.65,2.84-14,2.61-13.58,6.52-13.22,8.26.65,22.45-2,35.9-6.85,3.26-1.14,7.08-2.51,8.61-3a40.32,40.32,0,0,0,5-2c6.53-3.26,5.13,1.08-4,12.34a82.26,82.26,0,0,1-10,10.34c-2.54,2.12-5.61,1.93,37.66,2.58,24.83.36,33.77.59,34.13.88s3.56,4.18,6,7.44c1,1.37,2.84,3.72,4,5.26,3.79,4.83,4.11,5.31,4.11,6a2.45,2.45,0,0,1-.78,1.44c-.78.72-37.95.16-75.25-1.14-4.7-.17-6.13,0-5.94.16s2.51,2.41,5.32,4.89L515,156l7.74,6.82c6.88,6,6.88,5.16-.3,13.74l-13.21,15.83-9,10.8c-.82.95-3.79,4.54-6.53,8-6,7.31-6.92,8-8.16,6.79s-4.76-1.31-4.63-.62.78,11.19,1.66,27.18c.27,4.86,3,46,6,91.37,4.57,67.74,5.52,82.88,5.22,84.09-.45,1.92-15.92,43.43-16.54,44.41s-.46.72-35.15.72-34.68,0-34.52,1.4c0,.75.36,4.31.55,7.87.4,6.52.4,6.52,21.8,25.48,25.62,22.84,23.66,20.82,23.66,22.61s-.82,2.65-2.38,2.42c-.92,0-23.2-7.7-30.19-10.25-2.77-1-4-2.31,13.06,14.2,16.31,15.95,16.57,14.65-1.8,14.88-7,0-12.76.23-12.82.29s1,8.29,2.45,18.27c3.26,22.62,1.05-.94-.58-.94s-1.51,8.55-4.81-17.92c-1.73-13.86-1.76-13.9-6.07-13.9a3.64,3.64,0,0,1-1.56-.32c-.66-.39-49.44-10.28-49.67-10s-.72,4.7-1.44,10.24c-3.88,30.51-5.54,44.12-5.54,45.07s0,1,29,5.58c30.44,4.76,26.74-.81,22.43-.77-2.54,0-52.29-2.43-52.81-2.92a38.59,38.59,0,0,1,.55-6.07c.43-3.26.75-5.91.69-6-.69-.69-95.45-12-95.58-11.39s-1.11,7.34-2.28,15.53c-2.68,18.57-2.26,16.68-3.59,16.68s-1.08,0-1.21-1.21Zm103.25-22.25c.71-4.64,3.26-24.9,3.06-25.56s0-.81-46.72-8.28c-25.62-4.08-46.9-7.44-47.29-7.44a147.43,147.43,0,0,0-3.72,21.89c0,.26-.23,1.6-.45,2.94-.95,5-1,5.91-.33,5.91s21.37,2.64,46.73,5.87c53.32,6.75,48.52,6.26,48.72,4.67ZM111,543c79.85-.48,145.31-1,145.44-1.2s.95-5.19,1.8-11.23c1.56-11,1.56-11-18.37-48.59s-19.91-37.59-27.25-40.1c-73.36-25-178.53-60.95-179.9-61.48l-5-1.86c-2.74-1-3.26-1.27-3.26-1.89s13.24-32.63,29.36-71.79S83.2,233.73,83.2,233.6s-25.29-5-25.55-4.66-129,314.89-129,315.18,8.36,0,18.57,0L111,543Zm331-2c0-.29-32.63-31.82-32.92-31.91s-.43.22-.3,1.3.39,5,.69,9.43c.58,9.33.23,8.35,3.06,8.88a10.49,10.49,0,0,1,2.65.65,79.86,79.86,0,0,1,1.92,11.49c0,.22,24.9.39,24.9,0ZM356.72,526.5a69.34,69.34,0,0,1,1.34-8.22c.32-.46,3.52,0,25.35,4.57,13.74,2.77,25,5,25.06,5s-1.24-19.35-1.47-19.58-39.58-13.64-87.71-30l-92.48-31.66c-2.74-.94-5-1.66-5-1.63a17.09,17.09,0,0,0,.78,1.54c.43.78,9.21,17.32,19.58,36.77s18.8,35.44,18.93,35.57,92.34,15.14,94.11,15.24c.55,0,.65-.36,1.53-7.67Zm92.34-5.64c-.55-.82-41.08-36.81-41.57-37a9.78,9.78,0,0,1-1.86-1.66c-1.47-1.57-17.19-15.57-20.62-18.34-2.77-2.25-10.31-9-13.58-12.1a27.36,27.36,0,0,0-3.26-3c-.65-.19.56-1.89,6.23-8.91,4.44-5.48,5-6.52,4.05-6.52s-35.89,5.19-48.59,7.18c-10.28,1.6-12.3,1.89-14.32,2.12-1,0-1.7-.49-12.76-11.23s-32.63-31.32-78.58-75.28c-12.5-11.91-25.74-24.6-29.37-28.13l-13.05-12.59c-6.1-5.42-7.41-6.76-6.46-6.76,0,0,5.25,4.77,11.32,10.54s11.13,10.61,11.29,10.67S222,307,251.12,279c64.32-62,63-60.59,62.69-60.79s-19.58-6.85-43.43-15L177.7,171.11c-49.5-17.06-49.5-17.06-50.54-16.31C123,157.28,21,220.06,20.81,220.32s0,.29.36.29,8.58,1.51,18.27,3.27c15.34,2.84,17.66,3.26,17.89,2.77s1.24-.62,1.24,0a1.43,1.43,0,0,0,0,.65l13.05,2.45,21.89,4.11,56.78,10.54c26.24,4.86,47.77,8.78,47.84,8.78s-.65-10.8-1.66-23.79c-1.8-23.92-1.8-24.21-1-24.21s.62-.59,2.44,24.7c.92,12.79,1.83,23.5,2,23.82.75,1.41-.75,1.31-11.61-.72-5.78-1.07-10.51-1.92-10.57-1.89s1.33,9.79,3,21.67,3,22,2.94,22.48a2.83,2.83,0,0,0,.23,1.6c.35.56.32.72-.33,1.18a53.17,53.17,0,0,0-4.73,5.22,56.8,56.8,0,0,1-4.54,5,1.13,1.13,0,0,0-.62.92c0,.42-.32.65-1.08.78C160.93,311.82,83,323,82.91,323s2.18-.94,45-7.24c44.74-6.53,44.74-6.53,47.52-9.79,1.5-1.83,3.81-4.57,5.12-6.1,1.76-2.09,2.38-3.07,2.35-3.76s-6.53-45.22-6.53-45.39S85.36,233.6,85,233.6a93.31,93.31,0,0,0-4.41,9.79c-2.18,5.29-15.4,37.23-29.37,71s-25.48,61.61-25.55,62,4.87,2.81,6.53,2.81c.23,0,36.42,12.3,80.47,27.35l151.51,51.81L371.34,495c19.58,6.52,35.89,12.1,36.18,12.1s.76,0,.82.3,10.41,3.85,30.18,10.5c5.23,1.77,9.79,3.27,10.15,3.27l.75.19a.89.89,0,0,0-.32-.55Zm-44.24-50.22c-1.15-17.92-1.37-20.82-1.5-20.95s-7.57-.26-16.68-.39c-16.51-.23-16.51-.23-15,1.07,29.86,26.63,33.54,29.83,33.64,29.17s-.1-4.47-.39-8.9Zm78.31-29.89c8.09-21.7,8.09-21.7,2-113.2-3.26-50.35-6.23-93.13-6.33-95.12s-.46-7.12-.75-11.39c-.59-8-.49-9.14.72-8a13.51,13.51,0,0,0,3.26,1.17,9.51,9.51,0,0,1,3.26,1.21c.23.62,2.55-1.86,8.42-9l4.11-4.89,4.9-5.91,10.8-13.05c11.52-13.74,11.13-13.25,11.09-13.87a7.87,7.87,0,0,0-2-2.28c-1.89-1.64-7-6.17-16.32-14.36s-12.4-10.87-13.05-10.87a.52.52,0,0,1-.52-.49c0-.45.59-.49,4.8-.32,2.67,0,20.16.55,38.86,1s35.9.88,38.18,1c4.93.2,4.89.27,2.48-2.83-1.73-2.16-3.26-4.15-7.77-10-2.31-3-2.31-3-4.86-3-10.93,0-76.58-1.31-77-1.47s-.72-.72.16-1a48.09,48.09,0,0,0,7.77-5.58c5.48-4.61,16.71-18.28,14.2-17.33-.33,0-.43,0-.27-.2s0-.29-.35,0l-2.19.75c-1.7.56-2.12.92-.69.56,3-.72-4.7,2.54-11.16,4.76a101.82,101.82,0,0,1-31,5.88c-3.26,0-3.52,0-3.68.75s-3.89,18.63-5.88,28.35c-1,4.77-2.9,14-4.24,20.46s-3.26,16.06-4.44,21.25c-1.82,8.87-5.67,27.44-7.18,34.52-.39,1.73-1.5,6.53-2.48,10.47s-7.76,38.54-16.87,86C404,393.33,404,393.33,407.56,406.61c2,7.28,3.52,13.38,3.42,13.55-.39.65-.84-.82-3.68-11.23-1.64-6-3.27-11.49-3.43-12.11-1-2.51-1.11-2.12,9.27-56.15,10.15-52.74,10.15-52.74,9.56-54-.33-.68-1.6-3.59-2.81-6.53s-2.41-5.58-2.67-6-2.71-5.94-5.39-12.24-5-11.55-5.12-11.71-14.78-5.32-14.95-5.13a65.38,65.38,0,0,0,.53,9.79c.52,5.22.71,10.67.78,11.75.39,7.9,5.29,84.84,11.52,182.28.88,13.51.88,13.51,35.7,13.41s34.78,0,42.91-21.73Zm-7.93-243c0-.59-1-8.42-2-17.43s-2-18.3-2.31-20.72c-.46-3.62-.46-4.4,0-4.63s.39-2.91,3.88,27.8c.91,8,1.63,14.91,1.63,15.3,0,1.18-.91.88-1.11-.32ZM471.42,154c0-.39,18.6-12.53,19.18-12.53s.36.62-.45,1.08l-9.53,6.23c-8.45,5.52-9.2,6-9.2,5.35Zm-68,293.68c0-.62-10.6-164.43-11.29-174.8a45.19,45.19,0,0,0-.91-7.87c-.23-.26-5-5.41-10.54-11.42L367.13,239a19.69,19.69,0,0,0-4.73-4.24c-1.83-.79-45.69-15.93-46.21-15.93S303.14,230.5,251.74,280c-52.83,50.87-52.83,50.87-51.1,52.53l56.72,54.14c30.18,28.88,55.47,53.06,56.25,53.71,1.34,1.24,1.34,1.24,33.48-3.52,33.61-5,34-5,34-4.31a95.34,95.34,0,0,1-5.94,7.76c-5.91,7.35-5.91,7.35-1.21,7.51a239.85,239.85,0,0,0,29.37-.2Zm-12.07-186c0-.71-.36-4.92-.66-9.33-.52-8.06-.52-8.06-12.13-12.07-6.53-2.19-11.69-3.95-11.75-3.92s4.44,5,10,11,11.07,12,12.21,13.28c2.48,2.81,2.48,2.81,2.48,1.08ZM341,225.61a7.27,7.27,0,0,0-1.73-1.54c-.82-.58-24.41-18.63-52.44-40.1s-51.1-39.16-51.29-39.16a24.37,24.37,0,0,0-3.63,3.1c-19,18.24-44.67,8.75-54.13-20a15.49,15.49,0,0,0-1.54-3.69c-.75,0-46.37,28.33-46.27,28.75s17,6.27,43.76,15.47L339.91,225.8c1.28.49,1.47.43,1.08-.29Zm-125.76-69.9c.36,0,1.66-.49,2.9-.78,9.47-2.25,19.94-13.05,23.6-24.41a16,16,0,0,1,.81-2.12c3.26-4.24,3.26-22.42.49-32.63-2.38-8.49-2-8.19-12.11-9.6C223,85.06,218.2,84.38,202.44,82c-5.39-.82-6.53-.59-12.08,2.67-9,5.19-11.12,7.87-12.72,16.15-1.24,6.53-.88,21.12.52,21.38.29,0,8.52-3.26,18.24-7.12s17.91-7.21,18.18-7.21,25.32,18.21,26.66,19.58c.29.3.35.56,0,.79a122.45,122.45,0,0,1-13.55-9.5C220.22,113.19,214.25,109,214,109L178.13,123.7a73.67,73.67,0,0,0,4.47,12.4c5,9.79,13.83,17.46,21.57,19a20,20,0,0,1,2.54.62,33.51,33.51,0,0,0,8.49,0Zm14.06-41.51c-5.41-3.26-5.35-13.67,0-19.58,4.38-4.82,9.79-2.57,10.93,4.61,1.47,8.61-5.67,18.43-11,15.1Zm5-1.63c7.11-5.15,6.26-20.56-1.08-19.19-2.58.49-5.29,4.38-6.2,9-1.73,7.83,2.41,13.77,7.14,10.21Zm-38-4.66c-3.72-1.47-6-7.77-4.86-13.35,2.32-11.19,11.75-13,14.23-2.64C207.66,100.34,201.91,110.16,196.3,107.91Zm3.79-1.57a11,11,0,0,0,3.59-4.73,5,5,0,0,1,.55-1.41,21,21,0,0,0-.36-9.78c-2.8-5.65-7.34-5.13-10.21,1.17-3.49,7.7,1,18.21,6.53,14.88Zm46.27-2.71a93.44,93.44,0,0,0-1.5-11.78,20.88,20.88,0,0,1-.49-3.42,2.84,2.84,0,0,0-.33-1.57,18.91,18.91,0,0,1-1.17-3.26,116.31,116.31,0,0,0-10.74-23.47c-2.94-4.92-2.71-4.79-2.54-1.56.36,6-.53,7.8-4.74,9.79C221.33,70,220.48,69.6,220,66a30.9,30.9,0,0,0-1.89-6.53c-2.06-2-11.42,2-19.32,8.32a62.93,62.93,0,0,0-7.7,7,18,18,0,0,1-2.16,2.7C185.63,81,181.06,88.36,181.65,89s.78-.23,1.47-.79a60.33,60.33,0,0,1,12.33-6.88c2.91-.91,0-1.21,29.37,3A127.28,127.28,0,0,0,239,86c0-.55,2.32,1.86,2.94,3.07a50.52,50.52,0,0,1,4,15.08c0,.71,0,1.27.33,1.27s.32-.75.32-1.73Zm265.23-3.26a4.12,4.12,0,0,0,1.24-.82c0-.16-.3,0-.92.3l-1.56.81c-.26,0-.33.2,0,.2a3.76,3.76,0,0,0,1.37-.49ZM395.52,569.7c-8.88-1.14-16.32-2.15-16.32-2.21s2.71-27.84,3.07-28.23a161,161,0,0,1,28.26,4.63c.16.2.65,6.27,1.14,13.45s.88,13.38.95,13.74C412.75,571.92,413.3,572,395.52,569.7Zm15.69-.32c0-3-1.63-24.77-1.86-25s-26.1-4.34-26.1-4.15-2.87,26.11-2.71,26.11,27.93,3.72,29.37,3.75,1.3,0,1.3-.82Z" transform="translate(86.38 -35.17)"/></g></g><g id="Layer11"><path class="cls-9" d="M365.33,234.35s22.84,5.88,25.26,12.3a48.51,48.51,0,0,1,1.3,16.71Z" transform="translate(86.38 -35.17)"/><path class="cls-9" d="M177.41,251l23.4,4-1.28,75.87-25.09-22,10-9.79Z" transform="translate(86.38 -35.17)"/><path class="cls-10" d="M192.81,176.43l6.3,84" transform="translate(86.38 -35.17)"/><path class="cls-11" d="M199.92,255l-6.26-78.61" transform="translate(86.38 -35.17)"/></g></g></g></g><path class="cls-12" d="M186.87,560c51.67,33.9,146.53,46.45,223.79,10.22,20.74-9.73,39-24.3,56.25-41.33" transform="translate(86.38 -35.17)"/></svg>