<svg id="лево" xmlns="http://www.w3.org/2000/svg" viewBox="0 0 662.96 595.32"><defs><style>.cls-1{fill:#f4d594;}.cls-2{fill:#fff;}.cls-3{fill:#f0bf87;}.cls-4{fill:#f8baa6;}.cls-5{fill:#e9ab00;}.cls-6{fill:#f8ddab;}.cls-7{fill:#d02917;}.cls-8{fill:#ee7353;}.cls-9{fill:#e38564;}.cls-10{fill:#f18a76;}.cls-11{fill:#8d604c;}.cls-12{fill:none;stroke:#000;stroke-miterlimit:10;}</style></defs><path class="cls-1" d="M-399.43,527.26c-84.71,0-164.51-16.11-224.7-45.37-62.46-30.36-96.86-71.58-96.86-116s34.4-85.68,96.86-116c60.19-29.26,140-45.37,224.7-45.37s164.52,16.11,224.7,45.37c62.46,30.37,96.86,71.58,96.86,116s-34.4,85.69-96.86,116.05C-234.91,511.15-314.71,527.26-399.43,527.26Z" transform="translate(730.91 58.14)"/><path class="cls-2" d="M-399.43,214.34c172.12,0,311.64,67.83,311.64,151.5s-139.52,151.5-311.64,151.5-311.64-67.83-311.64-151.5,139.53-151.5,311.64-151.5m0-19.84c-86.18,0-167.53,16.47-229,46.37-31,15.09-55.62,32.91-73.08,53-19.48,22.39-29.36,46.61-29.36,72s9.88,49.6,29.36,72c17.46,20.06,42,37.89,73.08,53,61.51,29.91,142.86,46.37,229,46.37s167.53-16.46,229-46.37c31-15.08,55.62-32.91,73.08-53,19.49-22.4,29.37-46.62,29.37-72s-9.88-49.6-29.37-72c-17.46-20.07-42-37.89-73.08-53-61.51-29.9-142.85-46.37-229-46.37Z" transform="translate(730.91 58.14)"/><ellipse class="cls-3" cx="295.34" cy="416.04" rx="196.5" ry="97.5"/><path class="cls-2" d="M-284,229.74c0-46.43-41.51-73.87-41.51-73.87,20.53-35.63.25-107.58-27.58-116.28,58.32-28,37.74-92.63-7-65.91,9.26-24.79-40.66-69.64-76.74,30-86.06,13.88-132.64,69.84-106.68,154.15-28.94,19.61-27.09,43.6-27.83,70.7-26.56,6.38-19.28,27.83-13.66,38.55a41.73,41.73,0,0,0-53.55,33.76c-3.65,23.59,5.62,76.65,124,117.58,11.27,3.9,10.4,9,24.05,11.41,140.23,24.48,250-60,243.73-104.34,38.79-34.12,17.13-73.18-37.18-95.77" transform="translate(730.91 58.14)"/><path class="cls-4" d="M-540.24,266.83c11.56,4.88,22.54,6.89,23.83,3.93s-7.39-9.29-19.32-14.31-22.59-6.8-23.84-3.93,7.42,9.27,19.33,14.31" transform="translate(730.91 58.14)"/><ellipse class="cls-4" cx="-560.98" cy="250.95" rx="19.03" ry="13.66" transform="translate(323.89 -285.87) rotate(-51.39)"/><ellipse class="cls-5" cx="-508.6" cy="349.8" rx="44.37" ry="117.24" transform="translate(72.99 -191.01) rotate(-69.48)"/><ellipse class="cls-5" cx="-377.58" cy="359.09" rx="117.24" ry="44.37" transform="translate(581.08 -51.43) rotate(-20.52)"/><polygon class="cls-6" points="283.7 375.14 272.63 381.77 147.94 331.12 148.63 301.89 284.63 371.95 283.7 375.14"/><path class="cls-7" d="M-385.15,3.56c9.09-20.65,10.47-40,3.14-43.24S-402.6-28.79-411.74-8.12s-10.47,40-3.14,43.23,20.64-10.91,29.73-31.55" transform="translate(730.91 58.14)"/><path class="cls-7" d="M-368.87,28.46C-350,16-338.33.57-342.75-6.13S-366-8.21-384.85,4.2-415.39,32.09-411,38.79s23.26,2.06,42.11-10.33" transform="translate(730.91 58.14)"/><path class="cls-8" d="M-339.44,118.88A97.59,97.59,0,0,1-437,216.52,97.59,97.59,0,0,1-534.62,119a97.6,97.6,0,0,1,97.54-97.64h.05a97.6,97.6,0,0,1,97.59,97.59" transform="translate(730.91 58.14)"/><path class="cls-8" d="M-309,219.87c0,44.74-55.28,81-123.44,81s-123.44-36.28-123.44-81,55.28-81,123.44-81S-309,175.14-309,219.87" transform="translate(730.91 58.14)"/><polygon class="cls-6" points="280.79 255.12 268.86 258.89 234.74 359.02 258.55 372.06 283.94 256.02 280.79 255.12"/><polygon class="cls-6" points="307.33 253.66 319.29 257.43 353.39 357.59 329.6 370.63 304.21 254.59 307.33 253.66"/><polygon class="cls-6" points="328.81 377.4 334.64 365.89 467.12 342.24 482.13 367.32 329.74 380.62 328.81 377.4"/><path class="cls-4" d="M-446.79,175.78c1,9.94.28,15.33-.67,18.45a5.71,5.71,0,0,0-.23,2.87c.72,3.63,5.5,6.33,9.76,6.45s9.73-2.5,10.89-7.17a8.74,8.74,0,0,0-.24-4.78l-1.13-15.77-2.73.48Z" transform="translate(730.91 58.14)"/><polygon class="cls-6" points="254.27 391.58 337.69 397.47 308.33 255.12 283.94 256.02 254.27 391.58"/><path class="cls-4" d="M-374.84,113.91a63.52,63.52,0,0,1-63.52,63.54h0a48.72,48.72,0,0,1-8-.51c-24.37-3.68-55.49-27.38-55.49-63,0-33.87,28.09-63.54,63.54-63.54a63.53,63.53,0,0,1,63.53,63.53h0" transform="translate(730.91 58.14)"/><path class="cls-9" d="M-474.14,98.51c.37,2.48,4.81,3.86,9.87,3.08s8.9-3.43,8.51-5.9-4.81-3.86-9.87-3.07-8.88,3.42-8.51,5.89" transform="translate(730.91 58.14)"/><path class="cls-9" d="M-407.37,99.39c-.37,2.47-4.81,3.86-9.87,3.08s-8.9-3.43-8.51-5.9,4.81-3.86,9.87-3.08,8.88,3.4,8.51,5.9" transform="translate(730.91 58.14)"/><polygon class="cls-9" points="287.08 187.93 298.73 187.77 292.84 197.3 287.08 187.93"/><path d="M-459.41,150.21c-.3.92,9,6.94,20.57,7.58,13.55.77,24.84-6.15,24.51-7.28-.23-.81-6.43,1.27-19.51,1.5a116.12,116.12,0,0,1-12.09-.3c-9.16-.69-13.3-2.1-13.48-1.5" transform="translate(730.91 58.14)"/><path d="M-481.35,117.54c-.56-.72,3.37-6,9.38-7.86a12.85,12.85,0,0,1,6.73-.49c3.08.65,5,2.36,7,4.1,2.38,2.08,4.83,5,4.41,5.48-.58.67-5.64-6-13.08-6.5-8-.65-13.81,6.1-14.45,5.27" transform="translate(730.91 58.14)"/><path d="M-397.5,117.05c.56-.71-3.37-6-9.38-7.86a12.84,12.84,0,0,0-6.73-.48c-3.08.65-5,2.36-7,4.09-2.38,2.08-4.83,5-4.41,5.48.58.67,5.64-5.94,13.08-6.5,8-.64,13.78,6.11,14.45,5.27" transform="translate(730.91 58.14)"/><path class="cls-10" d="M-467.67,146.49c-2.38,3.14-9.18,2-15.19-2.48s-8.94-10.75-6.59-13.89,9.18-2.06,15.17,2.47,9,10.73,6.61,13.9" transform="translate(730.91 58.14)"/><path class="cls-10" d="M-409.66,145.79c2.38,3.15,9.18,2.06,15.17-2.47s8.95-10.75,6.59-13.9-9.18-2-15.17,2.48-9,10.75-6.59,13.89" transform="translate(730.91 58.14)"/><path class="cls-5" d="M-419.32,256.26c0,7.93-7.42,14.38-16.58,14.38s-16.55-6.42-16.55-14.38,7.42-14.38,16.55-14.38,16.58,6.45,16.58,14.38" transform="translate(730.91 58.14)"/><path class="cls-5" d="M-451.83,236.89a42.48,42.48,0,0,0-1.11,8.18,41.4,41.4,0,0,0,.83,9.81c4.84-2.18,9.69-4.33,14.52-6.5a32.36,32.36,0,0,0-6.93-7.28,33.62,33.62,0,0,0-7.31-4.21" transform="translate(730.91 58.14)"/><path class="cls-5" d="M-421.82,236.26a40.33,40.33,0,0,0-6.7,4.84,42.38,42.38,0,0,0-6.55,7.35l14.71,6a32,32,0,0,0,.51-10,31.51,31.51,0,0,0-2-8.17" transform="translate(730.91 58.14)"/><path class="cls-11" d="M-442.35,258.09a2.67,2.67,0,0,1-3.56,1.18,2.63,2.63,0,0,1-1.07-3.56v0a2.67,2.67,0,0,1,3.56-1.18,2.63,2.63,0,0,1,1.07,3.56v0" transform="translate(730.91 58.14)"/><path class="cls-11" d="M-424.39,257.88a2.59,2.59,0,0,1-3.54,1,2.6,2.6,0,0,1-1-3.54,2.61,2.61,0,0,1,3.47-1,2.64,2.64,0,0,1,1.06,3.58h0" transform="translate(730.91 58.14)"/><line class="cls-12" x1="309.25" y1="317.85" x2="313.9" y2="319.65"/><line class="cls-12" x1="308.17" y1="320.09" x2="311.52" y2="324.09"/><line class="cls-12" x1="280.79" y1="320.23" x2="277.85" y2="323.63"/><line class="cls-12" x1="280.26" y1="317.5" x2="275.27" y2="319.33"/><path class="cls-8" d="M-454,52.52c3.31,12.21,14.92,16.54,36.93,30.27,20,12.51,30.24,19,38.12,30.26,9.71,13.85,10.11,25.21,12.42,24.81,3.72-.6,7.37-30.75-6.36-57.5-3.28-6.38-11.42-22-28.74-30.86-1.18-.61-11.37-2.92-31.77-7.56-10.21-2.34-16.57-3.7-19.67-.3s-1.41,9.17-.93,10.88" transform="translate(730.91 58.14)"/><path class="cls-8" d="M-451.85,50.42c.88,8.07-3,14.66-20.12,36.23-14.91,18.82-19.86,23.77-22.66,29.48a31.87,31.87,0,0,0-1.85,4.72c-4.43,13.89.21,25-.53,25.17-1,.28-14.08-20.76-11.16-47.86.76-7.21,2.49-21.91,13.36-34.21.76-.86,8.21-5.9,23.12-16,7.47-5,12.14-8.11,15.68-6.26,3.39,1.78,4,7.14,4.16,8.69" transform="translate(730.91 58.14)"/><polygon class="cls-2" points="430.82 288.6 309.04 379.32 296.4 379.32 427.54 284.21 430.82 288.6"/><polygon class="cls-2" points="410.1 265.02 310.34 379.51 297.99 382.19 405.99 261.43 410.1 265.02"/><polygon class="cls-2" points="446.91 313.66 312.12 383.65 299.66 381.64 444.37 308.83 446.91 313.66"/><polygon class="cls-2" points="297.99 378.61 166.85 283.49 162.85 296.04 292.74 377.36 297.99 378.61"/><polygon class="cls-2" points="184.29 264.27 284.07 378.79 296.4 381.45 188.43 260.69 184.29 264.27"/><polygon class="cls-2" points="147.48 312.92 282.27 382.93 294.73 380.89 150.02 308.09 147.48 312.92"/><path class="cls-7" d="M-608.47,285.86l156.22,47.9h29.71q83.31-24.19,166.63-48.42-4.89-13.24-9.73-26.49l-156.23,62.34h-27.51l-151.9-53C-603.69,274.07-606.07,280-608.47,285.86Z" transform="translate(730.91 58.14)"/><path class="cls-4" d="M-272.6,265.47c-12-7.7-21.06-16.61-19.38-19.26s13.16,1.54,25.57,9.48,21.09,16.57,19.38,19.25-13.18-1.54-25.57-9.47" transform="translate(730.91 58.14)"/><path class="cls-4" d="M-283.07,302.34c-14,6.93-26.24,10.33-27.26,7.53s9.52-10.66,23.56-17.61,26.24-10.34,27.28-7.57-9.55,10.69-23.58,17.65" transform="translate(730.91 58.14)"/><path class="cls-4" d="M-293.5,294.27c-14.8,4.33-27.17,5.53-27.65,2.73s11.12-8.6,25.89-12.92,27.17-5.53,27.66-2.74-11.1,8.62-25.9,12.92" transform="translate(730.91 58.14)"/><path class="cls-4" d="M-293.66,281.44c-14.68.51-27.19-1.11-27-4.18.18-2.85,12.57-5.6,27.65-6.13s27.17,1.34,27,4.18-12.58,5.58-27.65,6.13" transform="translate(730.91 58.14)"/><path class="cls-4" d="M-291.49,271.08c-14.06-3.4-25.48-8.69-24.51-11.81s13.46-2.64,28,.88,25.45,8.78,24.5,11.81-13.45,2.64-27.95-.88" transform="translate(730.91 58.14)"/><ellipse class="cls-4" cx="468.88" cy="337.45" rx="16.83" ry="20.44"/></svg>